<svg id="圖層_1" data-name="圖層 1" xmlns="http://www.w3.org/2000/svg" xmlns:xlink="http://www.w3.org/1999/xlink" viewBox="0 0 750 1334">
  <defs>
    <style>
      .cls-1 {
        fill: #7ec595;
      }

      .cls-11, .cls-13, .cls-2, .cls-5 {
        opacity: 0.37;
      }

      .cls-2 {
        fill: url(#未命名漸層_6);
      }

      .cls-12, .cls-14, .cls-3, .cls-6 {
        opacity: 0.61;
      }

      .cls-3 {
        fill: url(#未命名漸層_8);
      }

      .cls-4 {
        fill: #fff;
      }

      .cls-5 {
        fill: url(#未命名漸層_6-2);
      }

      .cls-6 {
        fill: url(#未命名漸層_8-2);
      }

      .cls-7 {
        fill: #6dbb5a;
        stroke: #6dbb5a;
        stroke-width: 4.32px;
      }

      .cls-20, .cls-7, .cls-8 {
        stroke-linecap: round;
        stroke-linejoin: round;
      }

      .cls-8 {
        fill: #408738;
        stroke: #408738;
        stroke-width: 0.86px;
      }

      .cls-9 {
        fill: #626363;
      }

      .cls-10 {
        fill: #424142;
      }

      .cls-11 {
        fill: url(#未命名漸層_6-3);
      }

      .cls-12 {
        fill: url(#未命名漸層_8-3);
      }

      .cls-13 {
        fill: url(#未命名漸層_6-4);
      }

      .cls-14 {
        fill: url(#未命名漸層_8-4);
      }

      .cls-15 {
        fill: #468080;
      }

      .cls-16 {
        fill: #244e4e;
      }

      .cls-17 {
        fill: #599b99;
      }

      .cls-18 {
        fill: #3a6d6f;
      }

      .cls-19 {
        fill: #191d27;
      }

      .cls-20, .cls-50 {
        fill: none;
      }

      .cls-20 {
        stroke: #2e3343;
        stroke-width: 5.97px;
      }

      .cls-21 {
        fill: #808694;
      }

      .cls-22 {
        fill: #516695;
      }

      .cls-23 {
        fill: #ddd;
      }

      .cls-24 {
        fill: #1c2d5a;
      }

      .cls-25 {
        fill: #2d8b94;
      }

      .cls-26 {
        fill: #b2dcef;
      }

      .cls-27 {
        fill: #063854;
      }

      .cls-28 {
        fill: #0e1b3b;
      }

      .cls-29 {
        fill: #e6ca52;
      }

      .cls-30 {
        fill: #ced8e0;
      }

      .cls-31 {
        fill: #01415d;
      }

      .cls-32 {
        fill: #1b717e;
      }

      .cls-33 {
        fill: #0d998a;
      }

      .cls-34 {
        fill: #065751;
      }

      .cls-35 {
        fill: #1e80a0;
      }

      .cls-36 {
        fill: #84a6b2;
      }

      .cls-37 {
        fill: #57b432;
      }

      .cls-38 {
        fill: #367838;
      }

      .cls-39 {
        fill: #331f0a;
      }

      .cls-40 {
        fill: #3e8d38;
      }

      .cls-41 {
        fill: #b0d47b;
      }

      .cls-42 {
        fill: #523718;
      }

      .cls-43 {
        fill: #036a4d;
      }

      .cls-44 {
        fill: #34886e;
      }

      .cls-45 {
        fill: #03392a;
      }

      .cls-46 {
        fill: #02543e;
      }

      .cls-47 {
        fill: #4c4951;
      }

      .cls-48 {
        fill: #2c2f27;
      }

      .cls-49 {
        fill: #ead74b;
      }

      .cls-51 {
        fill: #eae9e9;
      }

      .cls-52 {
        fill: #c7301d;
      }

      .cls-53 {
        fill: #393e3d;
      }

      .cls-54 {
        fill: #dae0dc;
      }

      .cls-55 {
        fill: #f0cb96;
      }

      .cls-56 {
        fill: #30a3a7;
      }

      .cls-57 {
        fill: #0f1010;
      }

      .cls-58 {
        fill: #dddad8;
      }

      .cls-59 {
        fill: #090305;
      }
    </style>
    <linearGradient id="未命名漸層_6" data-name="未命名漸層 6" x1="126.13" y1="80.5" x2="201.39" y2="192.57" gradientUnits="userSpaceOnUse">
      <stop offset="0" stop-color="#919191"/>
      <stop offset="1" stop-color="#fff" stop-opacity="0"/>
    </linearGradient>
    <linearGradient id="未命名漸層_8" data-name="未命名漸層 8" x1="156.06" y1="101.37" x2="229.08" y2="201.42" gradientUnits="userSpaceOnUse">
      <stop offset="0" stop-color="#fff" stop-opacity="0.5"/>
      <stop offset="1" stop-color="#fff" stop-opacity="0"/>
    </linearGradient>
    <linearGradient id="未命名漸層_6-2" x1="574.3" y1="467.89" x2="623.28" y2="540.83" xlink:href="#未命名漸層_6"/>
    <linearGradient id="未命名漸層_8-2" x1="593.78" y1="481.48" x2="641.3" y2="546.59" xlink:href="#未命名漸層_8"/>
    <linearGradient id="未命名漸層_6-3" x1="47.85" y1="389.88" x2="160.01" y2="556.93" xlink:href="#未命名漸層_6"/>
    <linearGradient id="未命名漸層_8-3" x1="92.46" y1="420.99" x2="201.29" y2="570.11" xlink:href="#未命名漸層_8"/>
    <linearGradient id="未命名漸層_6-4" x1="470.68" y1="663.99" x2="553.49" y2="787.32" xlink:href="#未命名漸層_6"/>
    <linearGradient id="未命名漸層_8-4" x1="503.62" y1="686.96" x2="583.97" y2="797.05" xlink:href="#未命名漸層_8"/>
  </defs>
  <title>IPHONE6 (無標準字)-01</title>
  <rect class="cls-1" x="-255.24" y="-1.62" width="1406.37" height="1332.62"/>
  <rect class="cls-1" x="-0.99" y="1.38" width="750.99" height="1332.62"/>
  <g>
    <polygon class="cls-2" points="57.15 114.64 153.22 234.31 321.33 234.31 220.31 114.02 57.15 114.64"/>
    <polygon class="cls-3" points="117.32 114.83 202.13 114.83 301.66 234.31 211.87 234.31 117.32 114.83"/>
    <path class="cls-4" d="M199,108.49h0c-7.85-13.75-20.79-11.48-23.9-10.7a1,1,0,0,1-1.09-.42c-4.79-7.32-12.27-14.28-23.58-15l0,.12,0-.12c-.18,0-.34,0-.38-.2-2-9-11.92-15.87-23.82-15.87-10.79,0-19.94,5.63-23.06,13.41a1,1,0,0,1-1.34.53A15.91,15.91,0,0,0,95,78.8C77.07,79,75,93.72,74,93.9h0C58.77,98.44,57.13,110.42,57,114a1,1,0,0,0,.81,1H219.31a1,1,0,0,0,.22-2Z"/>
  </g>
  <g>
    <polygon class="cls-5" points="529.41 490.12 591.93 568 701.33 568 635.59 489.71 529.41 490.12"/>
    <polygon class="cls-6" points="568.57 490.24 623.76 490.24 688.53 568 630.1 568 568.57 490.24"/>
    <path class="cls-4" d="M621.74,486.11h0c-5.11-8.95-13.53-7.47-15.56-7a.65.65,0,0,1-.71-.28c-3.12-4.76-8-9.29-15.35-9.75v0c-.12,0-.22,0-.25-.13-1.32-5.87-7.76-10.33-15.5-10.33-7,0-13,3.67-15,8.73a.65.65,0,0,1-.87.35,10.35,10.35,0,0,0-4.45-1c-11.69.13-13.06,9.71-13.7,9.82h0c-9.88,3-10.95,10.75-11,13.1a.63.63,0,0,0,.53.67H634.94a.65.65,0,0,0,.14-1.29Z"/>
  </g>
  <g>
    <polygon class="cls-7" points="-241.89 1230.04 -102.89 945.13 -64.33 965.73 94.95 712.36 230.32 890.37 241.33 879.01 299.57 983.16 465.63 745.91 498.76 778.26 697.08 458.71 915.02 810.84 926.04 814.62 996.87 924.46 1044.09 1030.51 1147.98 1229.88 -241.89 1230.04"/>
    <polygon class="cls-8" points="1151.13 1229.88 1050.78 1038.08 999.23 923.44 927.12 812.55 916.3 808.94 866.23 728.58 863.23 723.37 698.17 457.3 755.43 629.04 861.93 845.56 904 930.14 867.8 973.7 910.3 1123.39 755.43 1229.88 1151.13 1229.88"/>
    <polygon class="cls-8" points="95.6 710.69 158.93 863.47 198.9 940.16 215.45 1026.8 215.45 1079.34 246.14 1144.67 6.8 1229.88 453.05 1229.88 300.78 981.44 241.74 876.54 230.47 887.46 95.6 710.69"/>
  </g>
  <g>
    <rect class="cls-9" x="-84.23" y="1169.36" width="868.13" height="108.56"/>
    <rect class="cls-10" x="-84.23" y="1184.81" width="868.13" height="77.66"/>
  </g>
  <g>
    <polygon class="cls-11" points="-54.97 440.78 88.22 619.14 338.78 619.14 188.22 439.84 -54.97 440.78"/>
    <polygon class="cls-12" points="34.72 441.06 161.12 441.06 309.45 619.14 175.64 619.14 34.72 441.06"/>
    <path class="cls-4" d="M156.5,431.6v0c-11.7-20.49-31-17.11-35.63-15.95a1.49,1.49,0,0,1-1.62-.63c-7.13-10.91-18.29-21.28-35.14-22.32l0,.17,0-.17c-.26,0-.51,0-.57-.3C80.53,379,65.78,368.76,48,368.76c-16.09,0-29.72,8.4-34.37,20a1.48,1.48,0,0,1-2,.79,23.71,23.71,0,0,0-10.19-2.19c-26.77.29-29.9,22.23-31.39,22.5h0c-22.63,6.77-25.07,24.62-25.29,30A1.44,1.44,0,0,0-54,441.4H186.72a1.5,1.5,0,0,0,.33-3Z"/>
  </g>
  <g>
    <polygon class="cls-13" points="394.77 701.57 500.49 833.25 685.48 833.25 574.32 700.88 394.77 701.57"/>
    <polygon class="cls-14" points="460.99 701.77 554.31 701.77 663.83 833.25 565.03 833.25 460.99 701.77"/>
    <path class="cls-4" d="M550.9,694.79h0c-8.64-15.13-22.88-12.63-26.3-11.77a1.1,1.1,0,0,1-1.19-.47c-5.27-8.05-13.5-15.71-25.95-16.48l0,.13,0-.13c-.19,0-.38,0-.42-.22-2.23-9.93-13.12-17.46-26.22-17.46-11.88,0-21.94,6.2-25.38,14.76a1.09,1.09,0,0,1-1.48.58,17.5,17.5,0,0,0-7.52-1.61c-19.76.21-22.08,16.41-23.17,16.61h0c-16.71,5-18.51,18.18-18.67,22.14a1.06,1.06,0,0,0,.9,1.14H573.21a1.1,1.1,0,0,0,.24-2.18Z"/>
  </g>
  <g>
    <polygon class="cls-15" points="582.33 1048.44 582.33 783.37 634.13 730.89 638.84 1048.44 582.33 1048.44"/>
    <polygon class="cls-16" points="669.78 782.7 634.13 730.89 638.84 1048.44 669.78 1048.44 669.78 782.7"/>
    <polygon class="cls-17" points="589.73 1048.44 638.35 1003.85 589.73 967.47 637.56 931.85 589.73 892.13 635.4 831.64 589.73 782.7 634.2 735.83 638.84 1048.44 589.73 1048.44"/>
  </g>
  <g>
    <polygon class="cls-18" points="635.62 831.36 675.17 829.12 718.22 874.87 695.8 878 635.62 831.36"/>
    <polygon class="cls-16" points="694.99 1153.32 686.92 1046.94 694.99 1040.66 694.99 876.5 717.41 873.36 729.8 1153.32 694.99 1153.32"/>
    <polygon class="cls-15" points="635.62 831.36 695.8 878 695.8 1042.16 687.73 1048.44 634.13 1042.61 635.62 831.36"/>
    <polygon class="cls-17" points="646.91 934.07 695.8 878 695.8 1042.16 690.56 1048.44 658.59 1024.2 690.56 984.3 646.91 934.07"/>
  </g>
  <g>
    <g>
      <polygon class="cls-19" points="160.28 939.23 133.45 1168.02 204.69 1168.02 171.8 939.13 160.28 939.23"/>
      <line class="cls-20" x1="31.45" y1="990.25" x2="300.66" y2="896.87"/>
      <line class="cls-20" x1="99.52" y1="1069.13" x2="230.2" y2="814.97"/>
      <line class="cls-20" x1="234.36" y1="1070.89" x2="102.04" y2="814.97"/>
      <line class="cls-20" x1="36.58" y1="885.53" x2="295.97" y2="999.1"/>
      <circle class="cls-21" cx="166.78" cy="940.44" r="13.47" transform="translate(-293.99 103.82) rotate(-18.79)"/>
      <circle class="cls-19" cx="166.78" cy="940.35" r="9.94"/>
      <circle class="cls-20" cx="165.48" cy="941.9" r="142.45"/>
    </g>
    <g>
      <circle class="cls-22" cx="102.75" cy="1063.82" r="24.41"/>
      <path class="cls-23" d="M92.32,1060.78h20.86a2.71,2.71,0,0,1,2.26,3.75,14.3,14.3,0,0,1-6,7.52,13.13,13.13,0,0,1-12.93.69,12.51,12.51,0,0,1-6.53-8.51A2.68,2.68,0,0,1,92.32,1060.78Z"/>
    </g>
    <g>
      <circle class="cls-24" cx="31.45" cy="993.19" r="24.41"/>
      <path class="cls-23" d="M21,987.52H41.88a2.71,2.71,0,0,1,2.26,3.75,14.3,14.3,0,0,1-6,7.52,13.13,13.13,0,0,1-12.93.69A12.51,12.51,0,0,1,18.67,991,2.68,2.68,0,0,1,21,987.52Z"/>
    </g>
    <g>
      <circle class="cls-22" cx="36.58" cy="879.13" r="24.41"/>
      <path class="cls-23" d="M26.16,875.41H47a2.71,2.71,0,0,1,2.26,3.75,14.3,14.3,0,0,1-6,7.52,13.13,13.13,0,0,1-12.93.69,12.51,12.51,0,0,1-6.53-8.51A2.68,2.68,0,0,1,26.16,875.41Z"/>
    </g>
    <g>
      <circle class="cls-22" cx="227.95" cy="811.08" r="24.41"/>
      <path class="cls-23" d="M217.52,808.3h20.86a2.71,2.71,0,0,1,2.26,3.75,14.3,14.3,0,0,1-6,7.52,13.13,13.13,0,0,1-12.93.69,12.51,12.51,0,0,1-6.53-8.51A2.68,2.68,0,0,1,217.52,808.3Z"/>
    </g>
    <g>
      <circle class="cls-24" cx="106.81" cy="808.3" r="24.41"/>
      <path class="cls-23" d="M96.38,805.93h20.86a2.71,2.71,0,0,1,2.26,3.75,14.3,14.3,0,0,1-6,7.52,13.13,13.13,0,0,1-12.93.69A12.51,12.51,0,0,1,94,809.38,2.68,2.68,0,0,1,96.38,805.93Z"/>
    </g>
    <g>
      <circle class="cls-24" cx="303.04" cy="894.49" r="24.41"/>
      <path class="cls-23" d="M292.61,890.2h20.86a2.71,2.71,0,0,1,2.26,3.75,14.3,14.3,0,0,1-6,7.52,13.13,13.13,0,0,1-12.93.69,12.51,12.51,0,0,1-6.53-8.51A2.68,2.68,0,0,1,292.61,890.2Z"/>
    </g>
    <g>
      <circle class="cls-22" cx="300.66" cy="999.1" r="24.41"/>
      <path class="cls-23" d="M290.23,994.19h20.86a2.71,2.71,0,0,1,2.26,3.75,14.3,14.3,0,0,1-6,7.52,13.13,13.13,0,0,1-12.93.69,12.51,12.51,0,0,1-6.53-8.51A2.68,2.68,0,0,1,290.23,994.19Z"/>
    </g>
    <g>
      <circle class="cls-24" cx="230.2" cy="1063.82" r="24.41"/>
      <path class="cls-23" d="M219.78,1060.78h20.86a2.71,2.71,0,0,1,2.26,3.75,14.3,14.3,0,0,1-6,7.52,13.13,13.13,0,0,1-12.93.69,12.51,12.51,0,0,1-6.53-8.51A2.68,2.68,0,0,1,219.78,1060.78Z"/>
    </g>
  </g>
  <g>
    <polygon class="cls-25" points="668.13 980.58 693 1174.85 754.04 1174.85 754.04 1000.27 668.13 980.58"/>
    <g>
      <polygon class="cls-26" points="741.52 1042.04 735.65 1040.29 735.65 1020.24 741.52 1021.71 741.52 1042.04"/>
      <polygon class="cls-26" points="721.55 1037.99 715.68 1036.24 715.68 1016.19 721.55 1017.66 721.55 1037.99"/>
      <polygon class="cls-26" points="730.68 1040.14 724.81 1038.39 724.81 1018.34 730.68 1019.82 730.68 1040.14"/>
      <polygon class="cls-26" points="741.52 1068.05 735.65 1066.31 735.65 1046.26 741.52 1047.73 741.52 1068.05"/>
      <polygon class="cls-26" points="741.52 1094.87 735.65 1093.13 735.65 1073.08 741.52 1074.55 741.52 1094.87"/>
      <polygon class="cls-26" points="731.91 1092.36 726.03 1090.62 726.03 1070.57 731.91 1072.04 731.91 1092.36"/>
      <polygon class="cls-26" points="716.65 1117.32 710.77 1115.57 710.77 1095.52 716.65 1097 716.65 1117.32"/>
      <polygon class="cls-26" points="716.65 1141.24 710.77 1139.49 710.77 1119.44 716.65 1120.92 716.65 1141.24"/>
      <polygon class="cls-26" points="725.72 1143.75 719.84 1142.01 719.84 1121.95 725.72 1123.43 725.72 1143.75"/>
    </g>
  </g>
  <g>
    <path class="cls-27" d="M237.6,1056.68c0-4.44-4.56-185.75-4.56-185.75l99.83-31.7,3.68-87.49,19.49,3.8-19.49,414.21-95.53-.86Z"/>
    <polygon class="cls-28" points="380.78 793.34 356.04 755.54 350.81 866.5 370.87 879.11 380.78 793.34"/>
    <polygon class="cls-28" points="373.94 1168.89 380.78 884.87 365.8 875.36 350.81 866.5 336.55 1169.75 373.94 1168.89"/>
    <polygon class="cls-29" points="260.25 914.42 264.27 963.52 275.69 963.52 278.03 915.92 260.25 914.42"/>
    <polygon class="cls-29" points="284.64 921.93 284.64 923.81 284.64 963.52 295.14 963.52 297.47 925.68 284.64 921.93"/>
  </g>
  <g>
    <rect class="cls-30" x="517.52" y="874.77" width="65.82" height="19.01" rx="9.5" ry="9.5"/>
    <rect class="cls-30" x="553.07" y="843.94" width="45.13" height="14.76" rx="7.38" ry="7.38"/>
    <rect class="cls-30" x="590.18" y="815.26" width="30.35" height="10.89" rx="5.44" ry="5.44"/>
  </g>
  <g>
    <polygon class="cls-28" points="404.03 951.39 470.77 946.28 449.3 956.26 404.03 951.39"/>
    <polygon class="cls-31" points="449.3 956.26 404.03 951.39 404.03 1038.55 450.36 1039.65 449.3 956.26"/>
    <polygon class="cls-32" points="485.01 1172.47 470.77 946.28 449.3 956.26 442.29 1171.52 485.01 1172.47"/>
  </g>
  <g>
    <polygon class="cls-33" points="224.64 1071.92 229.78 1170.32 101.78 1171.08 88.86 1071.92 224.64 1071.92"/>
    <polygon class="cls-34" points="265.39 1102.37 224.64 1071.92 229.78 1170.32 269.02 1170.32 265.39 1102.37"/>
    <polygon class="cls-29" points="122.78 1103 122.78 1103.85 122.78 1121.71 115.77 1121.71 114.21 1104.69 122.78 1103"/>
    <polygon class="cls-29" points="135.93 1103 135.93 1103.85 135.93 1121.71 128.91 1121.71 127.35 1104.69 135.93 1103"/>
    <polygon class="cls-29" points="122.78 1126.65 122.78 1127.49 122.78 1145.35 115.77 1145.35 114.21 1128.33 122.78 1126.65"/>
    <polygon class="cls-29" points="135.93 1126.65 135.93 1127.49 135.93 1145.35 128.91 1145.35 127.35 1128.33 135.93 1126.65"/>
  </g>
  <polygon class="cls-16" points="589.96 951.96 596.34 1171.5 569.25 1171.5 567.39 1007.93 554.06 998.71 554.06 948.93 589.96 951.96"/>
  <g>
    <g>
      <polygon class="cls-25" points="526 926.41 540.14 992.15 472.61 992.15 465.37 909.58 526 926.41"/>
      <polygon class="cls-32" points="554.06 997.88 554.06 926.41 526 926.41 540.14 992.15 554.06 997.88"/>
      <polygon class="cls-32" points="540.14 992.15 530.68 1170.67 569.25 1170.67 567.39 1007.1 554.06 997.88 540.14 992.15"/>
      <polygon class="cls-25" points="530.68 1170.67 479.73 1169.75 472.61 992.15 540.14 992.15 530.68 1170.67"/>
    </g>
    <rect class="cls-29" x="485.01" y="962.15" width="4.46" height="20.41"/>
    <rect class="cls-29" x="485.01" y="987.12" width="4.46" height="20.41"/>
    <rect class="cls-29" x="492.02" y="962.15" width="4.46" height="20.41"/>
    <rect class="cls-29" x="492.02" y="987.12" width="4.46" height="20.41"/>
    <rect class="cls-29" x="485.01" y="1009.65" width="4.46" height="20.41"/>
    <rect class="cls-29" x="492.02" y="1034.3" width="4.46" height="20.41"/>
    <rect class="cls-29" x="485.01" y="1034.3" width="4.46" height="20.41"/>
    <rect class="cls-29" x="492.02" y="1010.29" width="4.46" height="20.41"/>
    <polygon class="cls-27" points="465.37 909.58 554.06 926.41 527.15 931.75 465.37 909.58"/>
  </g>
  <g>
    <polygon class="cls-26" points="589.04 1041.24 602.82 1171.47 698.04 1171.47 679.25 1041.24 589.04 1041.24"/>
    <g>
      <polygon class="cls-35" points="664.47 1078.79 674.89 1078.08 671.93 1062.46 662.96 1061.7 664.47 1078.79"/>
      <polygon class="cls-35" points="658.51 1103.03 668.92 1102.32 665.97 1086.7 657 1085.94 658.51 1103.03"/>
      <polygon class="cls-35" points="674.17 1122.48 684.59 1121.77 681.63 1106.15 672.66 1105.38 674.17 1122.48"/>
      <polygon class="cls-35" points="642.69 1103.03 653.11 1102.32 650.15 1086.7 641.18 1085.94 642.69 1103.03"/>
    </g>
    <polygon class="cls-36" points="565.23 1171.47 555.21 1042.92 589.04 1041.24 602.82 1171.47 565.23 1171.47"/>
  </g>
  <g>
    <path class="cls-37" d="M769.17,1134.42h0c.29-19.44-29.76-51-29.81-51.07h0s-30.09,31.63-29.81,51.07h0q0,.36,0,.72a29.81,29.81,0,1,0,59.62,0Q769.18,1134.78,769.17,1134.42Z"/>
    <path class="cls-38" d="M769.17,1134.42h0c.29-19.45-29.81-51.07-29.81-51.07v50.37h0v31.22a29.81,29.81,0,0,0,29.81-29.81Q769.18,1134.78,769.17,1134.42Z"/>
    <g>
      <rect class="cls-39" x="738.16" y="1134.57" width="2.81" height="43.79" rx="1.41" ry="1.41"/>
      <rect class="cls-39" x="744.21" y="1132.21" width="1.65" height="15.63" rx="0.83" ry="0.83" transform="translate(1104.68 -173.52) rotate(48.48)"/>
      <rect class="cls-39" x="735.81" y="1143.74" width="1.61" height="7.5" rx="0.7" ry="0.7" transform="translate(2084.04 1356.67) rotate(131.52)"/>
    </g>
  </g>
  <g>
    <circle class="cls-37" cx="704.13" cy="1137.26" r="25.03"/>
    <path class="cls-40" d="M729.16,1137.26a25,25,0,0,1-25,25v-50.06A25,25,0,0,1,729.16,1137.26Z"/>
    <path class="cls-41" d="M730.95,1129.08s-8.07-.74-9.58,7.77C730,1137.14,730.95,1129.08,730.95,1129.08Z"/>
    <g>
      <rect class="cls-42" x="702.95" y="1142.28" width="2.36" height="36.77" rx="1.18" ry="1.18"/>
      <rect class="cls-42" x="708.03" y="1140.3" width="1.39" height="13.13" rx="0.69" ry="0.69" transform="translate(1097.55 -144.03) rotate(48.48)"/>
      <rect class="cls-42" x="700.97" y="1149.98" width="1.35" height="6.3" rx="0.59" ry="0.59" transform="translate(2030.12 1392.22) rotate(131.52)"/>
    </g>
  </g>
  <g>
    <g>
      <polygon class="cls-43" points="416.32 1042.44 373.09 1091.5 373.09 1171.36 462.24 1171.36 462.2 1091.04 416.32 1042.44"/>
      <polygon class="cls-44" points="462.24 1171.36 462.2 1091.04 540.68 1091.5 540.68 1171.36 462.24 1171.36"/>
      <path class="cls-45" d="M340.22,1095.7c.27-1,61.75-73,61.75-73l14.35,19.79-43.23,49.06Z"/>
      <polygon class="cls-46" points="401.97 1022.65 467.31 1114.42 557.49 1114.42 507.83 1039.48 401.97 1022.65"/>
    </g>
    <rect class="cls-26" x="383.5" y="1109.24" width="9.75" height="17.14"/>
    <rect class="cls-26" x="383.5" y="1131.2" width="9.75" height="17.14"/>
    <rect class="cls-26" x="397.09" y="1109.24" width="9.75" height="17.14"/>
  </g>
  <g>
    <rect class="cls-47" x="52.57" y="1045.39" width="4.15" height="96.25"/>
    <rect class="cls-48" x="50.38" y="1118.93" width="8.52" height="54.23" rx="3.27" ry="3.27"/>
    <rect class="cls-49" x="46.73" y="1029.63" width="15.83" height="36.94" rx="3.27" ry="3.27"/>
    <rect class="cls-47" x="50.76" y="1024.2" width="7.76" height="5.42" rx="1.54" ry="1.54"/>
  </g>
  <g>
    <g>
      <rect class="cls-50" x="-3" y="1196.32" width="47.23" height="52.5"/>
      <rect class="cls-51" x="31.97" y="1220.72" width="8.77" height="5.25"/>
      <rect class="cls-51" x="16.25" y="1220.72" width="8.77" height="5.25"/>
      <rect class="cls-51" x="0.58" y="1220.72" width="8.77" height="5.25"/>
    </g>
    <g>
      <rect class="cls-50" x="44.23" y="1196.32" width="47.23" height="52.5"/>
      <rect class="cls-51" x="79.2" y="1220.72" width="8.77" height="5.25"/>
      <rect class="cls-51" x="63.48" y="1220.72" width="8.77" height="5.25"/>
      <rect class="cls-51" x="47.81" y="1220.72" width="8.77" height="5.25"/>
    </g>
    <g>
      <rect class="cls-50" x="91.45" y="1196.32" width="47.23" height="52.5"/>
      <rect class="cls-51" x="126.43" y="1220.72" width="8.77" height="5.25"/>
      <rect class="cls-51" x="110.7" y="1220.72" width="8.77" height="5.25"/>
      <rect class="cls-51" x="95.03" y="1220.72" width="8.77" height="5.25"/>
    </g>
    <g>
      <rect class="cls-50" x="138.68" y="1196.32" width="47.23" height="52.5"/>
      <rect class="cls-51" x="173.65" y="1220.72" width="8.77" height="5.25"/>
      <rect class="cls-51" x="157.93" y="1220.72" width="8.77" height="5.25"/>
      <rect class="cls-51" x="142.26" y="1220.72" width="8.77" height="5.25"/>
    </g>
    <g>
      <rect class="cls-50" x="185.91" y="1196.32" width="47.23" height="52.5"/>
      <rect class="cls-51" x="220.88" y="1220.72" width="8.77" height="5.25"/>
      <rect class="cls-51" x="205.16" y="1220.72" width="8.77" height="5.25"/>
      <rect class="cls-51" x="189.49" y="1220.72" width="8.77" height="5.25"/>
    </g>
    <g>
      <rect class="cls-50" x="233.14" y="1196.32" width="47.23" height="52.5"/>
      <rect class="cls-51" x="268.11" y="1220.72" width="8.77" height="5.25"/>
      <rect class="cls-51" x="252.38" y="1220.72" width="8.77" height="5.25"/>
      <rect class="cls-51" x="236.71" y="1220.72" width="8.77" height="5.25"/>
    </g>
    <g>
      <rect class="cls-50" x="280.36" y="1196.32" width="47.23" height="52.5"/>
      <rect class="cls-51" x="315.33" y="1220.72" width="8.77" height="5.25"/>
      <rect class="cls-51" x="299.61" y="1220.72" width="8.77" height="5.25"/>
      <rect class="cls-51" x="283.94" y="1220.72" width="8.77" height="5.25"/>
    </g>
    <g>
      <rect class="cls-50" x="327.59" y="1196.32" width="47.23" height="52.5"/>
      <rect class="cls-51" x="362.56" y="1220.72" width="8.77" height="5.25"/>
      <rect class="cls-51" x="346.84" y="1220.72" width="8.77" height="5.25"/>
      <rect class="cls-51" x="331.17" y="1220.72" width="8.77" height="5.25"/>
    </g>
    <g>
      <rect class="cls-50" x="374.82" y="1196.32" width="47.23" height="52.5"/>
      <rect class="cls-51" x="409.79" y="1220.72" width="8.77" height="5.25"/>
      <rect class="cls-51" x="394.07" y="1220.72" width="8.77" height="5.25"/>
      <rect class="cls-51" x="378.39" y="1220.72" width="8.77" height="5.25"/>
    </g>
    <g>
      <rect class="cls-50" x="422.04" y="1196.32" width="47.23" height="52.5"/>
      <rect class="cls-51" x="457.01" y="1220.72" width="8.77" height="5.25"/>
      <rect class="cls-51" x="441.29" y="1220.72" width="8.77" height="5.25"/>
      <rect class="cls-51" x="425.62" y="1220.72" width="8.77" height="5.25"/>
    </g>
    <g>
      <rect class="cls-50" x="469.27" y="1196.32" width="47.23" height="52.5"/>
      <rect class="cls-51" x="504.24" y="1220.72" width="8.77" height="5.25"/>
      <rect class="cls-51" x="488.52" y="1220.72" width="8.77" height="5.25"/>
      <rect class="cls-51" x="472.85" y="1220.72" width="8.77" height="5.25"/>
    </g>
    <g>
      <rect class="cls-50" x="516.5" y="1196.32" width="47.23" height="52.5"/>
      <rect class="cls-51" x="551.47" y="1220.72" width="8.77" height="5.25"/>
      <rect class="cls-51" x="535.75" y="1220.72" width="8.77" height="5.25"/>
      <rect class="cls-51" x="520.08" y="1220.72" width="8.77" height="5.25"/>
    </g>
    <g>
      <rect class="cls-50" x="563.72" y="1196.32" width="47.23" height="52.5"/>
      <rect class="cls-51" x="598.7" y="1220.72" width="8.77" height="5.25"/>
      <rect class="cls-51" x="582.97" y="1220.72" width="8.77" height="5.25"/>
      <rect class="cls-51" x="567.3" y="1220.72" width="8.77" height="5.25"/>
    </g>
    <g>
      <rect class="cls-50" x="610.95" y="1196.32" width="47.23" height="52.5"/>
      <rect class="cls-51" x="645.92" y="1220.72" width="8.77" height="5.25"/>
      <rect class="cls-51" x="630.2" y="1220.72" width="8.77" height="5.25"/>
      <rect class="cls-51" x="614.53" y="1220.72" width="8.77" height="5.25"/>
    </g>
    <g>
      <rect class="cls-50" x="658.18" y="1196.32" width="47.23" height="52.5"/>
      <rect class="cls-51" x="693.15" y="1220.72" width="8.77" height="5.25"/>
      <rect class="cls-51" x="677.43" y="1220.72" width="8.77" height="5.25"/>
      <rect class="cls-51" x="661.76" y="1220.72" width="8.77" height="5.25"/>
    </g>
    <g>
      <rect class="cls-50" x="705.41" y="1196.32" width="47.23" height="52.5"/>
      <rect class="cls-51" x="740.38" y="1220.72" width="8.77" height="5.25"/>
      <rect class="cls-51" x="724.65" y="1220.72" width="8.77" height="5.25"/>
      <rect class="cls-51" x="708.98" y="1220.72" width="8.77" height="5.25"/>
    </g>
  </g>
  <g>
    <g>
      <path class="cls-52" d="M688.86,1162.66c-19.59-12.5-36.28-15.87-36.28-15.87h0a30.84,30.84,0,0,0-8.52-1.21H614.9a32,32,0,0,0-17.19,5.15c-10.88,6.93-23.75,10.69-29.69,12.18a24,24,0,0,0-8.34,3.87c-6.69,4.88-8.54,10-8.44,14.38.13,5.8,4.52,10.36,9.75,10.36H684.37c4.63,0,8.62-3.61,9.56-8.65C696.71,1168,688.86,1162.66,688.86,1162.66Z"/>
      <g>
        <ellipse class="cls-53" cx="576.52" cy="1186.17" rx="12.91" ry="14.33"/>
        <ellipse class="cls-54" cx="576.52" cy="1186.17" rx="7.64" ry="8.49"/>
      </g>
      <g>
        <ellipse class="cls-53" cx="667.09" cy="1186.17" rx="12.91" ry="14.33"/>
        <ellipse class="cls-54" cx="667.09" cy="1186.17" rx="7.64" ry="8.49"/>
      </g>
    </g>
    <g>
      <path class="cls-54" d="M618.55,1148.67c-12,0-19.94,12.13-19.94,12.13h30.88v-12.13Z"/>
      <path class="cls-54" d="M647.66,1149.6a20.42,20.42,0,0,0-6.09-.93H631.24v12.13H667.1C661.24,1154.5,652.45,1151.09,647.66,1149.6Z"/>
    </g>
    <path class="cls-55" d="M556.83,1169.15s-6,4.56-5.58,12a6.13,6.13,0,0,0,1.67-.8,9.46,9.46,0,0,0,4-8.35Z"/>
  </g>
  <g>
    <g>
      <path class="cls-56" d="M54,1217.43c19.15-12.22,35.46-15.51,35.46-15.51h0a30.14,30.14,0,0,1,8.32-1.18h28.51a31.26,31.26,0,0,1,16.81,5c10.64,6.77,23.22,10.45,29,11.91a23.42,23.42,0,0,1,8.15,3.78c6.54,4.77,8.35,9.82,8.25,14.06-.13,5.67-4.42,10.12-9.53,10.12H58.38c-4.52,0-8.42-3.53-9.34-8.45C46.32,1222.62,54,1217.43,54,1217.43Z"/>
      <g>
        <ellipse class="cls-53" cx="163.8" cy="1240.4" rx="12.62" ry="14.01"/>
        <ellipse class="cls-54" cx="163.8" cy="1240.4" rx="7.47" ry="8.3"/>
      </g>
      <g>
        <ellipse class="cls-53" cx="75.27" cy="1240.4" rx="12.62" ry="14.01"/>
        <ellipse class="cls-54" cx="75.27" cy="1240.4" rx="7.47" ry="8.3"/>
      </g>
    </g>
    <g>
      <path class="cls-54" d="M122.72,1203.75c11.71,0,19.49,11.86,19.49,11.86H112v-11.86Z"/>
      <path class="cls-54" d="M94.27,1204.66a20,20,0,0,1,5.95-.91h10.1v11.86H75.26C81,1209.45,89.58,1206.12,94.27,1204.66Z"/>
    </g>
    <path class="cls-55" d="M183.05,1223.77s5.9,4.46,5.46,11.75a6,6,0,0,1-1.63-.78,9.25,9.25,0,0,1-3.94-8.16Z"/>
  </g>
  <g>
    <path class="cls-38" d="M306.92,1123.93h0c-.36-24.49,37.49-64.27,37.55-64.33h0c.05.06,37.91,39.84,37.55,64.33h0q0,.45,0,.91a37.55,37.55,0,1,1-75.1,0Q306.91,1124.38,306.92,1123.93Z"/>
    <path class="cls-37" d="M306.92,1123.93h0c-.36-24.51,37.55-64.33,37.55-64.33v63.46h0v39.33a37.55,37.55,0,0,1-37.55-37.55Q306.91,1124.38,306.92,1123.93Z"/>
    <g>
      <rect class="cls-39" x="342.44" y="1124.12" width="3.55" height="55.16" rx="1.77" ry="1.77" transform="translate(688.43 2303.41) rotate(-180)"/>
      <rect class="cls-39" x="336.28" y="1121.15" width="2.08" height="19.69" rx="1.04" ry="1.04" transform="translate(1407.71 1628.19) rotate(131.52)"/>
      <rect class="cls-39" x="346.92" y="1135.67" width="2.03" height="9.45" rx="0.88" ry="0.88" transform="translate(971.1 123.92) rotate(48.48)"/>
    </g>
    <path class="cls-41" d="M308.42,1087.35s12.11-1.12,14.36,11.66C309.82,1099.44,308.42,1087.35,308.42,1087.35Z"/>
    <path class="cls-41" d="M308.42,1100.88s12.11-1.12,14.36,11.66C309.82,1113,308.42,1100.88,308.42,1100.88Z"/>
  </g>
  <g>
    <circle class="cls-37" cx="289.06" cy="1137.07" r="24.57"/>
    <path class="cls-38" d="M313.63,1137.07a24.57,24.57,0,0,1-24.57,24.57V1112.5A24.57,24.57,0,0,1,313.63,1137.07Z"/>
    <g>
      <rect class="cls-42" x="287.9" y="1141.99" width="2.32" height="36.1" rx="1.16" ry="1.16"/>
      <rect class="cls-42" x="292.89" y="1140.05" width="1.36" height="12.88" rx="0.68" ry="0.68" transform="translate(957.33 166.67) rotate(48.48)"/>
      <rect class="cls-42" x="285.96" y="1149.55" width="1.33" height="6.18" rx="0.58" ry="0.58" transform="translate(1339.61 1702.14) rotate(131.52)"/>
    </g>
    <path class="cls-41" d="M315.38,1129s-7.93-.73-9.4,7.63C314.47,1136.95,315.38,1129,315.38,1129Z"/>
  </g>
  <g>
    <g>
      <path class="cls-57" d="M339.38,1099.18l-9.44,3.17a.82.82,0,0,0-.33,1.41l6.42,8.3a.83.83,0,0,1,.27.57l.35,6.35a.82.82,0,0,0,.34.62l8.33,6a.79.79,0,0,0,.79.08l12.38-4.52a.83.83,0,0,0,.17-1.39l-9.89-5.89a.83.83,0,0,1-.31-.68l.19-5a.83.83,0,0,0-.24-.62l-8.27-8.18A.79.79,0,0,0,339.38,1099.18Z"/>
      <path class="cls-58" d="M337,1099.18l-10.68,3.17a.82.82,0,0,0-.33,1.41l7.66,8.3a.83.83,0,0,1,.27.57l.35,6.35a.82.82,0,0,0,.34.62l8.33,6a.79.79,0,0,0,.79.08l9.86-4.52a.83.83,0,0,0,.17-1.39l-7.37-5.89a.83.83,0,0,1-.31-.68l.19-5a.83.83,0,0,0-.24-.62l-8.27-8.18A.79.79,0,0,0,337,1099.18Z"/>
      <path class="cls-57" d="M343.78,1092.58s-5.57-.09-4.65,4.92C339.13,1097.5,344.34,1097.06,343.78,1092.58Z"/>
      <path class="cls-57" d="M335.3,1094.82a2.94,2.94,0,0,0,2.84,2.46S338.53,1095,335.3,1094.82Z"/>
      <path class="cls-58" d="M342.84,1092.58s-5.57-.09-4.65,4.92C338.19,1097.5,343.41,1097.06,342.84,1092.58Z"/>
      <path class="cls-58" d="M334.37,1094.82a2.94,2.94,0,0,0,2.84,2.46S337.59,1095,334.37,1094.82Z"/>
      <path class="cls-59" d="M334.94,1102.75a1.54,1.54,0,0,1,2,0,1.24,1.24,0,0,1,0,1.87,1.54,1.54,0,0,1-2,0A1.24,1.24,0,0,1,334.94,1102.75Z"/>
    </g>
    <polygon class="cls-57" points="338.3 1112.44 340.45 1115.4 338.3 1118.36 341.42 1116.32 344.55 1118.36 342.4 1115.4 344.55 1112.44 341.42 1114.47 338.3 1112.44"/>
  </g>
</svg>
