<svg xmlns="http://www.w3.org/2000/svg" xmlns:xlink="http://www.w3.org/1999/xlink" viewBox="0 0 409.14 174.72">
  <defs>
    <style>
      .cls-1 {
        fill: none;
      }

      .cls-2 {
        fill: #fce47e;
      }

      .cls-3 {
        fill: #040000;
      }

      .cls-4 {
        fill: #006d24;
      }

      .cls-5 {
        fill: #63a80b;
      }

      .cls-6 {
        fill: #cbf495;
      }

      .cls-7 {
        stroke: #000;
        stroke-miterlimit: 10;
        stroke-width: 0.89px;
      }

      .cls-8 {
        clip-path: url(#clip-path);
      }
    </style>
    <clipPath id="clip-path">
      <polygon class="cls-1" points="365.07 105.6 366.02 128.32 371.21 125.97 384.94 125.9 394.6 105.6 365.07 105.6"/>
    </clipPath>
  </defs>
  <title>標準字</title>
  <g id="圖層_2" data-name="圖層 2">
    <g id="圖層_1-2" data-name="圖層 1">
      <g>
        <ellipse class="cls-2" cx="329.33" cy="96.36" rx="79.81" ry="78.36"/>
        <g>
          <path class="cls-3" d="M8.24,133.84q-4,1.4-7.89,2.44L0,135.18a4.91,4.91,0,0,0,.94-.25v-8.88h1.2v8.53a15.72,15.72,0,0,0,2-.57v-9.89H1v-6.71H7.28v6.71H5.34v3.24H7.8v1.12H5.34v5.11q1.59-.44,2.9-.94ZM6.07,123v-4.5H2.23V123Zm6.71-4.6a11.76,11.76,0,0,1-4,7.47L7.89,125a10.37,10.37,0,0,0,3.5-5.49H8.73v-1.16Zm6.54,18.23H18.14V135.4H10.61v1.23H9.44v-9.19h9.88Zm-1.18-5.93V128.6H10.61v2.11Zm0,3.51v-2.37H10.61v2.37Zm2.3-9.21-.8.85a16.09,16.09,0,0,1-4.58-5.22v4a1.64,1.64,0,0,1-.45,1.21,2.91,2.91,0,0,1-2,.45,9.06,9.06,0,0,1-.93,0l-.32-1.11q.49,0,1,0a3,3,0,0,0,1.27-.15.72.72,0,0,0,.22-.62V116.6h1.19v1.47a11.87,11.87,0,0,0,1.12,2.5,24.27,24.27,0,0,0,2.86-3l.89.62a18.66,18.66,0,0,1-3.11,3.33A16.92,16.92,0,0,0,20.44,125Z"/>
          <path class="cls-3" d="M48.55,135.67l-.79,1.07a25.81,25.81,0,0,1-9-13.64A26.11,26.11,0,0,1,29,136.45l-.94-.94a22.51,22.51,0,0,0,4.1-3.5,23.62,23.62,0,0,0,3.07-4.16,26.07,26.07,0,0,0,2.12-4.73,16,16,0,0,0,.85-3L38,118.29H35.86v-1.23h3.42Q39.36,128.36,48.55,135.67Z"/>
          <path class="cls-3" d="M73.18,133.4H63.89l.58.75a31.39,31.39,0,0,1-7.68,2.63l-.61-1.09a25.28,25.28,0,0,0,7.14-2.29H59.69V125H73.18ZM62.9,122.81H56.35v-1.16H62.9Zm-.18-4.14h-5.9v-1.1h5.9ZM72,127.37v-1.31h-11v1.31Zm0,2.46v-1.43h-11v1.43Zm0,2.48v-1.45h-11v1.45Zm4.72-8.78-.51,1.12a14.16,14.16,0,0,1-7-2.68,11,11,0,0,1-5.36,2.62l-.63-1.1q4.31-.65,5.94-3.45l1.28.22a3.06,3.06,0,0,1-.54.9A12.8,12.8,0,0,0,76.69,123.53Zm-.49-4.21a18.66,18.66,0,0,1-2.19,2.6l-.89-.83a18.6,18.6,0,0,0,1.7-2H66.25a11.78,11.78,0,0,1-2.14,2.06l-.81-.8a12,12,0,0,0,3.4-4.05l1.14.39L67.1,118h9.1Zm.35,16.42L76,136.8a45.46,45.46,0,0,0-6.79-1.93l.58-1A43,43,0,0,1,76.55,135.75Z"/>
          <path class="cls-3" d="M92,120H84.23v-1.13h3.64a14.63,14.63,0,0,0-1-2.06l1.06-.5a17.8,17.8,0,0,1,1.21,2.57H92Zm-.67,3.36H84.79v-1.13h6.54Zm-.07,3.29H84.79v-1.09h6.47Zm0,9.61H90v-1.38H86.22v1.74H85v-7.7h6.27ZM90,133.78v-3.71H86.22v3.71Zm15.31-2.33a12.91,12.91,0,0,1-.87,3.64q-.62,1.44-1.41,1.44-1.22,0-1.67-2.41a22.77,22.77,0,0,1-.45-4V118.27H96.24v7.22h3.69v1.1H96.24v10.1H95v-10.1H92.31v-1.1H95v-7.22H92.49v-1.1h9.62V129.3a20.44,20.44,0,0,0,.36,4.46q.36,1.49.52,1.49t.59-1.46a15.81,15.81,0,0,0,.58-3Z"/>
          <path class="cls-3" d="M118.46,131.93q-3.13,1.62-5.83,2.73l-.4-1.17a22.87,22.87,0,0,0,2.71-1.22V123.4h-2.31v-1.16h2.31v-5.72h1.18v5.72h2v1.16h-2v8.34a21.52,21.52,0,0,0,2.17-1Zm14.37.27a12.46,12.46,0,0,1-.83,3.31,1.56,1.56,0,0,1-1.43,1.06q-1.51,0-2.93-3.58a18.38,18.38,0,0,1-4.41,3.73l-.86-1a14.58,14.58,0,0,0,4.8-4.15A52.38,52.38,0,0,1,126.06,121h-8v-1.13h8q0-1,0-2.08,0-.73,0-1.26h1.18q0,2.56,0,3.33h5.34V121h-5.31A58.94,58.94,0,0,0,128,130a24.35,24.35,0,0,0,2.41-6.73l1.18.29a29,29,0,0,1-3.17,8.23,8,8,0,0,0,.72,1.78,7.17,7.17,0,0,0,.82,1.27q.33.36.52.36a.4.4,0,0,0,.33-.19,4.91,4.91,0,0,0,.4-1.1,13,13,0,0,0,.4-2.22Zm-7.3-.25q-3.85,1.45-7,2.37l-.31-1.2q2.9-.77,7.19-2.35Zm-1.23-2.56h-5v-6h5Zm-1.2-1.1V124.5h-2.57v3.79Zm8.36-9.67-.91.83a9.84,9.84,0,0,0-1.75-1.93l.89-.76A8.23,8.23,0,0,1,131.44,118.62Z"/>
          <path class="cls-3" d="M150.32,128.71a1.28,1.28,0,0,1-.85-1.11,1.06,1.06,0,0,1,.29-.67,1,1,0,0,1,.81-.34q1.1,0,1.1,1.41a3,3,0,0,1-1.38,2.23l-.49-.37A2.07,2.07,0,0,0,150.32,128.71Z"/>
          <path class="cls-3" d="M178.29,121.19h-5.9q0,1.48,0,3.31H177q0,4.18-.21,7.27a14.46,14.46,0,0,1-.49,3.63,1.84,1.84,0,0,1-.79.81,4.67,4.67,0,0,1-1.93.27l-1.17,0-.4-1.21q.85.07,1.63.07a2.56,2.56,0,0,0,1.33-.21,1.07,1.07,0,0,0,.37-.56,34.82,34.82,0,0,0,.29-3.48q.19-3.14.13-5.38h-3.51a25.23,25.23,0,0,1-2.74,11l-1-.77a22.12,22.12,0,0,0,1.76-4.31,21.68,21.68,0,0,0,.79-4.94q.14-2.7.17-5.44h-2.63V120h4.53a17.15,17.15,0,0,0-1.36-3.09l1.17-.44a23.65,23.65,0,0,1,1.5,3.52h3.86ZM189,135.58l-.77,1.05a17.23,17.23,0,0,1-5.11-3.78,20.43,20.43,0,0,1-4.71,3.78l-.83-.91a17.12,17.12,0,0,0,4.8-3.89,17.26,17.26,0,0,1-2.14-5.24l1.2-.31a15.29,15.29,0,0,0,1.73,4.5q2.13-3.33,2.44-9.56h-4a25.31,25.31,0,0,1-2.79,6.23l-1-.68a25.07,25.07,0,0,0,3.66-10.42l1.19.3a32.67,32.67,0,0,1-.72,3.42h7v1.14h-2q-.45,6.72-2.95,10.64A13.65,13.65,0,0,0,189,135.58Z"/>
          <path class="cls-3" d="M203.2,134.78H202v-1.31h-3.25v1.89H197.6V117.56h5.6ZM202,122.29v-3.58h-3.25v3.58Zm0,4.86v-3.73h-3.25v3.73Zm0,5.14v-4h-3.25v4Zm13.4-6.25h-8.57v9.08a39.59,39.59,0,0,0,4.1-1.49l.21,1.13a51.61,51.61,0,0,1-5.36,1.9l-.56-1.05a.85.85,0,0,0,.47-.71V117.15h9.72Zm-1.18-5v-2.81h-7.4V121Zm0,3.88v-2.81h-7.4v2.81Zm2.72,11-.89.92a15.07,15.07,0,0,1-6.25-9.15l1.13-.35a14,14,0,0,0,1.14,3.1,19.69,19.69,0,0,0,3.49-2.94l1,.67a26.25,26.25,0,0,1-3.91,3.31A14.16,14.16,0,0,0,217,135.88Z"/>
          <path class="cls-3" d="M233.84,124h-6.9v12.5h-1.2V117.13h8.1ZM232.62,120v-1.73h-5.68V120Zm0,3V121h-5.68v1.89Zm9.09,7.72H238V136h-1.21v-5.4h-3.55a7.47,7.47,0,0,1-2.9,5.51l-1.18-.66a6.87,6.87,0,0,0,2.88-4.85h-3.79v-1.14h3.89v-2.65H229v-1.1h11.75v1.1H238v2.65h3.7Zm-4.92-1.14v-2.65h-3.44v2.65Zm7.33,5.33a1.42,1.42,0,0,1-.55,1.3,4,4,0,0,1-2,.35l-1.3,0-.47-1.21a22.06,22.06,0,0,0,2.57.09.45.45,0,0,0,.51-.5V124h-6.84v-6.89h8.06ZM242.9,120v-1.73h-5.59V120Zm0,3V121h-5.59v1.89Z"/>
          <path class="cls-3" d="M256.9,129a57.69,57.69,0,0,1-3.23,7.31l-.94-1a55.85,55.85,0,0,0,3.06-7Zm.37-3.79-.79.92a43.09,43.09,0,0,0-3.68-2.65l.89-.87A30.33,30.33,0,0,1,257.27,125.24Zm.45-5.48-.91.88a27.84,27.84,0,0,0-3.76-2.83l.94-.9A37.28,37.28,0,0,1,257.72,119.76Zm15.55-1.43h-5.5a19.33,19.33,0,0,1-.71,2.41h5.16v8h-4.54v6.23a1.79,1.79,0,0,1-.45,1.18q-.45.54-2.07.54a11.86,11.86,0,0,1-1.2-.07l-.35-1.19a13.8,13.8,0,0,0,1.61.1,2.14,2.14,0,0,0,1-.14.42.42,0,0,0,.19-.35v-6.3H262v-8h3.68q.3-.82.7-2.41H260.1v7.45a19.53,19.53,0,0,1-3,10.84l-1-.86a13.27,13.27,0,0,0,2-4.29,29.84,29.84,0,0,0,.78-7.88v-6.39h14.39Zm-8.66,12.6a27.17,27.17,0,0,1-4,4.43l-.83-.88a27,27,0,0,0,3.85-4.46Zm6.32-6.83v-2.22h-7.62v2.22Zm0,3.5v-2.37h-7.62v2.37Zm2.46,6.91-.88.9a29.45,29.45,0,0,0-3.3-4.46l.94-.83A34,34,0,0,1,273.38,134.52Z"/>
          <path class="cls-3" d="M301.47,130.25l-.7,1.08a17.09,17.09,0,0,1-8-5.51h-3.22a17.72,17.72,0,0,1-8,5.33l-.61-1.08a16.25,16.25,0,0,0,7.1-4.25h-5.06V117h16.48v8.78h-5.14Q296.45,128.6,301.47,130.25ZM287.77,129q.33,5.92-5.1,7.65l-.75-1a7.71,7.71,0,0,0,2.5-1.2,5.07,5.07,0,0,0,1.65-1.87,8.84,8.84,0,0,0,.51-3.55Zm2.79-8.18v-2.62h-6.39v2.62Zm0,3.86v-2.73h-6.39v2.73Zm7.64-3.86v-2.62h-6.39v2.62Zm0,3.86v-2.73h-6.39v2.73Zm-2.86,12h-1.27V129h1.27Z"/>
        </g>
        <g>
          <path class="cls-4" d="M118.83,82.75c-.6-5.17-3.92-7.7-10-7.7-5.37,0-8.81,2.13-8.81,5.39,0,2.75,2.11,4.38,7.24,5.45l6.51,1.35c4.76,1,7.18,2,9.11,3.59A9.07,9.07,0,0,1,126.13,98c0,7.08-6.15,11.46-15.92,11.46-10.43,0-16.71-4.94-17.55-13.93h6c.6,6,4.83,9.27,11.76,9.27,5.79,0,9.89-2.64,9.89-6.4,0-2.81-2.17-4.66-6.39-5.62l-9-2c-7.36-1.63-10.68-4.66-10.68-9.72,0-6.57,5.85-10.73,15.08-10.73s14.17,4,15.44,12.41Z"/>
          <path class="cls-4" d="M139.39,108.65h-5.73V71.18h5.73Z"/>
          <path class="cls-4" d="M163.34,108.65h-5.73V75.84H145.06V71.18h30.82v4.66H163.34Z"/>
          <path class="cls-4" d="M208,82.92C206.82,78,202.78,75,197.23,75c-7.72,0-12.79,5.84-12.79,14.66,0,9,5.07,15.17,12.6,15.17,6.27,0,10.62-3.93,11.52-10.45h5.79a16.11,16.11,0,0,1-3.44,8.71c-3.32,4.27-8,6.4-14,6.4s-10.74-2.13-14.11-6.4a21,21,0,0,1-4.4-13.31c0-11.4,7.78-19.43,18.82-19.43,8.56,0,14.66,4.49,16.4,12.08Z"/>
          <path class="cls-4" d="M292.33,108.65,275.87,85c-2-2.92-3.2-4.77-4.16-6.46.12,1.68.18,5.22.18,7.08v23h-5.43V71.18h5.85L288.11,94a87.57,87.57,0,0,1,4.76,7.75c-.12-2.08-.18-4.38-.18-7V71.41h5.43v37.24Z"/>
          <g>
            <path class="cls-5" d="M249.13,53.86A10.73,10.73,0,0,1,257,52.21s-.72,4.84-4.33,7.45-8.76,2-8.76,2A41.4,41.4,0,0,0,246.19,58C246.84,56.76,247.8,54.82,249.13,53.86Z"/>
            <path class="cls-5" d="M240.45,57.8a5,5,0,0,0-3.7-.77,5.77,5.77,0,0,0,2,3.48,6.56,6.56,0,0,0,4.09.93,19.37,19.37,0,0,1-1-1.72A5.76,5.76,0,0,0,240.45,57.8Z"/>
            <path class="cls-5" d="M240.86,69.34c.49,0,1,0,1.48.05a10.26,10.26,0,0,1,1-7.27,12,12,0,0,0-4.11,7.28C239.77,69.37,240.32,69.34,240.86,69.34Z"/>
            <path class="cls-5" d="M240.86,70.17c-11.85,0-21.45,9.05-21.45,20.22s9.6,20.22,21.45,20.22,21.45-9.05,21.45-20.22S252.71,70.17,240.86,70.17Zm8.76,28.48L240.86,93l-8.76,5.69,6-8.26-6-8.26,8.76,5.69,8.76-5.69-6,8.26Z"/>
          </g>
          <g>
            <path class="cls-6" d="M246.89,54.44a9.74,9.74,0,0,1,7.43-1.61s-.67,4.74-4.07,7.29S242,62.07,242,62.07a40.83,40.83,0,0,0,2.1-3.6C244.75,57.29,245.64,55.38,246.89,54.44Z"/>
            <path class="cls-6" d="M238.74,58.3a4.55,4.55,0,0,0-3.47-.75,5.73,5.73,0,0,0,1.9,3.4,6,6,0,0,0,3.84.91,19.1,19.1,0,0,1-1-1.68A5.64,5.64,0,0,0,238.74,58.3Z"/>
            <path class="cls-6" d="M239.13,69.6c.46,0,.93,0,1.39.05a10.41,10.41,0,0,1,.94-7.12,11.87,11.87,0,0,0-3.86,7.13C238.1,69.62,238.61,69.6,239.13,69.6Z"/>
            <path class="cls-6" d="M239.13,70.41A19.79,19.79,0,1,0,259.28,90.2,20,20,0,0,0,239.13,70.41Zm8.23,27.87-8.23-5.56-8.23,5.56,5.67-8.08-5.67-8.08,8.23,5.56,8.23-5.56-5.67,8.08Z"/>
          </g>
        </g>
        <g>
          <path class="cls-7" d="M326.2,60.74h12.64a4.76,4.76,0,0,1,.53,0,1.29,1.29,0,0,1,1.25,1.51c-.18,1.37-.36,2.74-.6,4.11s-.84,1.76-2.19,1.76h-6.05c-1.43,0-2,.54-2,1.94q0,9.49,0,19c0,1.37.6,1.92,2,1.92h7.35c1.25,0,1.71.46,1.71,1.67,0,3.87,0,7.73,0,11.6a4.15,4.15,0,0,1-.43,1.65,1.84,1.84,0,0,1-2,1c-1.19-.1-2.38-.13-3.57-.16a1,1,0,0,0-1.05.69,2.47,2.47,0,0,0,1.87,3.23,18.77,18.77,0,0,0,5.79-.09,3.6,3.6,0,0,0,2.94-2.59,7.82,7.82,0,0,0,.35-2.26c0-4.29,0-8.58,0-12.87,0-1.43.45-1.87,1.89-1.87H354c1.53,0,2.09-.55,2.09-2.05q0-9.35,0-18.7c0-1.57-.55-2.1-2.16-2.1h-8.17a11.81,11.81,0,0,1-1.29-.09c-.32,0-.46-.18-.4-.55.27-1.67.48-3.35.75-5a1.83,1.83,0,0,1,2.08-1.73H356c.61,0,1.22,0,1.82,0a1.49,1.49,0,0,0,1.61-1.6,1.55,1.55,0,0,0-1.68-1.83c-.23,0-.47,0-.71,0H324c0-1.25,0-2.4,0-3.55q-.05-7.79-.12-15.58-.06-7.44-.12-14.88-.07-8.94-.13-17.88c0-1.06,0-2.12,0-3.17A1.54,1.54,0,0,0,322.11.5a4.93,4.93,0,0,0-.76,0H307.6c-1.72,0-3.45,0-5.17,0-1.11,0-1.73.5-1.85,1.46a5.62,5.62,0,0,0,0,.69q0,8,0,16c0,1.51.51,2,2,2h14.69c.33,0,.66,0,1,.05a1.3,1.3,0,0,1,1.33,1.44q0,2.16.05,4.32.06,5.62.12,11.25.06,5.85.12,11.71Q320,55,320,60.56q.08,8.1.16,16.21,0,4.76.12,9.52a8,8,0,0,1-.46,3.51,2.51,2.51,0,0,1-3,1.56c-1.43-.23-2.87-.4-4.31-.53-1.12-.11-1.24,0-1.57,1.05-.06.2-.14.4-.19.6a110.69,110.69,0,0,1-5.66,15.8,2.23,2.23,0,0,0,.85,3.1c1.27.91,2.2.65,2.78-.8a116.34,116.34,0,0,0,4.55-13.38l.61-2.26,4.66.23a5.18,5.18,0,0,0,4.68-1.89,5.82,5.82,0,0,0,1.09-3.71c0-2.86-.06-5.73-.08-8.59q0-3.81,0-7.62c0-4,0-8,0-12.09,0,0,.13,0,.16,0C324.85,60.62,325.55,60.74,326.2,60.74ZM352.38,86a1.31,1.31,0,0,1-1.33,1.5,6.23,6.23,0,0,1-.82,0h-14.8c-1.38,0-1.8-.42-1.83-1.76s0-2.54,0-3.8c0-.88.41-1.26,1.32-1.28,1.94-.05,3.87,0,5.81,0h9.75c1.44,0,1.85.41,1.85,1.82C352.39,83.65,352.39,84.82,352.38,86Zm-1.83-14.4c1.4,0,1.83.42,1.83,1.78q0,1.38,0,2.77c0,1.17-.45,1.61-1.63,1.61H335.25c-1.13,0-1.56-.34-1.6-1.44s0-2.3,0-3.46a1.18,1.18,0,0,1,1.15-1.23,5,5,0,0,1,.76,0Zm-31-55.86a1.3,1.3,0,0,1-1.43,1.41q-6.11,0-12.22,0a1.3,1.3,0,0,1-1.42-1.37c0-.79,0-1.58,0-2.37A1.3,1.3,0,0,1,306,12h12c1.07,0,1.55.47,1.56,1.51C319.59,14.27,319.6,15,319.59,15.73Zm0-8.13A1.25,1.25,0,0,1,318.33,9a4.48,4.48,0,0,1-.58,0H305.94a1.35,1.35,0,0,1-1.42-1.49c0-.69,0-1.38,0-2.08,0-1.06.5-1.54,1.59-1.55h11.81c1.21,0,1.67.45,1.67,1.63C319.59,6.21,319.6,6.91,319.59,7.6Z"/>
          <path class="cls-7" d="M392.24,151a3,3,0,0,0-2-2.25.72.72,0,0,0-1.06.67c-.08.85-.11,1.71-.21,2.55-.12,1-.27,2-.47,3-.56,1.26-1.17.47-1.32.24-.45-.78-.85-1.6-1.29-2.39-1.59-2.89-3.18-5.78-4.81-8.64a1.43,1.43,0,0,1,0-1.62c.9-1.63,1.72-3.31,2.54-5a31.25,31.25,0,0,0,1.23-2.89,1,1,0,0,0-.25-1.28,1.12,1.12,0,0,0-1.44-.05,2.8,2.8,0,0,0-.67.83c-.81,1.58-1.59,3.18-2.39,4.78-.28.56-.58,1.1-.91,1.72l-8.9-16,.31,0h6.28c1.78,0,3.56,0,5.34,0a1.39,1.39,0,0,0,1.52-1.32c.06-.84-.27-1.77-1.27-1.78-.29,0-.58-.08-.87-.08q-6.33,0-12.65,0a.7.7,0,0,1-.7-.41l-2.59-4.65q-2.61-4.66-5.23-9.32-2.89-5.13-5.79-10.24a16.05,16.05,0,0,0-1.4-2.12,1.43,1.43,0,0,0-2-.09,1.27,1.27,0,0,0-.5,1.62,22.56,22.56,0,0,0,1.33,2.64c1.72,3.06,3.45,6.12,5.18,9.18q2.4,4.26,4.78,8.52c.89,1.59,1.77,3.18,2.69,4.85-2.53,0-5,0-7.4,0-1.34,0-1.88.41-1.88,2,0,3.53,0,7.07,0,10.6a95.36,95.36,0,0,1-.2,10.2c-.19,1.64-.4,3.27-.73,4.88a36.52,36.52,0,0,1-4,10.65,1.59,1.59,0,0,0-.06,1.54,1.61,1.61,0,0,0,2.88.19,5.23,5.23,0,0,0,.34-.63,45.62,45.62,0,0,0,3.87-11.37,40.65,40.65,0,0,0,.84-7.56c0-1.25,0-2.5,0-3.74,0-1,.4-1.45,1.36-1.45h3.87c1,0,1.42.43,1.41,1.52,0,2.88,0,5.76-.1,8.63a41.63,41.63,0,0,1-.41,4.42c-.09.69-.15,1.5-1,1.79a3.29,3.29,0,0,1-2,.3,6.32,6.32,0,0,0-1.36-.13c-.51,0-.77.23-.77.78a2.45,2.45,0,0,0,1.88,2.6,9.79,9.79,0,0,0,1.7.11,3.88,3.88,0,0,0,3.8-2.95,24.8,24.8,0,0,0,.85-6c.13-1.8.15-3.6.22-5.4,0-.59.09-1.19.08-1.78,0-1.82,0-3.65-.1-5.47a1.53,1.53,0,0,0-.31-.73,1.51,1.51,0,0,0-1.4-.54h-6.52c-.92,0-1.27-.37-1.27-1.35q0-3.24,0-6.49c0-1,.36-1.43,1.32-1.43,2,0,4.09,0,6.13,0a1,1,0,0,1,1,.63c1.32,2.45,2.68,4.87,4,7.3q3.09,5.55,6.19,11.09a.89.89,0,0,1,0,1c-.79,1.46-1.55,2.93-2.33,4.39l-3.36,6.29a20.42,20.42,0,0,0-1,1.93c-.34.84,0,1.42,1,1.57.74.11,1.17-.41,1.49-1,1.59-2.83,3.15-5.68,4.71-8.52.44-.8.86-1.6,1.32-2.48.22.42.39.75.57,1.08,1.68,3.08,3.34,6.16,5,9.22a15.78,15.78,0,0,0,1.63,2.46,1.87,1.87,0,0,0,2,.81,4.1,4.1,0,0,0,2.53-2.7,44.88,44.88,0,0,0,1.43-4.8A5,5,0,0,0,392.24,151Z"/>
          <path class="cls-7" d="M291.45,20.57a1.72,1.72,0,0,0,2-1.94c0-5.37,0-10.73,0-16.1,0-1.39-.35-1.81-1.71-2.06a3.31,3.31,0,0,0-.59,0H273c-1.14,0-1.77.41-2,1.31a3.88,3.88,0,0,0,0,.86q0,12.38,0,24.76t0,25a1.73,1.73,0,0,0,.65,1.58,2.34,2.34,0,0,0,2.33.17,1.58,1.58,0,0,0,.93-1.64q0-15.06,0-30.12a5.58,5.58,0,0,1,0-.58,1.29,1.29,0,0,1,1-1.16,12.05,12.05,0,0,1,1.45-.11C282,20.55,286.75,20.52,291.45,20.57ZM276.4,3.89h12c1,0,1.45.44,1.47,1.39s0,1.66,0,2.48a1.26,1.26,0,0,1-1.41,1.34h-12A1.25,1.25,0,0,1,275,7.77q0-1.27,0-2.54A1.25,1.25,0,0,1,276.4,3.89Zm.4,13a4.23,4.23,0,0,1-.83-.09,1.12,1.12,0,0,1-1-1.15c0-.95,0-1.89,0-2.84,0-.79.61-1.21,1.62-1.21h11.51c1.28,0,1.73.45,1.74,1.71,0,.75,0,1.5,0,2.25a1.17,1.17,0,0,1-1.09,1.26,4,4,0,0,1-.77.08Z"/>
          <path class="cls-7" d="M348.39,149.47c-.21,0-.41.1-.62.14-.88.2-1.75.45-2.65.57s-1.27-.27-1.27-.93q0-7,0-14c0-.77.49-1.17,1.44-1.2s2.19,0,3.29,0,1.73-.49,1.73-1.4-.58-1.37-1.75-1.38h-3c-1.21,0-1.71-.41-1.72-1.38,0-1.33,0-2.66,0-4s0-2.66,0-4c0-1-.58-1.44-1.73-1.46-1.33,0-1.93.38-2,1.39,0,.14,0,.28,0,.42q0,3.81,0,7.61c0,1-.48,1.4-1.73,1.4-1.08,0-2.15,0-3.23,0s-1.59.49-1.62,1.3.55,1.46,1.76,1.48c1,0,2.08,0,3.11,0,1.29,0,1.71.38,1.71,1.42q0,7.28,0,14.57c0,1-.44,1.48-1.69,1.74-1.1.23-2.21.41-3.3.67a2.39,2.39,0,0,0-1.15.58c-.62.7.19,2.4,1.21,2.68a1.64,1.64,0,0,0,.51.07,5,5,0,0,0,1-.13q5.93-1.71,11.84-3.45a4.14,4.14,0,0,0,1.27-.66,1.27,1.27,0,0,0,.26-1.75C349.8,149.45,349.25,149.33,348.39,149.47Z"/>
          <path class="cls-7" d="M334.16,97.14a1.18,1.18,0,0,0-.79-1.48c-1-.44-1.86-.08-2.61,1-1.2,1.75-2.41,3.5-3.66,5.22-.74,1-1.63,1.93-2.31,3-.8,1.21,0,2.38,1.43,2.38a2.41,2.41,0,0,0,1.79-1,39.18,39.18,0,0,0,5.79-8.16A4,4,0,0,0,334.16,97.14Z"/>
          <path class="cls-7" d="M314.13,80.18c-1.66-1.14-3.31-2.32-5.06-3.32a2.35,2.35,0,0,0-3.39,1.25.87.87,0,0,0,.37,1.28l4.41,3.16c.44.32.85.68,1.3,1a1.83,1.83,0,0,0,2,.18A2.26,2.26,0,0,0,314.93,82,1.93,1.93,0,0,0,314.13,80.18Z"/>
          <path class="cls-7" d="M314.91,65.3c-1.42-1.16-2.94-2.21-4.46-3.27a5.67,5.67,0,0,0-1.28-.49,2.87,2.87,0,0,0-2.32,1.53c-.22.66.13,1.24,1,1.95,1.32,1,2.6,2.09,3.9,3.13A8.16,8.16,0,0,0,313,69a1.48,1.48,0,0,0,1.51,0A2.15,2.15,0,0,0,314.91,65.3Z"/>
          <path class="cls-7" d="M305.66,50.64q0-5,0-10c0-1.06.49-1.53,1.57-1.53,1.55,0,3.09,0,4.64,0a4.06,4.06,0,0,0,1-.13A1.53,1.53,0,0,0,314,37.51a1.66,1.66,0,0,0-.79-1.61,3.39,3.39,0,0,0-1.24-.24c-1.59,0-3.17,0-4.76,0a1.35,1.35,0,0,1-1.54-1.51c0-1.54,0-3.08,0-4.62,0-1,.51-1.46,1.51-1.47,1.44,0,2.89,0,4.33-.12a1.25,1.25,0,0,0,1.21-1.11c.1-1.14-.12-1.55-1-1.8a3.19,3.19,0,0,0-.86-.1H284.26a1.42,1.42,0,0,0-1.55,1.29c-.06,1.16.29,1.65,1.35,1.72s2.18.09,3.27.1c1.27,0,1.71.44,1.72,1.69s0,2.42,0,3.63a5,5,0,0,1-.22,1.29,1.28,1.28,0,0,1-1.37,1c-1.49,0-3,0-4.47,0a2.87,2.87,0,0,0-1.37.35,1.55,1.55,0,0,0-.6,1.73A1.38,1.38,0,0,0,282.28,39a7.2,7.2,0,0,0,.86.09H287a1.08,1.08,0,0,1,1.2,1.17,5,5,0,0,1-.11.91,12,12,0,0,1-4,6.79c-.68.63-1.44,1.17-2.11,1.8a1.42,1.42,0,0,0,0,2.2,2.25,2.25,0,0,0,3.23.18A37.86,37.86,0,0,0,289,48.49a13.61,13.61,0,0,0,3.17-7.7A1.7,1.7,0,0,1,294,39.12h6.35c1.19,0,1.62.42,1.62,1.58,0,3.25,0,6.5,0,9.75a2.56,2.56,0,0,0,.39,1.33,2.06,2.06,0,0,0,2.34.49A1.61,1.61,0,0,0,305.66,50.64ZM302,34.09a1.32,1.32,0,0,1-1.46,1.46c-2.07,0-4.14,0-6.21,0-1,0-1.43-.49-1.44-1.51q0-2.26,0-4.52a1.28,1.28,0,0,1,1.45-1.43c1,0,2.07,0,3.1,0h3c1,0,1.53.47,1.55,1.48C302.05,31.07,302,32.58,302,34.09Z"/>
          <g class="cls-8">
            <g>
              <path class="cls-4" d="M383.19,109.27a11,11,0,0,1,8.42-1.82s-.76,5.37-4.61,8.25-9.32,2.21-9.32,2.21a46.23,46.23,0,0,0,2.38-4.07C380.75,112.48,381.77,110.33,383.19,109.27Z"/>
              <path class="cls-4" d="M374,113.64a5.15,5.15,0,0,0-3.93-.85,6.48,6.48,0,0,0,2.15,3.85,6.75,6.75,0,0,0,4.35,1,21.63,21.63,0,0,1-1.11-1.9A6.38,6.38,0,0,0,374,113.64Z"/>
              <path class="cls-4" d="M374.39,127.35a22.41,22.41,0,1,0,22.82,22.4A22.61,22.61,0,0,0,374.39,127.35Zm9.32,31.56-9.32-6.3-9.32,6.3,6.42-9.15-6.42-9.15,9.32,6.3,9.32-6.3-6.42,9.15Z"/>
            </g>
          </g>
        </g>
      </g>
    </g>
  </g>
</svg>
