<svg xmlns="http://www.w3.org/2000/svg" viewBox="0 0 234.03 338.93"><defs><style>.cls-1{fill:#fff;}</style></defs><title>資產 1</title><g id="圖層_2" data-name="圖層 2"><g id="圖層_1-2" data-name="圖層 1"><g id="圖層_2-2" data-name="圖層 2"><path class="cls-1" d="M162.11,10.52C181.86-4.58,205.29,1,205.29,1s-3.92,28-23.65,43.09-47.78,11.54-47.78,11.54a244.81,244.81,0,0,0,12.21-21.29C149.65,27.32,154.86,16.08,162.11,10.52Z"/><path class="cls-1" d="M122.29,44.48A112.7,112.7,0,0,0,128,54.42S114.87,56.07,105.67,49s-11-20.13-11-20.13,10.95-2.6,20.17,4.45C118.18,36,120.6,41.18,122.29,44.48Z"/><path class="cls-1" d="M117,104.95A117,117,0,1,0,234,222,117,117,0,0,0,117,104.95Zm47.8,164.8L117,236.85l-47.8,32.9L102.1,222l-32.9-47.82L117,207l47.8-32.9L131.91,222Z"/><path class="cls-1" d="M108.1,100.5"/><path class="cls-1" d="M106.72,109.48"/><path class="cls-1" d="M117,100.15c2.7,0,5.41.1,8.09.29-2.39-14.35-1.93-29.25,5.43-42.1-12,9.69-18.29,24.15-21.72,38.93q-.37,1.61-.7,3.22C111.07,100.28,114,100.15,117,100.15Z"/><polygon class="cls-1" points="108.11 100.5 104.89 114.94 127.14 114.69 125.1 100.44 118.09 95.4 108.11 100.5"/></g></g></g></svg>