<svg xmlns="http://www.w3.org/2000/svg" viewBox="0 0 152.63 58.48"><defs><style>.cls-1{fill:#30a2a6;}.cls-2{fill:#393e3d;}.cls-3{fill:#d9dfdb;}.cls-4{fill:#efcb95;}</style></defs><title>藍色車車</title><g id="圖層_2" data-name="圖層 2"><g id="圖層_1-2" data-name="圖層 1"><path class="cls-1" d="M6,18.19C26.9,4.87,44.67,1.28,44.67,1.28h0A32.84,32.84,0,0,1,53.73,0H84.8a34.06,34.06,0,0,1,18.31,5.49c11.59,7.38,25.3,11.39,31.62,13a25.52,25.52,0,0,1,8.88,4.12c7.12,5.2,9.09,10.7,9,15.32-.14,6.17-4.82,11-10.38,11H10.81c-4.93,0-9.18-3.85-10.18-9.21C-2.33,23.85,6,18.19,6,18.19Z"/><ellipse class="cls-2" cx="125.68" cy="43.22" rx="13.75" ry="15.26"/><ellipse class="cls-3" cx="125.68" cy="43.22" rx="8.14" ry="9.04"/><ellipse class="cls-2" cx="29.21" cy="43.22" rx="13.75" ry="15.26"/><ellipse class="cls-3" cx="29.21" cy="43.22" rx="8.14" ry="9.04"/><path class="cls-3" d="M80.91,3.28c12.75,0,21.23,12.92,21.23,12.92H69.26V3.28Z"/><path class="cls-3" d="M49.91,4.27a21.75,21.75,0,0,1,6.48-1h11V16.2H29.21C35.45,9.5,44.81,5.86,49.91,4.27Z"/><path class="cls-4" d="M146.65,25.1s6.42,4.86,5.95,12.8a6.53,6.53,0,0,1-1.78-.85,10.08,10.08,0,0,1-4.29-8.89Z"/></g></g></svg>