<svg id="圖層_1" data-name="圖層 1" xmlns="http://www.w3.org/2000/svg" xmlns:xlink="http://www.w3.org/1999/xlink" viewBox="0 0 1920 1080">
  <defs>
    <style>
      .cls-1 {
        fill: #7dc494;
      }

      .cls-13, .cls-15, .cls-17, .cls-2, .cls-5 {
        opacity: 0.37;
      }

      .cls-2 {
        fill: url(#未命名漸層_6);
      }

      .cls-14, .cls-16, .cls-18, .cls-3, .cls-6 {
        opacity: 0.61;
      }

      .cls-3 {
        fill: url(#未命名漸層_8);
      }

      .cls-4 {
        fill: #fff;
      }

      .cls-5 {
        fill: url(#未命名漸層_6-2);
      }

      .cls-6 {
        fill: url(#未命名漸層_8-2);
      }

      .cls-7 {
        fill: #14542d;
      }

      .cls-8 {
        fill: #112b13;
      }

      .cls-9 {
        fill: #6ebb5a;
        stroke: #6ebb5a;
        stroke-width: 5px;
      }

      .cls-10, .cls-54, .cls-9 {
        stroke-linecap: round;
        stroke-linejoin: round;
      }

      .cls-10 {
        fill: #408638;
        stroke: #408638;
      }

      .cls-11 {
        fill: #626363;
      }

      .cls-12 {
        fill: #424142;
      }

      .cls-13 {
        fill: url(#未命名漸層_6-3);
      }

      .cls-14 {
        fill: url(#未命名漸層_8-3);
      }

      .cls-15 {
        fill: url(#未命名漸層_6-4);
      }

      .cls-16 {
        fill: url(#未命名漸層_8-4);
      }

      .cls-17 {
        fill: url(#未命名漸層_6-5);
      }

      .cls-18 {
        fill: url(#未命名漸層_8-5);
      }

      .cls-19 {
        fill: #56b332;
      }

      .cls-20 {
        fill: #3d8c38;
      }

      .cls-21 {
        fill: #aed37b;
      }

      .cls-22 {
        fill: #523718;
      }

      .cls-23 {
        fill: #063854;
      }

      .cls-24 {
        fill: #003446;
      }

      .cls-25 {
        fill: #02415d;
      }

      .cls-26 {
        fill: #0c658c;
      }

      .cls-27 {
        fill: #458080;
      }

      .cls-28 {
        fill: #244d4e;
      }

      .cls-29 {
        fill: #589a98;
      }

      .cls-30 {
        fill: #3a6d6f;
      }

      .cls-31 {
        fill: #6a9bc1;
      }

      .cls-32 {
        fill: #1a717e;
      }

      .cls-33 {
        fill: #7db5dd;
      }

      .cls-34 {
        fill: #b2dbee;
      }

      .cls-35 {
        fill: #2c8a93;
      }

      .cls-36 {
        fill: #024e71;
      }

      .cls-37 {
        fill: #0e739b;
      }

      .cls-38 {
        fill: #0e1b3b;
      }

      .cls-39 {
        fill: #e5c952;
      }

      .cls-40 {
        fill: #83a5b1;
      }

      .cls-41 {
        fill: #cdd7df;
      }

      .cls-42 {
        fill: #263257;
      }

      .cls-43 {
        fill: #081209;
      }

      .cls-44 {
        fill: #48587e;
      }

      .cls-45 {
        fill: #c7301d;
      }

      .cls-46 {
        fill: #055852;
      }

      .cls-47 {
        fill: #177f75;
      }

      .cls-48 {
        fill: #65767b;
      }

      .cls-49 {
        fill: #2b2031;
      }

      .cls-50 {
        fill: #f7f2f8;
      }

      .cls-51 {
        fill: #dfac4e;
      }

      .cls-52 {
        fill: #0e9889;
      }

      .cls-53 {
        fill: #181d27;
      }

      .cls-54, .cls-64, .cls-85 {
        fill: none;
      }

      .cls-54 {
        stroke: #2e3343;
        stroke-width: 5.37px;
      }

      .cls-55 {
        fill: #7f8593;
      }

      .cls-56 {
        fill: #516794;
      }

      .cls-57 {
        fill: #dcdcdc;
      }

      .cls-58 {
        fill: #1c2d5a;
      }

      .cls-59 {
        fill: #1d809f;
      }

      .cls-60 {
        fill: #0d1932;
      }

      .cls-61 {
        fill: #416463;
      }

      .cls-62 {
        fill: #192232;
      }

      .cls-63 {
        fill: #024a48;
      }

      .cls-64 {
        stroke: #bbc0ce;
        stroke-miterlimit: 10;
        stroke-width: 1.62px;
      }

      .cls-65 {
        fill: #4c4851;
      }

      .cls-66 {
        fill: #2c2f27;
      }

      .cls-67 {
        fill: #ead74a;
      }

      .cls-68 {
        fill: #30a2a6;
      }

      .cls-69 {
        fill: #b1c8c9;
      }

      .cls-70 {
        fill: #2f7e94;
      }

      .cls-71 {
        fill: #62a89d;
      }

      .cls-72 {
        fill: #367838;
      }

      .cls-73 {
        fill: #331e0a;
      }

      .cls-74 {
        fill: #006a4d;
      }

      .cls-75 {
        fill: #33876d;
      }

      .cls-76 {
        fill: #01392a;
      }

      .cls-77 {
        fill: #00543d;
      }

      .cls-78 {
        fill: #495e91;
      }

      .cls-79 {
        fill: #8b99b9;
      }

      .cls-80 {
        fill: #112543;
      }

      .cls-81 {
        fill: #1b3769;
      }

      .cls-82 {
        fill: #393e3d;
      }

      .cls-83 {
        fill: #d9dfdb;
      }

      .cls-84 {
        fill: #efcb95;
      }

      .cls-86 {
        fill: #e9e9e9;
      }

      .cls-87 {
        fill: #101010;
      }

      .cls-88 {
        fill: #dedbd8;
      }

      .cls-89 {
        fill: #080304;
      }
    </style>
    <linearGradient id="未命名漸層_6" data-name="未命名漸層 6" x1="257.67" y1="123.95" x2="382.04" y2="309.17" gradientUnits="userSpaceOnUse">
      <stop offset="0" stop-color="#919191"/>
      <stop offset="1" stop-color="#fff" stop-opacity="0"/>
    </linearGradient>
    <linearGradient id="未命名漸層_8" data-name="未命名漸層 8" x1="307.13" y1="158.45" x2="427.8" y2="323.78" gradientUnits="userSpaceOnUse">
      <stop offset="0" stop-color="#fff" stop-opacity="0.5"/>
      <stop offset="1" stop-color="#fff" stop-opacity="0"/>
    </linearGradient>
    <linearGradient id="未命名漸層_6-2" x1="990.04" y1="288.67" x2="1073.24" y2="412.58" xlink:href="#未命名漸層_6"/>
    <linearGradient id="未命名漸層_8-2" x1="1023.13" y1="311.74" x2="1103.86" y2="422.36" xlink:href="#未命名漸層_8"/>
    <linearGradient id="未命名漸層_6-3" x1="166.71" y1="500.47" x2="291.08" y2="685.69" xlink:href="#未命名漸層_6"/>
    <linearGradient id="未命名漸層_8-3" x1="216.17" y1="534.96" x2="336.84" y2="700.3" xlink:href="#未命名漸層_8"/>
    <linearGradient id="未命名漸層_6-4" x1="1261.38" y1="464.45" x2="1385.75" y2="649.67" xlink:href="#未命名漸層_6"/>
    <linearGradient id="未命名漸層_8-4" x1="1310.85" y1="498.95" x2="1431.51" y2="664.28" xlink:href="#未命名漸層_8"/>
    <linearGradient id="未命名漸層_6-5" x1="1831.75" y1="166.84" x2="1907.03" y2="278.95" xlink:href="#未命名漸層_6"/>
    <linearGradient id="未命名漸層_8-5" x1="1861.69" y1="187.72" x2="1934.73" y2="287.8" xlink:href="#未命名漸層_8"/>
  </defs>
  <title>開源城(無標準字)</title>
  <rect class="cls-1" x="-50" y="-50" width="2020" height="1180"/>
  <g>
    <polygon class="cls-2" points="143.67 180.38 302.43 378.14 580.24 378.14 413.31 179.34 143.67 180.38"/>
    <polygon class="cls-3" points="243.11 180.69 383.26 180.69 547.73 378.14 399.36 378.14 243.11 180.69"/>
    <path class="cls-4" d="M378.14,170.21v0c-13-22.72-34.36-19-39.5-17.68a1.65,1.65,0,0,1-1.79-.7c-7.91-12.09-20.28-23.59-39-24.75l0,.19,0-.19c-.29,0-.57-.05-.63-.34-3.36-14.91-19.7-26.23-39.37-26.23-17.84,0-32.95,9.31-38.11,22.17a1.64,1.64,0,0,1-2.22.88,26.29,26.29,0,0,0-11.3-2.42c-29.68.32-33.16,24.65-34.8,24.95h0c-25.09,7.5-27.8,27.3-28,33.26a1.59,1.59,0,0,0,1.34,1.71H411.65a1.66,1.66,0,0,0,.36-3.28Z"/>
  </g>
  <g>
    <polygon class="cls-5" points="913.77 326.42 1019.99 458.73 1205.85 458.73 1094.16 325.73 913.77 326.42"/>
    <polygon class="cls-6" points="980.3 326.63 1074.06 326.63 1184.1 458.73 1084.83 458.73 980.3 326.63"/>
    <path class="cls-4" d="M1070.64,319.61h0c-8.68-15.2-23-12.69-26.43-11.83a1.11,1.11,0,0,1-1.2-.47c-5.29-8.09-13.57-15.79-26.07-16.56l0,.13,0-.13c-.2,0-.38,0-.42-.23-2.25-10-13.18-17.55-26.34-17.55-11.93,0-22,6.23-25.5,14.83a1.1,1.1,0,0,1-1.48.59,17.59,17.59,0,0,0-7.56-1.62c-19.86.22-22.18,16.49-23.28,16.69h0c-16.79,5-18.6,18.26-18.76,22.25a1.06,1.06,0,0,0,.9,1.15h178.57a1.11,1.11,0,0,0,.24-2.19Z"/>
  </g>
  <g>
    <g>
      <polygon class="cls-7" points="-50 927 -50 599 44.88 689 119 657 207.73 693.77 717 879 1062.44 831.09 1666.47 479 1707 510.17 1821.95 411.44 1854.84 444.7 1970 336.22 1970 927 -50 927"/>
      <polygon class="cls-8" points="-50 927 68.81 926.35 271 927 304.46 728.96 119 657 130.5 706 56.5 792 59 841 -14.5 911.5 -50 927"/>
    </g>
    <polygon class="cls-8" points="1555 929 1887.2 709.66 1857 615 1938.73 468 1970 336.22 1970 927 1555 929"/>
  </g>
  <g>
    <polygon class="cls-9" points="61.01 943.74 237.63 642.83 286.62 664.58 489 397 661 585 675 573 749 683 960 432.43 1002.09 466.59 1254.08 129.11 1531 501 1545 505 1635 621 1695 733 1827 943.57 61.01 943.74"/>
    <polygon class="cls-10" points="1831 943.57 1703.5 741 1638 619.92 1546.38 502.81 1532.63 499 1469 414.13 1465.19 408.63 1255.46 127.62 1328.22 309 1463.54 537.67 1517 627 1471 673 1525 831.09 1328.22 943.57 1831 943.57"/>
    <polygon class="cls-10" points="489.83 395.23 570.3 556.59 621.08 637.59 642.11 729.08 642.11 784.58 681.1 853.58 377 943.57 944 943.57 750.54 681.17 675.51 570.39 661.2 581.92 489.83 395.23"/>
  </g>
  <g>
    <rect class="cls-11" x="-53" y="922" width="2026" height="130"/>
    <rect class="cls-12" x="-53" y="940.51" width="2026" height="93"/>
  </g>
  <g>
    <polygon class="cls-13" points="52.71 556.9 211.48 754.66 489.29 754.66 322.35 555.86 52.71 556.9"/>
    <polygon class="cls-14" points="152.15 557.21 292.31 557.21 456.77 754.66 308.4 754.66 152.15 557.21"/>
    <path class="cls-4" d="M287.19,546.73v0c-13-22.72-34.36-19-39.5-17.68a1.65,1.65,0,0,1-1.79-.7c-7.91-12.09-20.28-23.59-39-24.75l0,.19,0-.19c-.29,0-.57-.05-.63-.34-3.36-14.91-19.7-26.23-39.37-26.23-17.84,0-32.95,9.31-38.11,22.17a1.64,1.64,0,0,1-2.22.88,26.29,26.29,0,0,0-11.3-2.42c-29.68.32-33.16,24.65-34.8,24.95h0c-25.09,7.5-27.8,27.3-28,33.26a1.59,1.59,0,0,0,1.34,1.71H320.69a1.66,1.66,0,0,0,.36-3.28Z"/>
  </g>
  <g>
    <polygon class="cls-15" points="1147.38 520.89 1306.15 718.65 1583.96 718.65 1417.02 519.85 1147.38 520.89"/>
    <polygon class="cls-16" points="1246.82 521.19 1386.98 521.19 1551.45 718.65 1403.07 718.65 1246.82 521.19"/>
    <path class="cls-4" d="M1381.86,510.71v0c-13-22.72-34.36-19-39.5-17.68a1.65,1.65,0,0,1-1.79-.7c-7.91-12.09-20.28-23.59-39-24.75l0,.19,0-.19c-.29,0-.57-.05-.63-.34-3.36-14.91-19.7-26.23-39.37-26.23-17.84,0-32.95,9.31-38.11,22.17a1.64,1.64,0,0,1-2.22.88,26.29,26.29,0,0,0-11.3-2.42c-29.68.32-33.16,24.65-34.8,24.95h0c-25.09,7.5-27.8,27.3-28,33.26a1.59,1.59,0,0,0,1.34,1.71h266.91a1.66,1.66,0,0,0,.36-3.28Z"/>
  </g>
  <g>
    <polygon class="cls-17" points="1762.75 201 1858.85 320.7 2027 320.7 1925.96 200.37 1762.75 201"/>
    <polygon class="cls-18" points="1822.94 201.19 1907.77 201.19 2007.32 320.7 1917.52 320.7 1822.94 201.19"/>
    <path class="cls-4" d="M1904.67,194.84h0c-7.85-13.75-20.8-11.48-23.91-10.7a1,1,0,0,1-1.09-.42c-4.79-7.32-12.27-14.28-23.59-15l0,.12,0-.12c-.18,0-.34,0-.38-.2-2-9-11.93-15.87-23.83-15.87-10.8,0-19.94,5.63-23.07,13.42a1,1,0,0,1-1.34.53,15.91,15.91,0,0,0-6.84-1.47c-18,.2-20.07,14.92-21.06,15.1h0c-15.19,4.54-16.83,16.52-17,20.13a1,1,0,0,0,.81,1H1925a1,1,0,0,0,.22-2Z"/>
  </g>
  <g>
    <circle class="cls-19" cx="1775.97" cy="859.07" r="40.27"/>
    <path class="cls-20" d="M1816.24,859.07A40.27,40.27,0,0,1,1776,899.34V818.79A40.27,40.27,0,0,1,1816.24,859.07Z"/>
    <path class="cls-21" d="M1819.12,845.91s-13-1.2-15.4,12.5C1817.62,858.87,1819.12,845.91,1819.12,845.91Z"/>
    <g>
      <rect class="cls-22" x="1774.07" y="867.14" width="3.8" height="59.16" rx="1.9" ry="1.9"/>
      <rect class="cls-22" x="1782.25" y="863.95" width="2.23" height="21.12" rx="1.12" ry="1.12" transform="translate(1255.9 -1040.41) rotate(48.48)"/>
      <rect class="cls-22" x="1770.89" y="879.53" width="2.18" height="10.13" rx="0.95" ry="0.95" transform="translate(3608.93 144.32) rotate(131.52)"/>
    </g>
  </g>
  <rect class="cls-23" x="1438.45" y="432.18" width="131.14" height="416.53"/>
  <g>
    <polygon class="cls-24" points="1599.15 499.91 1617.45 461.18 1616.49 923.22 1596.25 923.22 1599.15 499.91"/>
    <rect class="cls-25" x="1509.21" y="500.34" width="89.94" height="423.59"/>
    <polyline class="cls-26" points="1617.45 461.18 1509.21 500.34 1599.15 500.34"/>
  </g>
  <g>
    <polygon class="cls-27" points="1374.97 826.38 1374.97 573.83 1424.33 523.83 1428.81 826.38 1374.97 826.38"/>
    <polygon class="cls-28" points="1458.3 573.19 1424.33 523.83 1428.81 826.38 1458.3 826.38 1458.3 573.19"/>
    <polygon class="cls-29" points="1382.02 826.38 1428.35 783.9 1382.02 749.24 1427.59 715.3 1382.02 677.46 1425.54 619.82 1382.02 573.19 1424.4 528.53 1428.81 826.38 1382.02 826.38"/>
  </g>
  <g>
    <polygon class="cls-30" points="1425.75 619.56 1463.43 617.42 1504.45 661.01 1483.09 664 1425.75 619.56"/>
    <polygon class="cls-28" points="1482.31 926.32 1474.62 824.95 1482.31 818.97 1482.31 662.57 1503.68 659.58 1515.48 926.32 1482.31 926.32"/>
    <polygon class="cls-27" points="1425.75 619.56 1483.09 664 1483.09 820.4 1475.39 826.38 1424.33 820.83 1425.75 619.56"/>
    <polygon class="cls-29" points="1436.51 717.41 1483.09 664 1483.09 820.4 1478.09 826.38 1447.63 803.29 1478.09 765.27 1436.51 717.41"/>
  </g>
  <g>
    <g>
      <polygon class="cls-31" points="1578.27 704.86 1509.9 755.5 1513.53 927.49 1580.59 927.49 1578.27 704.86"/>
      <polygon class="cls-32" points="1605.41 707.21 1656.69 756.78 1648.57 927.49 1605.41 927.49 1605.41 707.21"/>
      <polygon class="cls-33" points="1578.27 704.86 1605.41 707.21 1605.41 927.49 1580.59 927.49 1578.27 704.86"/>
    </g>
    <g>
      <polygon class="cls-34" points="1537.92 776.82 1531.02 781.85 1530.34 765.31 1537.26 760.81 1537.92 776.82"/>
      <polygon class="cls-34" points="1540.61 842.4 1533.71 847.42 1533.03 830.89 1539.96 826.39 1540.61 842.4"/>
      <polygon class="cls-34" points="1538.86 799.73 1531.96 804.75 1531.28 788.22 1538.2 783.72 1538.86 799.73"/>
      <polygon class="cls-34" points="1541.51 864.18 1534.61 869.21 1533.93 852.67 1540.85 848.17 1541.51 864.18"/>
      <polygon class="cls-34" points="1539.76 821.66 1532.86 826.68 1532.18 810.15 1539.1 805.65 1539.76 821.66"/>
      <polygon class="cls-34" points="1541.51 889.53 1534.61 894.55 1533.93 878.02 1540.85 873.52 1541.51 889.53"/>
      <polygon class="cls-34" points="1551.11 768.44 1544.21 773.46 1543.53 756.93 1550.45 752.43 1551.11 768.44"/>
      <polygon class="cls-34" points="1552.52 835.57 1545.62 840.59 1544.94 824.06 1551.87 819.56 1552.52 835.57"/>
      <polygon class="cls-34" points="1551.11 792.1 1544.21 797.12 1543.53 780.59 1550.45 776.09 1551.11 792.1"/>
      <polygon class="cls-34" points="1553.42 857.36 1546.52 862.38 1545.84 845.84 1552.76 841.35 1553.42 857.36"/>
      <polygon class="cls-34" points="1551.67 814.83 1544.77 819.85 1544.09 803.32 1551.01 798.82 1551.67 814.83"/>
      <polygon class="cls-34" points="1553.42 883.51 1546.52 888.54 1545.84 872 1552.76 867.5 1553.42 883.51"/>
      <polygon class="cls-34" points="1565.89 761.46 1558.99 766.48 1558.31 749.95 1565.23 745.45 1565.89 761.46"/>
      <polygon class="cls-34" points="1565.89 784.63 1558.99 789.65 1558.31 773.12 1565.23 768.62 1565.89 784.63"/>
      <polygon class="cls-34" points="1565.89 851.2 1558.99 856.22 1558.31 839.69 1565.23 835.19 1565.89 851.2"/>
      <polygon class="cls-34" points="1565.89 806.59 1558.99 811.61 1558.31 795.08 1565.23 790.58 1565.89 806.59"/>
      <polygon class="cls-34" points="1565.89 874.7 1558.99 879.72 1558.31 863.19 1565.23 858.69 1565.89 874.7"/>
      <polygon class="cls-34" points="1632.61 841.35 1639.38 846.55 1640.48 830.04 1633.67 825.37 1632.61 841.35"/>
      <polygon class="cls-34" points="1635.43 802.42 1642.2 807.62 1643.3 791.11 1636.5 786.43 1635.43 802.42"/>
      <polygon class="cls-34" points="1631.16 863.11 1637.93 868.3 1639.03 851.79 1632.22 847.12 1631.16 863.11"/>
      <polygon class="cls-34" points="1629.62 886.3 1636.38 891.49 1637.48 874.98 1630.68 870.31 1629.62 886.3"/>
      <polygon class="cls-34" points="1626.34 766.1 1632.97 771.48 1634.51 755 1627.83 750.15 1626.34 766.1"/>
      <polygon class="cls-34" points="1623.7 793.63 1630.47 798.82 1631.57 782.31 1624.77 777.64 1623.7 793.63"/>
      <polygon class="cls-34" points="1619.43 855.98 1626.2 861.17 1627.3 844.66 1620.49 839.99 1619.43 855.98"/>
      <polygon class="cls-34" points="1617.88 879.17 1624.65 884.36 1625.75 867.85 1618.95 863.18 1617.88 879.17"/>
      <polygon class="cls-34" points="1615.18 757.83 1621.96 763.01 1623.02 746.5 1616.2 741.84 1615.18 757.83"/>
      <polygon class="cls-34" points="1613.31 786.39 1620.08 791.59 1621.18 775.08 1614.38 770.4 1613.31 786.39"/>
    </g>
  </g>
  <g>
    <polygon class="cls-35" points="1418.7 773.97 1438.21 926.32 1486.08 926.32 1486.08 789.4 1418.7 773.97"/>
    <polygon class="cls-32" points="1504.02 926.32 1504.02 795.85 1486.08 789.4 1486.08 926.32 1504.02 926.32"/>
    <g>
      <polygon class="cls-34" points="1476.26 822.16 1471.65 820.79 1471.65 805.07 1476.26 806.22 1476.26 822.16"/>
      <polygon class="cls-34" points="1460.6 818.98 1456 817.61 1456 801.89 1460.6 803.05 1460.6 818.98"/>
      <polygon class="cls-34" points="1467.76 820.67 1463.15 819.3 1463.15 803.58 1467.76 804.74 1467.76 820.67"/>
      <polygon class="cls-34" points="1476.26 842.56 1471.65 841.19 1471.65 825.47 1476.26 826.63 1476.26 842.56"/>
      <polygon class="cls-34" points="1476.26 863.59 1471.65 862.23 1471.65 846.5 1476.26 847.66 1476.26 863.59"/>
      <polygon class="cls-34" points="1468.72 861.63 1464.12 860.26 1464.12 844.53 1468.72 845.69 1468.72 861.63"/>
      <polygon class="cls-34" points="1456.76 881.2 1452.15 879.83 1452.15 864.1 1456.76 865.26 1456.76 881.2"/>
      <polygon class="cls-34" points="1456.76 899.96 1452.15 898.59 1452.15 882.86 1456.76 884.02 1456.76 899.96"/>
      <polygon class="cls-34" points="1463.87 901.92 1459.26 900.55 1459.26 884.83 1463.87 885.99 1463.87 901.92"/>
    </g>
  </g>
  <g>
    <polygon class="cls-23" points="1712.39 843.51 1713.9 927.26 1681.26 927.26 1677.46 817.12 1712.39 843.51"/>
    <g>
      <polygon class="cls-36" points="1677.46 817.12 1637.48 815.94 1639.53 927.26 1681.26 927.26 1677.46 817.12"/>
      <g>
        <rect class="cls-37" x="1668.5" y="850.93" width="5.09" height="5.09" transform="translate(-20.83 42.07) rotate(-1.43)"/>
        <rect class="cls-37" x="1668.66" y="857.43" width="5.09" height="5.09" transform="translate(-20.99 42.08) rotate(-1.43)"/>
        <rect class="cls-37" x="1668.82" y="863.86" width="5.09" height="5.09" transform="translate(-21.15 42.09) rotate(-1.43)"/>
        <rect class="cls-37" x="1668.98" y="870" width="5.09" height="5.09" transform="translate(-21.31 42.09) rotate(-1.43)"/>
        <rect class="cls-37" x="1669.13" y="876.1" width="5.09" height="5.09" transform="translate(-21.46 42.1) rotate(-1.43)"/>
        <rect class="cls-37" x="1669.29" y="882.73" width="5.09" height="5.09" transform="translate(-21.62 42.1) rotate(-1.43)"/>
        <rect class="cls-37" x="1668.33" y="844.22" width="5.09" height="5.09" transform="translate(-20.66 42.07) rotate(-1.43)"/>
      </g>
      <g>
        <rect class="cls-37" x="1659.6" y="860.24" width="5.09" height="5.09" transform="translate(-21.07 41.85) rotate(-1.43)"/>
        <rect class="cls-37" x="1659.76" y="866.75" width="5.09" height="5.09" transform="translate(-21.23 41.86) rotate(-1.43)"/>
        <rect class="cls-37" x="1659.92" y="873.17" width="5.09" height="5.09" transform="translate(-21.39 41.87) rotate(-1.43)"/>
        <rect class="cls-37" x="1660.08" y="879.32" width="5.09" height="5.09" transform="translate(-21.54 41.87) rotate(-1.43)"/>
        <rect class="cls-37" x="1660.23" y="885.42" width="5.09" height="5.09" transform="translate(-21.69 41.88) rotate(-1.43)"/>
        <rect class="cls-37" x="1660.39" y="892.05" width="5.09" height="5.09" transform="translate(-21.86 41.88) rotate(-1.43)"/>
        <rect class="cls-37" x="1659.43" y="853.54" width="5.09" height="5.09" transform="translate(-20.9 41.85) rotate(-1.43)"/>
      </g>
    </g>
  </g>
  <g>
    <path class="cls-23" d="M1047.26,833.13c0-3.5-4-146.5-4-146.5l87.5-25,3.23-69,17.08,3L1134,922.31l-83.73-.68Z"/>
    <polygon class="cls-38" points="1172.76 625.44 1151.07 595.63 1146.5 683.15 1164.08 693.09 1172.76 625.44"/>
    <polygon class="cls-38" points="1166.76 921.63 1172.76 697.63 1159.63 690.13 1146.5 683.15 1133.99 922.32 1166.76 921.63"/>
    <polygon class="cls-39" points="1067.12 720.94 1070.64 759.66 1080.66 759.66 1082.7 722.13 1067.12 720.94"/>
    <polygon class="cls-39" points="1088.49 726.86 1088.49 728.34 1088.49 759.66 1097.7 759.66 1099.74 729.82 1088.49 726.86"/>
  </g>
  <g>
    <polygon class="cls-27" points="1183.51 779.3 1183.51 766.3 1203.1 761.38 1219.76 765.97 1219.76 775.55 1183.51 779.3"/>
    <polygon class="cls-40" points="1183.51 766.3 1183.51 817.9 1225.01 821.3 1221.01 775.42 1183.51 766.3"/>
  </g>
  <g>
    <rect class="cls-41" x="1300.6" y="690.99" width="51.62" height="14.9" rx="7.45" ry="7.45"/>
    <rect class="cls-41" x="1328.48" y="666.82" width="35.39" height="11.58" rx="5.79" ry="5.79"/>
    <rect class="cls-41" x="1357.58" y="644.32" width="23.8" height="8.54" rx="4.27" ry="4.27"/>
  </g>
  <g>
    <polygon class="cls-38" points="1219.76 749.95 1272.1 745.94 1255.26 753.77 1219.76 749.95"/>
    <polygon class="cls-25" points="1255.26 753.77 1219.76 749.95 1219.76 818.3 1256.1 819.16 1255.26 753.77"/>
    <polygon class="cls-32" points="1283.26 923.32 1272.1 745.94 1255.26 753.77 1249.76 922.57 1283.26 923.32"/>
  </g>
  <g>
    <polygon class="cls-38" points="912.1 732.88 906.1 922.91 980.1 922.91 975.43 734.63 935.77 727.97 912.1 732.88"/>
    <polygon class="cls-42" points="1011.76 755.63 975.43 734.63 980.1 922.91 1003.43 922.91 1011.76 755.63"/>
    <polygon class="cls-43" points="934.6 733.47 932.1 710.97 937.93 707.47 960.26 706.3 972.43 709.13 986.76 717.63 989.76 748.13 934.6 733.47"/>
    <polygon class="cls-38" points="960.93 665.3 960.93 711.63 971.43 714.47 971.43 665.3 960.93 665.3"/>
    <polygon class="cls-44" points="966.18 665.3 966.18 713.05 971.43 714.47 971.43 665.3 966.18 665.3"/>
    <polygon class="cls-44" points="1011.76 755.63 980.1 783.32 1008.12 799.91 979.6 823.22 1007.78 835.66 1011.76 755.63"/>
    <polygon class="cls-45" points="960.93 643.61 960.93 670.9 1014.8 664.86 960.93 643.61"/>
  </g>
  <g>
    <polygon class="cls-46" points="1190.62 802.23 1157.8 799.05 1156.99 923.48 1192.12 923.48 1190.62 802.23"/>
    <polygon class="cls-47" points="1157.8 799.05 1183.46 793.8 1214.36 799.05 1190.62 802.23 1157.8 799.05"/>
    <polygon class="cls-27" points="1192.12 923.48 1190.62 802.23 1214.36 799.05 1220.46 922.8 1192.12 923.48"/>
  </g>
  <g>
    <polygon class="cls-35" points="1200.59 814.08 1202.09 923.53 1270.09 923.53 1263.36 814.62 1200.59 814.08"/>
    <rect class="cls-34" x="1209.85" y="850.92" width="15.5" height="8.55"/>
    <rect class="cls-34" x="1230.26" y="850.7" width="14.42" height="9"/>
    <rect class="cls-34" x="1209.85" y="863.53" width="15.5" height="8.55"/>
    <rect class="cls-34" x="1230.77" y="863.53" width="13.91" height="8.55"/>
  </g>
  <g>
    <g>
      <rect class="cls-48" x="671.57" y="635.14" width="18.69" height="287.66"/>
      <polygon class="cls-49" points="797.08 647.74 690.27 635.13 690.27 922.8 797.08 922.8 797.08 647.74"/>
      <g>
        <rect class="cls-50" x="671.57" y="837.76" width="18.69" height="1.28"/>
        <rect class="cls-50" x="671.57" y="771.11" width="18.69" height="1.28"/>
        <rect class="cls-50" x="671.57" y="763.87" width="18.69" height="1.28"/>
        <rect class="cls-50" x="671.57" y="779.81" width="18.69" height="1.28"/>
        <rect class="cls-50" x="671.57" y="790.85" width="18.69" height="1.28"/>
        <rect class="cls-50" x="671.57" y="799.94" width="18.69" height="1.28"/>
        <rect class="cls-50" x="671.57" y="808.17" width="18.69" height="1.28"/>
        <rect class="cls-50" x="671.57" y="817.47" width="18.69" height="1.28"/>
        <rect class="cls-50" x="671.57" y="863.91" width="18.69" height="1.28"/>
        <rect class="cls-50" x="671.57" y="854.46" width="18.69" height="1.28"/>
        <rect class="cls-50" x="671.57" y="872.29" width="18.69" height="1.28"/>
        <rect class="cls-50" x="671.57" y="880.36" width="18.69" height="1.28"/>
        <rect class="cls-50" x="671.57" y="896.8" width="18.69" height="1.28"/>
        <rect class="cls-50" x="671.57" y="889.09" width="18.69" height="1.28"/>
        <rect class="cls-50" x="671.57" y="905.61" width="18.69" height="1.28"/>
        <rect class="cls-50" x="671.57" y="913.81" width="18.69" height="1.28"/>
        <rect class="cls-50" x="671.57" y="846.38" width="18.69" height="1.28"/>
        <rect class="cls-50" x="671.57" y="827" width="18.69" height="1.28"/>
        <rect class="cls-50" x="671.57" y="735.04" width="18.69" height="1.28"/>
        <rect class="cls-50" x="671.57" y="668.39" width="18.69" height="1.28"/>
        <rect class="cls-50" x="671.57" y="657.69" width="18.69" height="1.28"/>
        <rect class="cls-50" x="671.57" y="646.72" width="18.69" height="1.28"/>
        <rect class="cls-50" x="671.57" y="677.1" width="18.69" height="1.28"/>
        <rect class="cls-50" x="671.57" y="688.13" width="18.69" height="1.28"/>
        <rect class="cls-50" x="671.57" y="697.22" width="18.69" height="1.28"/>
        <rect class="cls-50" x="671.57" y="705.45" width="18.69" height="1.28"/>
        <rect class="cls-50" x="671.57" y="714.75" width="18.69" height="1.28"/>
        <rect class="cls-50" x="671.57" y="753.02" width="18.69" height="1.28"/>
        <rect class="cls-50" x="671.57" y="743.66" width="18.69" height="1.28"/>
        <rect class="cls-50" x="671.57" y="724.28" width="18.69" height="1.28"/>
      </g>
    </g>
    <polygon class="cls-51" points="767.9 697.22 767.9 708.61 781.3 711.55 781.3 700.37 767.9 697.22"/>
    <polygon class="cls-51" points="767.9 717.12 767.9 728.51 781.3 731.44 781.3 720.27 767.9 717.12"/>
    <polygon class="cls-51" points="748.18 729.15 748.18 740.55 761.58 743.48 761.58 732.31 748.18 729.15"/>
    <polygon class="cls-51" points="767.9 733.13 767.9 744.52 781.3 747.45 781.3 736.28 767.9 733.13"/>
  </g>
  <g>
    <polygon class="cls-52" points="1078.84 836.33 1083.43 924.3 968.99 924.98 957.43 836.33 1078.84 836.33"/>
    <polygon class="cls-46" points="1115.26 863.55 1078.84 836.33 1083.43 924.3 1118.51 924.3 1115.26 863.55"/>
    <polygon class="cls-39" points="987.76 864.12 987.76 864.87 987.76 880.84 981.49 880.84 980.1 865.63 987.76 864.12"/>
    <polygon class="cls-39" points="999.52 864.12 999.52 864.87 999.52 880.84 993.24 880.84 991.85 865.63 999.52 864.12"/>
    <polygon class="cls-39" points="987.76 885.26 987.76 886.01 987.76 901.98 981.49 901.98 980.1 886.77 987.76 885.26"/>
    <polygon class="cls-39" points="999.52 885.26 999.52 886.01 999.52 901.98 993.24 901.98 991.85 886.77 999.52 885.26"/>
  </g>
  <g>
    <g>
      <polygon class="cls-53" points="492.79 717.72 468.65 923.47 532.72 923.47 503.14 717.62 492.79 717.72"/>
      <line class="cls-54" x1="376.92" y1="763.59" x2="619.03" y2="679.62"/>
      <line class="cls-54" x1="438.14" y1="834.54" x2="555.67" y2="605.97"/>
      <line class="cls-54" x1="559.4" y1="836.11" x2="440.41" y2="605.97"/>
      <line class="cls-54" x1="381.54" y1="669.42" x2="614.81" y2="771.56"/>
      <circle class="cls-55" cx="498.62" cy="718.8" r="12.12" transform="translate(-204.93 198.89) rotate(-18.79)"/>
      <circle class="cls-53" cx="498.62" cy="718.72" r="8.94"/>
      <circle class="cls-54" cx="497.46" cy="720.12" r="128.11"/>
    </g>
    <g>
      <circle class="cls-56" cx="441.04" cy="829.76" r="21.96"/>
      <path class="cls-57" d="M431.67,827h18.76a2.44,2.44,0,0,1,2,3.37,12.86,12.86,0,0,1-5.4,6.76,11.81,11.81,0,0,1-11.63.62,11.25,11.25,0,0,1-5.88-7.65A2.41,2.41,0,0,1,431.67,827Z"/>
    </g>
    <g>
      <circle class="cls-58" cx="376.92" cy="766.24" r="21.96"/>
      <path class="cls-57" d="M367.54,761.14H386.3a2.44,2.44,0,0,1,2,3.37,12.86,12.86,0,0,1-5.4,6.76,11.81,11.81,0,0,1-11.63.62,11.25,11.25,0,0,1-5.88-7.65A2.41,2.41,0,0,1,367.54,761.14Z"/>
    </g>
    <g>
      <circle class="cls-56" cx="381.54" cy="663.66" r="21.96"/>
      <path class="cls-57" d="M372.16,660.32h18.76a2.44,2.44,0,0,1,2,3.37,12.86,12.86,0,0,1-5.4,6.76,11.81,11.81,0,0,1-11.63.62,11.25,11.25,0,0,1-5.88-7.65A2.41,2.41,0,0,1,372.16,660.32Z"/>
    </g>
    <g>
      <circle class="cls-56" cx="553.64" cy="602.47" r="21.96"/>
      <path class="cls-57" d="M544.26,600H563a2.44,2.44,0,0,1,2,3.37,12.86,12.86,0,0,1-5.4,6.76,11.81,11.81,0,0,1-11.63.62,11.25,11.25,0,0,1-5.88-7.65A2.41,2.41,0,0,1,544.26,600Z"/>
    </g>
    <g>
      <circle class="cls-58" cx="444.7" cy="599.97" r="21.96"/>
      <path class="cls-57" d="M435.32,597.84h18.76a2.44,2.44,0,0,1,2,3.37,12.86,12.86,0,0,1-5.4,6.76,11.81,11.81,0,0,1-11.63.62,11.25,11.25,0,0,1-5.88-7.65A2.41,2.41,0,0,1,435.32,597.84Z"/>
    </g>
    <g>
      <circle class="cls-58" cx="621.17" cy="677.48" r="21.96"/>
      <path class="cls-57" d="M611.79,673.62h18.76a2.44,2.44,0,0,1,2,3.37,12.86,12.86,0,0,1-5.4,6.76,11.81,11.81,0,0,1-11.63.62,11.25,11.25,0,0,1-5.88-7.65A2.41,2.41,0,0,1,611.79,673.62Z"/>
    </g>
    <g>
      <circle class="cls-56" cx="619.03" cy="771.56" r="21.96"/>
      <path class="cls-57" d="M609.65,767.14h18.76a2.44,2.44,0,0,1,2,3.37,12.86,12.86,0,0,1-5.4,6.76,11.81,11.81,0,0,1-11.63.62,11.25,11.25,0,0,1-5.88-7.65A2.41,2.41,0,0,1,609.65,767.14Z"/>
    </g>
    <g>
      <circle class="cls-58" cx="555.67" cy="829.76" r="21.96"/>
      <path class="cls-57" d="M546.29,827H565a2.44,2.44,0,0,1,2,3.37,12.86,12.86,0,0,1-5.4,6.76,11.81,11.81,0,0,1-11.63.62,11.25,11.25,0,0,1-5.88-7.65A2.41,2.41,0,0,1,546.29,827Z"/>
    </g>
  </g>
  <polygon class="cls-28" points="1365.57 752.75 1370.57 924.91 1349.33 924.91 1347.87 796.63 1337.41 789.4 1337.41 750.37 1365.57 752.75"/>
  <g>
    <g>
      <polygon class="cls-35" points="1315.41 730.36 1326.5 781.91 1273.54 781.91 1267.87 717.15 1315.41 730.36"/>
      <polygon class="cls-32" points="1337.41 786.4 1337.41 730.36 1315.41 730.36 1326.5 781.91 1337.41 786.4"/>
      <polygon class="cls-32" points="1326.5 781.91 1319.08 921.91 1349.33 921.91 1347.87 793.63 1337.41 786.4 1326.5 781.91"/>
      <polygon class="cls-35" points="1319.08 921.91 1283.26 923.32 1273.54 781.91 1326.5 781.91 1319.08 921.91"/>
    </g>
    <rect class="cls-39" x="1283.26" y="758.38" width="3.5" height="16"/>
    <rect class="cls-39" x="1283.26" y="777.96" width="3.5" height="16"/>
    <rect class="cls-39" x="1288.76" y="758.38" width="3.5" height="16"/>
    <rect class="cls-39" x="1288.76" y="777.96" width="3.5" height="16"/>
    <rect class="cls-39" x="1283.26" y="795.63" width="3.5" height="16"/>
    <rect class="cls-39" x="1288.76" y="814.96" width="3.5" height="16"/>
    <rect class="cls-39" x="1283.26" y="814.96" width="3.5" height="16"/>
    <rect class="cls-39" x="1288.76" y="796.13" width="3.5" height="16"/>
    <polygon class="cls-23" points="1267.87 717.15 1337.41 730.36 1316.32 734.54 1267.87 717.15"/>
  </g>
  <g>
    <polygon class="cls-34" points="1360.73 825.62 1371.54 927.75 1446.21 927.75 1431.48 825.62 1360.73 825.62"/>
    <g>
      <polygon class="cls-59" points="1419.89 855.07 1428.06 854.51 1425.74 842.26 1418.7 841.66 1419.89 855.07"/>
      <polygon class="cls-59" points="1415.21 874.08 1423.38 873.52 1421.06 861.27 1414.03 860.67 1415.21 874.08"/>
      <polygon class="cls-59" points="1427.5 889.33 1435.66 888.77 1433.34 876.52 1426.31 875.92 1427.5 889.33"/>
      <polygon class="cls-59" points="1402.81 874.08 1410.98 873.52 1408.66 861.27 1401.62 860.67 1402.81 874.08"/>
    </g>
    <polygon class="cls-40" points="1342.07 927.75 1334.2 826.94 1360.73 825.62 1371.54 927.75 1342.07 927.75"/>
  </g>
  <g>
    <polygon class="cls-60" points="327.52 923.63 263 923.63 263 757.02 326.02 761.72 327.52 923.63"/>
    <polygon class="cls-61" points="326.29 790.68 262.86 787.45 262.94 781.94 326.29 785.17 326.29 790.68"/>
    <polygon class="cls-61" points="325.79 804.76 262.94 801.56 263.01 796.05 325.86 799.26 325.79 804.76"/>
    <polygon class="cls-61" points="326.18 778.23 262.94 775.01 263.01 769.51 326.13 772.72 326.18 778.23"/>
    <polygon class="cls-61" points="325.71 817.53 262.86 814.33 262.94 808.82 325.79 812.03 325.71 817.53"/>
    <polygon class="cls-61" points="325.79 876.33 262.94 873.13 263.01 867.63 325.86 870.83 325.79 876.33"/>
    <polygon class="cls-61" points="325.75 834.16 262.9 830.96 262.98 825.46 325.82 828.66 325.75 834.16"/>
    <polygon class="cls-61" points="325.79 847.22 262.94 844.02 263.01 838.52 325.86 841.72 325.79 847.22"/>
    <polygon class="cls-61" points="325.79 862.95 262.94 859.75 263.01 854.25 325.86 857.45 325.79 862.95"/>
    <polygon class="cls-62" points="263 757.02 254.71 760.65 254.71 923.63 263.61 923.63 263 757.02"/>
  </g>
  <g>
    <polygon class="cls-61" points="614.52 886.83 603.97 755.05 680.18 754.7 677.83 698.91 698.9 701.31 684.43 922.9 611.52 922.9 614.52 886.83"/>
    <polygon class="cls-63" points="694.25 922.9 684.43 922.9 698.9 701.31 707.7 721.19 694.25 922.9"/>
    <line class="cls-64" x1="660.08" y1="781.61" x2="613.32" y2="781.61"/>
    <line class="cls-64" x1="658.51" y1="798.54" x2="614.09" y2="798.54"/>
    <line class="cls-64" x1="657.09" y1="813.75" x2="614.82" y2="814.45"/>
    <line class="cls-64" x1="656.08" y1="824.67" x2="615.29" y2="824.67"/>
    <line class="cls-64" x1="654.93" y1="837.01" x2="615.86" y2="837.01"/>
    <line class="cls-64" x1="653.95" y1="847.58" x2="616.34" y2="847.58"/>
    <line class="cls-64" x1="653.01" y1="857.59" x2="616.8" y2="857.59"/>
  </g>
  <g>
    <rect class="cls-65" x="1717.6" y="806.25" width="4.41" height="90"/>
    <rect class="cls-66" x="1715.29" y="875.02" width="9.05" height="50.71" rx="3.25" ry="3.25"/>
    <rect class="cls-67" x="1711.41" y="791.51" width="16.8" height="34.54" rx="3.25" ry="3.25"/>
    <rect class="cls-65" x="1715.69" y="786.44" width="8.23" height="5.07" rx="1.53" ry="1.53"/>
  </g>
  <g>
    <rect class="cls-65" x="22.8" y="803.77" width="4.41" height="90"/>
    <rect class="cls-66" x="20.48" y="872.54" width="9.05" height="50.71" rx="3.25" ry="3.25"/>
    <rect class="cls-67" x="16.6" y="789.04" width="16.8" height="34.54" rx="3.25" ry="3.25"/>
    <rect class="cls-65" x="20.88" y="783.97" width="8.23" height="5.07" rx="1.53" ry="1.53"/>
  </g>
  <g>
    <polygon class="cls-68" points="362.75 925.21 320.78 925.21 320.78 795.84 362.75 790.55 362.75 925.21"/>
    <polygon class="cls-69" points="377.86 794.33 362.75 790.55 362.75 925.21 377.86 925.21 377.86 794.33"/>
    <polygon class="cls-69" points="329.9 804.21 329.9 815.25 352.99 811.64 352.99 801.02 329.9 804.21"/>
    <polygon class="cls-69" points="329.9 818.44 329.9 829.48 352.99 825.87 352.99 815.25 329.9 818.44"/>
    <polygon class="cls-69" points="329.9 832.66 329.9 843.71 352.99 840.1 352.99 829.48 329.9 832.66"/>
    <polygon class="cls-69" points="329.9 846.89 329.9 857.94 352.99 854.33 352.99 843.71 329.9 846.89"/>
    <polygon class="cls-69" points="329.9 875.35 329.9 886.4 352.99 882.79 352.99 872.17 329.9 875.35"/>
    <polygon class="cls-69" points="329.9 889.58 329.9 900.63 352.99 897.02 352.99 886.4 329.9 889.58"/>
    <polygon class="cls-69" points="329.9 903.81 329.9 914.86 352.99 911.25 352.99 900.63 329.9 903.81"/>
    <polygon class="cls-69" points="329.9 861.12 329.9 872.17 352.99 868.56 352.99 857.94 329.9 861.12"/>
  </g>
  <g>
    <rect class="cls-70" x="371.44" y="775.22" width="58.32" height="149.99"/>
    <rect class="cls-71" x="378.84" y="775.22" width="10.44" height="149.99"/>
    <rect class="cls-71" x="395.38" y="775.22" width="10.44" height="149.99"/>
    <rect class="cls-71" x="411.92" y="775.22" width="10.44" height="149.99"/>
  </g>
  <g>
    <circle class="cls-19" cx="107.05" cy="843.87" r="47.95"/>
    <path class="cls-72" d="M155,843.87a48,48,0,0,1-48,48V795.92A48,48,0,0,1,155,843.87Z"/>
    <g>
      <rect class="cls-22" x="104.78" y="853.48" width="4.53" height="70.45" rx="2.26" ry="2.26"/>
      <rect class="cls-22" x="114.52" y="849.69" width="2.66" height="25.14" rx="1.33" ry="1.33" transform="translate(684.63 203.92) rotate(48.48)"/>
      <rect class="cls-22" x="101" y="868.24" width="2.59" height="12.07" rx="1.13" ry="1.13" transform="translate(824.67 1377.24) rotate(131.52)"/>
    </g>
    <path class="cls-21" d="M158.42,828.21S143,826.78,140.08,843.1C156.64,843.64,158.42,828.21,158.42,828.21Z"/>
  </g>
  <g>
    <path class="cls-19" d="M1884,853.91h0c.46-31.28-47.88-82.08-48-82.16h0c-.07.07-48.41,50.88-48,82.16h0q0,.58,0,1.16a48,48,0,1,0,95.91,0Q1884,854.48,1884,853.91Z"/>
    <path class="cls-72" d="M1884,853.91h0c.46-31.3-48-82.16-48-82.16v81h0V903a48,48,0,0,0,48-48Q1884,854.48,1884,853.91Z"/>
    <g>
      <rect class="cls-73" x="1834.09" y="854.15" width="4.53" height="70.45" rx="2.26" ry="2.26"/>
      <rect class="cls-73" x="1843.82" y="850.36" width="2.66" height="25.14" rx="1.33" ry="1.33" transform="translate(1268.06 -1090.58) rotate(48.48)"/>
      <rect class="cls-73" x="1830.3" y="868.9" width="2.59" height="12.07" rx="1.13" ry="1.13" transform="translate(3700.84 83.62) rotate(131.52)"/>
    </g>
    <path class="cls-21" d="M1882.06,807.19s-15.47-1.43-18.34,14.89C1880.27,822.62,1882.06,807.19,1882.06,807.19Z"/>
    <path class="cls-21" d="M1882.06,824.46s-15.47-1.43-18.34,14.89C1880.27,839.89,1882.06,824.46,1882.06,824.46Z"/>
  </g>
  <g>
    <path class="cls-72" d="M680.13,855.45h0c-.46-31.28,47.88-82.08,48-82.16h0c.07.07,48.41,50.88,48,82.16h0q0,.58,0,1.16a48,48,0,1,1-95.91,0Q680.11,856,680.13,855.45Z"/>
    <path class="cls-19" d="M680.13,855.45h0c-.46-31.3,48-82.16,48-82.16v81h0v50.23a48,48,0,0,1-48-48Q680.11,856,680.13,855.45Z"/>
    <g>
      <rect class="cls-73" x="725.49" y="855.69" width="4.53" height="70.45" rx="2.26" ry="2.26" transform="translate(1455.51 1781.83) rotate(180)"/>
      <rect class="cls-73" x="717.62" y="851.9" width="2.66" height="25.14" rx="1.33" ry="1.33" transform="translate(1842.78 899.26) rotate(131.52)"/>
      <rect class="cls-73" x="731.21" y="870.45" width="2.59" height="12.07" rx="1.13" ry="1.13" transform="translate(903.14 -252.98) rotate(48.48)"/>
    </g>
    <path class="cls-21" d="M682,808.74s15.47-1.43,18.34,14.89C683.83,824.17,682,808.74,682,808.74Z"/>
    <path class="cls-21" d="M682,826s15.47-1.43,18.34,14.89C683.83,841.44,682,826,682,826Z"/>
  </g>
  <g>
    <path class="cls-72" d="M178,853.66h0c-.46-31.28,47.88-82.08,48-82.16h0c.07.07,48.41,50.88,48,82.16h0q0,.58,0,1.16a48,48,0,1,1-95.91,0Q178,854.23,178,853.66Z"/>
    <path class="cls-19" d="M178,853.66h0c-.46-31.3,48-82.16,48-82.16v81h0v50.23a48,48,0,0,1-48-48Q178,854.23,178,853.66Z"/>
    <g>
      <rect class="cls-73" x="223.4" y="853.89" width="4.53" height="70.45" rx="2.26" ry="2.26" transform="translate(451.34 1778.24) rotate(180)"/>
      <rect class="cls-73" x="215.53" y="850.1" width="2.66" height="25.14" rx="1.33" ry="1.33" transform="translate(1006.51 1272.19) rotate(131.52)"/>
      <rect class="cls-73" x="229.13" y="868.65" width="2.59" height="12.07" rx="1.13" ry="1.13" transform="translate(732.55 122.33) rotate(48.48)"/>
    </g>
    <path class="cls-21" d="M278.21,817s-15.47-1.43-18.34,14.89C276.43,832.38,278.21,817,278.21,817Z"/>
    <path class="cls-21" d="M278.21,834.22s-15.47-1.43-18.34,14.89C276.43,849.65,278.21,834.22,278.21,834.22Z"/>
  </g>
  <g>
    <circle class="cls-19" cx="168.78" cy="873.83" r="31.07"/>
    <path class="cls-72" d="M199.85,873.83a31.07,31.07,0,0,1-31.07,31.07V842.76A31.07,31.07,0,0,1,199.85,873.83Z"/>
    <g>
      <rect class="cls-22" x="167.32" y="880.06" width="2.93" height="45.64" rx="1.47" ry="1.47"/>
      <rect class="cls-22" x="173.63" y="877.6" width="1.72" height="16.29" rx="0.86" ry="0.86" transform="translate(721.97 167.94) rotate(48.48)"/>
      <rect class="cls-22" x="164.86" y="889.61" width="1.68" height="7.82" rx="0.73" ry="0.73" transform="translate(944.53 1361.79) rotate(131.52)"/>
    </g>
    <path class="cls-21" d="M202.07,863.68s-10-.92-11.88,9.65C200.91,873.68,202.07,863.68,202.07,863.68Z"/>
  </g>
  <g>
    <circle class="cls-19" cx="657.32" cy="872.22" r="31.38"/>
    <path class="cls-72" d="M688.69,872.22a31.38,31.38,0,0,1-31.38,31.38V840.85A31.38,31.38,0,0,1,688.69,872.22Z"/>
    <g>
      <rect class="cls-22" x="655.83" y="878.51" width="2.96" height="46.1" rx="1.48" ry="1.48"/>
      <rect class="cls-22" x="662.21" y="876.03" width="1.74" height="16.45" rx="0.87" ry="0.87" transform="translate(885.56 -198.37) rotate(48.48)"/>
      <rect class="cls-22" x="653.36" y="888.17" width="1.7" height="7.89" rx="0.74" ry="0.74" transform="translate(1755.81 993.71) rotate(131.52)"/>
    </g>
    <path class="cls-21" d="M690.93,862s-10.12-.93-12,9.74C689.77,872.07,690.93,862,690.93,862Z"/>
  </g>
  <g>
    <g>
      <polygon class="cls-74" points="821.18 801.91 785.73 848.71 785.73 924.91 858.85 924.91 858.81 848.27 821.18 801.91"/>
      <polygon class="cls-75" points="858.85 924.91 858.81 848.27 923.19 848.71 923.19 924.91 858.85 924.91"/>
      <path class="cls-76" d="M758.76,852.72c.23-.91,50.65-69.7,50.65-69.7l11.77,18.88-35.46,46.81Z"/>
      <polygon class="cls-77" points="809.41 783.02 863.01 870.58 936.97 870.58 896.24 799.08 809.41 783.02"/>
    </g>
    <rect class="cls-34" x="794.26" y="865.63" width="8" height="16.35"/>
    <rect class="cls-34" x="794.26" y="886.59" width="8" height="16.35"/>
    <rect class="cls-34" x="805.41" y="865.63" width="8" height="16.35"/>
  </g>
  <g>
    <g>
      <polygon class="cls-78" points="449.69 861.13 472.87 886.21 472.87 927.02 425.07 927.02 425.1 885.97 449.69 861.13"/>
      <polygon class="cls-79" points="425.07 927.02 425.1 885.97 383.02 886.21 383.02 927.02 425.07 927.02"/>
      <path class="cls-80" d="M490.5,888.35c-.15-.49-33.11-37.34-33.11-37.34l-7.69,10.12,23.18,25.08Z"/>
      <polygon class="cls-81" points="457.39 851.01 422.36 897.92 374.01 897.92 400.63 859.61 457.39 851.01"/>
    </g>
    <rect class="cls-34" x="462.06" y="895.27" width="5.23" height="8.76" transform="translate(929.35 1799.3) rotate(-180)"/>
    <rect class="cls-34" x="462.06" y="906.5" width="5.23" height="8.76" transform="translate(929.35 1821.75) rotate(-180)"/>
    <rect class="cls-34" x="454.78" y="895.27" width="5.23" height="8.76" transform="translate(914.78 1799.3) rotate(-180)"/>
  </g>
  <g>
    <rect class="cls-65" x="881.81" y="806.31" width="4.41" height="90"/>
    <rect class="cls-66" x="879.49" y="875.08" width="9.05" height="50.71" rx="3.25" ry="3.25"/>
    <rect class="cls-67" x="875.61" y="791.58" width="16.8" height="34.54" rx="3.25" ry="3.25"/>
    <rect class="cls-65" x="879.89" y="786.51" width="8.23" height="5.07" rx="1.53" ry="1.53"/>
  </g>
  <g>
    <g>
      <path class="cls-45" d="M1755.35,915.16c-20.87-13.32-38.64-16.9-38.64-16.9h0a32.84,32.84,0,0,0-9.07-1.29h-31.07a34.06,34.06,0,0,0-18.31,5.49c-11.59,7.38-25.3,11.39-31.62,13a25.52,25.52,0,0,0-8.88,4.12c-7.12,5.2-9.09,10.7-9,15.32.14,6.17,4.82,11,10.38,11h131.41c4.93,0,9.18-3.85,10.18-9.21C1763.7,920.82,1755.35,915.16,1755.35,915.16Z"/>
      <g>
        <ellipse class="cls-82" cx="1635.7" cy="940.19" rx="13.75" ry="15.26"/>
        <ellipse class="cls-83" cx="1635.7" cy="940.19" rx="8.14" ry="9.04"/>
      </g>
      <g>
        <ellipse class="cls-82" cx="1732.16" cy="940.19" rx="13.75" ry="15.26"/>
        <ellipse class="cls-83" cx="1732.16" cy="940.19" rx="8.14" ry="9.04"/>
      </g>
    </g>
    <g>
      <path class="cls-83" d="M1680.46,900.25c-12.75,0-21.23,12.92-21.23,12.92h32.88V900.25Z"/>
      <path class="cls-83" d="M1711.46,901.25a21.75,21.75,0,0,0-6.48-1h-11v12.92h38.19C1725.92,906.47,1716.56,902.84,1711.46,901.25Z"/>
    </g>
    <path class="cls-84" d="M1614.72,922.07s-6.42,4.86-5.95,12.8a6.53,6.53,0,0,0,1.78-.85,10.08,10.08,0,0,0,4.29-8.89Z"/>
  </g>
  <g>
    <g>
      <path class="cls-68" d="M125,917.93c20.87-13.32,38.64-16.9,38.64-16.9h0a32.84,32.84,0,0,1,9.07-1.29h31.07a34.06,34.06,0,0,1,18.31,5.49c11.59,7.38,25.3,11.39,31.62,13a25.52,25.52,0,0,1,8.88,4.12c7.12,5.2,9.09,10.7,9,15.32-.14,6.17-4.82,11-10.38,11H129.81c-4.93,0-9.18-3.85-10.18-9.21C116.67,923.59,125,917.93,125,917.93Z"/>
      <g>
        <ellipse class="cls-82" cx="244.67" cy="942.96" rx="13.75" ry="15.26"/>
        <ellipse class="cls-83" cx="244.67" cy="942.96" rx="8.14" ry="9.04"/>
      </g>
      <g>
        <ellipse class="cls-82" cx="148.21" cy="942.96" rx="13.75" ry="15.26"/>
        <ellipse class="cls-83" cx="148.21" cy="942.96" rx="8.14" ry="9.04"/>
      </g>
    </g>
    <g>
      <path class="cls-83" d="M199.91,903c12.75,0,21.23,12.92,21.23,12.92H188.26V903Z"/>
      <path class="cls-83" d="M168.91,904a21.75,21.75,0,0,1,6.48-1h11v12.92H148.2C154.45,909.24,163.81,905.6,168.91,904Z"/>
    </g>
    <path class="cls-84" d="M265.65,924.84s6.42,4.86,5.95,12.8a6.53,6.53,0,0,1-1.78-.85,10.08,10.08,0,0,1-4.29-8.89Z"/>
  </g>
  <g>
    <g>
      <rect class="cls-85" x="-51.14" y="942.72" width="78.05" height="86.04"/>
      <rect class="cls-86" x="6.65" y="982.7" width="14.49" height="8.6"/>
    </g>
    <g>
      <rect class="cls-85" x="26.91" y="942.72" width="78.05" height="86.04"/>
      <rect class="cls-86" x="84.7" y="982.7" width="14.49" height="8.6"/>
      <rect class="cls-86" x="58.72" y="982.7" width="14.49" height="8.6"/>
      <rect class="cls-86" x="32.82" y="982.7" width="14.49" height="8.6"/>
    </g>
    <g>
      <rect class="cls-85" x="104.96" y="942.72" width="78.05" height="86.04"/>
      <rect class="cls-86" x="162.75" y="982.7" width="14.49" height="8.6"/>
      <rect class="cls-86" x="136.77" y="982.7" width="14.49" height="8.6"/>
      <rect class="cls-86" x="110.87" y="982.7" width="14.49" height="8.6"/>
    </g>
    <g>
      <rect class="cls-85" x="183.01" y="942.72" width="78.05" height="86.04"/>
      <rect class="cls-86" x="240.8" y="982.7" width="14.49" height="8.6"/>
      <rect class="cls-86" x="214.82" y="982.7" width="14.49" height="8.6"/>
      <rect class="cls-86" x="188.92" y="982.7" width="14.49" height="8.6"/>
    </g>
    <g>
      <rect class="cls-85" x="261.06" y="942.72" width="78.05" height="86.04"/>
      <rect class="cls-86" x="318.85" y="982.7" width="14.49" height="8.6"/>
      <rect class="cls-86" x="292.87" y="982.7" width="14.49" height="8.6"/>
      <rect class="cls-86" x="266.97" y="982.7" width="14.49" height="8.6"/>
    </g>
    <g>
      <rect class="cls-85" x="339.11" y="942.72" width="78.05" height="86.04"/>
      <rect class="cls-86" x="396.9" y="982.7" width="14.49" height="8.6"/>
      <rect class="cls-86" x="370.92" y="982.7" width="14.49" height="8.6"/>
      <rect class="cls-86" x="345.02" y="982.7" width="14.49" height="8.6"/>
    </g>
    <g>
      <rect class="cls-85" x="417.16" y="942.72" width="78.05" height="86.04"/>
      <rect class="cls-86" x="474.95" y="982.7" width="14.49" height="8.6"/>
      <rect class="cls-86" x="448.97" y="982.7" width="14.49" height="8.6"/>
      <rect class="cls-86" x="423.07" y="982.7" width="14.49" height="8.6"/>
    </g>
    <g>
      <rect class="cls-85" x="495.21" y="942.72" width="78.05" height="86.04"/>
      <rect class="cls-86" x="553" y="982.7" width="14.49" height="8.6"/>
      <rect class="cls-86" x="527.02" y="982.7" width="14.49" height="8.6"/>
      <rect class="cls-86" x="501.12" y="982.7" width="14.49" height="8.6"/>
    </g>
    <g>
      <rect class="cls-85" x="573.26" y="942.72" width="78.05" height="86.04"/>
      <rect class="cls-86" x="631.05" y="982.7" width="14.49" height="8.6"/>
      <rect class="cls-86" x="605.07" y="982.7" width="14.49" height="8.6"/>
      <rect class="cls-86" x="579.17" y="982.7" width="14.49" height="8.6"/>
    </g>
    <g>
      <rect class="cls-85" x="651.31" y="942.72" width="78.05" height="86.04"/>
      <rect class="cls-86" x="709.1" y="982.7" width="14.49" height="8.6"/>
      <rect class="cls-86" x="683.12" y="982.7" width="14.49" height="8.6"/>
      <rect class="cls-86" x="657.22" y="982.7" width="14.49" height="8.6"/>
    </g>
    <g>
      <rect class="cls-85" x="729.36" y="942.72" width="78.05" height="86.04"/>
      <rect class="cls-86" x="787.15" y="982.7" width="14.49" height="8.6"/>
      <rect class="cls-86" x="761.17" y="982.7" width="14.49" height="8.6"/>
      <rect class="cls-86" x="735.27" y="982.7" width="14.49" height="8.6"/>
    </g>
    <g>
      <rect class="cls-85" x="807.41" y="942.72" width="78.05" height="86.04"/>
      <rect class="cls-86" x="865.2" y="982.7" width="14.49" height="8.6"/>
      <rect class="cls-86" x="839.22" y="982.7" width="14.49" height="8.6"/>
      <rect class="cls-86" x="813.32" y="982.7" width="14.49" height="8.6"/>
    </g>
    <g>
      <rect class="cls-85" x="885.46" y="942.72" width="78.05" height="86.04"/>
      <rect class="cls-86" x="943.25" y="982.7" width="14.49" height="8.6"/>
      <rect class="cls-86" x="917.27" y="982.7" width="14.49" height="8.6"/>
      <rect class="cls-86" x="891.37" y="982.7" width="14.49" height="8.6"/>
    </g>
    <g>
      <rect class="cls-85" x="963.51" y="942.72" width="78.05" height="86.04"/>
      <rect class="cls-86" x="1021.3" y="982.7" width="14.49" height="8.6"/>
      <rect class="cls-86" x="995.32" y="982.7" width="14.49" height="8.6"/>
      <rect class="cls-86" x="969.42" y="982.7" width="14.49" height="8.6"/>
    </g>
    <g>
      <rect class="cls-85" x="1041.56" y="942.72" width="78.05" height="86.04"/>
      <rect class="cls-86" x="1099.35" y="982.7" width="14.49" height="8.6"/>
      <rect class="cls-86" x="1073.37" y="982.7" width="14.49" height="8.6"/>
      <rect class="cls-86" x="1047.47" y="982.7" width="14.49" height="8.6"/>
    </g>
    <g>
      <rect class="cls-85" x="1119.61" y="942.72" width="78.05" height="86.04"/>
      <rect class="cls-86" x="1177.4" y="982.7" width="14.49" height="8.6"/>
      <rect class="cls-86" x="1151.42" y="982.7" width="14.49" height="8.6"/>
      <rect class="cls-86" x="1125.52" y="982.7" width="14.49" height="8.6"/>
    </g>
    <g>
      <rect class="cls-85" x="1197.66" y="942.72" width="78.05" height="86.04"/>
      <rect class="cls-86" x="1255.45" y="982.7" width="14.49" height="8.6"/>
      <rect class="cls-86" x="1229.47" y="982.7" width="14.49" height="8.6"/>
      <rect class="cls-86" x="1203.57" y="982.7" width="14.49" height="8.6"/>
    </g>
    <g>
      <rect class="cls-85" x="1275.7" y="942.72" width="78.05" height="86.04"/>
      <rect class="cls-86" x="1333.5" y="982.7" width="14.49" height="8.6"/>
      <rect class="cls-86" x="1307.52" y="982.7" width="14.49" height="8.6"/>
      <rect class="cls-86" x="1281.62" y="982.7" width="14.49" height="8.6"/>
    </g>
    <g>
      <rect class="cls-85" x="1353.75" y="942.72" width="78.05" height="86.04"/>
      <rect class="cls-86" x="1411.55" y="982.7" width="14.49" height="8.6"/>
      <rect class="cls-86" x="1385.57" y="982.7" width="14.49" height="8.6"/>
      <rect class="cls-86" x="1359.67" y="982.7" width="14.49" height="8.6"/>
    </g>
    <g>
      <rect class="cls-85" x="1431.8" y="942.72" width="78.05" height="86.04"/>
      <rect class="cls-86" x="1489.6" y="982.7" width="14.49" height="8.6"/>
      <rect class="cls-86" x="1463.62" y="982.7" width="14.49" height="8.6"/>
      <rect class="cls-86" x="1437.72" y="982.7" width="14.49" height="8.6"/>
    </g>
    <g>
      <rect class="cls-85" x="1509.85" y="942.72" width="78.05" height="86.04"/>
      <rect class="cls-86" x="1567.65" y="982.7" width="14.49" height="8.6"/>
      <rect class="cls-86" x="1541.67" y="982.7" width="14.49" height="8.6"/>
      <rect class="cls-86" x="1515.77" y="982.7" width="14.49" height="8.6"/>
    </g>
    <g>
      <rect class="cls-85" x="1587.9" y="942.72" width="78.05" height="86.04"/>
      <rect class="cls-86" x="1645.7" y="982.7" width="14.49" height="8.6"/>
      <rect class="cls-86" x="1619.72" y="982.7" width="14.49" height="8.6"/>
      <rect class="cls-86" x="1593.82" y="982.7" width="14.49" height="8.6"/>
    </g>
    <g>
      <rect class="cls-85" x="1665.95" y="942.72" width="78.05" height="86.04"/>
      <rect class="cls-86" x="1723.75" y="982.7" width="14.49" height="8.6"/>
      <rect class="cls-86" x="1697.77" y="982.7" width="14.49" height="8.6"/>
      <rect class="cls-86" x="1671.87" y="982.7" width="14.49" height="8.6"/>
    </g>
    <g>
      <rect class="cls-85" x="1744" y="942.72" width="78.05" height="86.04"/>
      <rect class="cls-86" x="1801.8" y="982.7" width="14.49" height="8.6"/>
      <rect class="cls-86" x="1775.82" y="982.7" width="14.49" height="8.6"/>
      <rect class="cls-86" x="1749.92" y="982.7" width="14.49" height="8.6"/>
    </g>
    <g>
      <rect class="cls-85" x="1822.05" y="942.72" width="78.05" height="86.04"/>
      <rect class="cls-86" x="1879.85" y="982.7" width="14.49" height="8.6"/>
      <rect class="cls-86" x="1853.87" y="982.7" width="14.49" height="8.6"/>
      <rect class="cls-86" x="1827.97" y="982.7" width="14.49" height="8.6"/>
    </g>
    <g>
      <rect class="cls-85" x="1900.1" y="942.72" width="78.05" height="86.04"/>
      <rect class="cls-86" x="1906.02" y="982.7" width="14.49" height="8.6"/>
    </g>
  </g>
  <g>
    <g>
      <path class="cls-87" d="M723.44,830.94,714,834.11a.82.82,0,0,0-.33,1.41l6.42,8.3a.83.83,0,0,1,.27.57l.35,6.35a.82.82,0,0,0,.34.62l8.33,6a.79.79,0,0,0,.79.08l12.38-4.52a.83.83,0,0,0,.17-1.39l-9.89-5.89a.83.83,0,0,1-.31-.68l.19-5a.83.83,0,0,0-.24-.62l-8.27-8.18A.79.79,0,0,0,723.44,830.94Z"/>
      <path class="cls-88" d="M721,830.94l-10.68,3.17a.82.82,0,0,0-.33,1.41l7.66,8.3a.83.83,0,0,1,.27.57l.35,6.35a.82.82,0,0,0,.34.62l8.33,6a.79.79,0,0,0,.79.08l9.86-4.52a.83.83,0,0,0,.17-1.39l-7.37-5.89a.83.83,0,0,1-.31-.68l.19-5a.83.83,0,0,0-.24-.62l-8.27-8.18A.79.79,0,0,0,721,830.94Z"/>
      <path class="cls-87" d="M727.84,824.34s-5.57-.09-4.65,4.92C723.19,829.26,728.4,828.82,727.84,824.34Z"/>
      <path class="cls-87" d="M719.36,826.58A2.94,2.94,0,0,0,722.2,829S722.59,826.72,719.36,826.58Z"/>
      <path class="cls-88" d="M726.9,824.34s-5.57-.09-4.65,4.92C722.26,829.26,727.47,828.82,726.9,824.34Z"/>
      <path class="cls-88" d="M718.43,826.58a2.94,2.94,0,0,0,2.84,2.46S721.65,826.72,718.43,826.58Z"/>
      <path class="cls-89" d="M719,834.51a1.54,1.54,0,0,1,2,0,1.24,1.24,0,0,1,0,1.87,1.54,1.54,0,0,1-2,0A1.24,1.24,0,0,1,719,834.51Z"/>
    </g>
    <polygon class="cls-87" points="722.36 844.2 724.51 847.16 722.36 850.12 725.48 848.08 728.61 850.12 726.46 847.16 728.61 844.2 725.48 846.24 722.36 844.2"/>
  </g>
</svg>
