<svg id="圖層_1" data-name="圖層 1" xmlns="http://www.w3.org/2000/svg" viewBox="0 0 1080 320"><defs><style>.cls-1{fill:#afdcbe;}.cls-2{fill:#696;}.cls-3{fill:#47683e;}.cls-4,.cls-8{fill:#4c7741;}.cls-5,.cls-7{fill:#94ad8d;}.cls-6{fill:#395931;}.cls-7{stroke:#bbc0ce;stroke-width:1.62px;}.cls-10,.cls-7,.cls-8{stroke-miterlimit:10;}.cls-10,.cls-8,.cls-9{stroke:#4c7741;}.cls-9{fill:none;stroke-linecap:round;stroke-linejoin:round;stroke-width:5.37px;}.cls-10{fill:#7f8593;}</style></defs><title>網頁Footer</title><rect class="cls-1" y="-42.18" width="1080" height="365.98"/><polygon class="cls-2" points="0 323.93 0 148.58 50.72 196.7 90.35 179.59 137.78 199.25 410.03 298.27 594.71 272.66 917.62 84.43 939.28 101.09 1000.73 48.32 1018.31 66.1 1079.88 8.1 1079.88 323.93 0 323.93"/><polygon class="cls-2" points="0 323.93 63.51 323.58 171.6 323.93 189.49 218.06 90.35 179.59 96.49 205.79 56.93 251.76 58.27 277.96 18.98 315.64 0 323.93"/><polygon class="cls-2" points="858.02 325 1035.61 207.74 1019.47 157.14 1063.16 78.55 1079.88 8.1 1079.88 323.93 858.02 325"/><circle class="cls-3" cx="976.15" cy="287.61" r="21.53"/><path class="cls-3" d="M997.68,287.61a21.53,21.53,0,0,1-21.53,21.53V266.08A21.53,21.53,0,0,1,997.68,287.61Z"/><path class="cls-3" d="M999.22,280.58a7.69,7.69,0,0,0-8.24,6.68A7.69,7.69,0,0,0,999.22,280.58Z"/><rect class="cls-3" x="975.14" y="291.93" width="2.03" height="31.63" rx="0.6" ry="0.6"/><rect class="cls-3" x="979.51" y="290.23" width="1.19" height="11.29" rx="0.35" ry="0.35" transform="translate(551.9 -634.07) rotate(48.48)"/><rect class="cls-3" x="973.44" y="298.55" width="1.16" height="5.42" rx="0.34" ry="0.34" transform="translate(1845.26 -228.28) rotate(131.52)"/><rect class="cls-4" x="795.72" y="59.4" width="70.11" height="222.68"/><polygon class="cls-4" points="881.63 95.61 891.41 74.91 890.9 321.91 880.08 321.91 881.63 95.61"/><rect class="cls-4" x="833.55" y="95.84" width="48.08" height="226.45"/><polyline class="cls-4" points="891.41 74.91 833.55 95.84 881.63 95.84"/><polygon class="cls-4" points="761.78 270.14 761.78 135.13 788.17 108.4 790.57 270.14 761.78 270.14"/><polygon class="cls-4" points="806.33 134.79 788.17 108.4 790.57 270.14 806.33 270.14 806.33 134.79"/><polygon class="cls-4" points="765.55 270.14 790.32 247.43 765.55 228.9 789.91 210.76 765.55 190.53 788.81 159.72 765.55 134.79 788.2 110.91 790.57 270.14 765.55 270.14"/><polygon class="cls-4" points="788.92 159.57 809.07 158.43 831 181.73 819.58 183.33 788.92 159.57"/><polygon class="cls-4" points="819.17 323.56 815.05 269.38 819.17 266.18 819.17 182.57 830.59 180.97 836.9 323.56 819.17 323.56"/><polygon class="cls-4" points="788.92 159.57 819.58 183.33 819.58 266.94 815.47 270.14 788.17 267.17 788.92 159.57"/><polygon class="cls-4" points="794.68 211.89 819.58 183.33 819.58 266.94 816.91 270.14 800.63 257.8 816.91 237.47 794.68 211.89"/><polygon class="cls-3" points="870.47 205.18 833.91 232.25 835.86 324.19 871.7 324.19 870.47 205.18"/><polygon class="cls-3" points="884.97 206.44 912.38 232.94 908.04 324.19 884.97 324.19 884.97 206.44"/><polygon class="cls-3" points="870.47 205.18 884.97 206.44 884.97 324.19 871.7 324.19 870.47 205.18"/><polygon class="cls-5" points="848.89 243.65 845.2 246.33 844.84 237.49 848.54 235.09 848.89 243.65"/><polygon class="cls-5" points="850.33 278.7 846.64 281.39 846.28 272.55 849.98 270.15 850.33 278.7"/><polygon class="cls-5" points="849.39 255.89 845.71 258.58 845.34 249.74 849.04 247.34 849.39 255.89"/><polygon class="cls-5" points="850.81 290.35 847.12 293.03 846.76 284.2 850.46 281.79 850.81 290.35"/><polygon class="cls-5" points="849.88 267.62 846.19 270.3 845.83 261.46 849.52 259.06 849.88 267.62"/><polygon class="cls-5" points="850.81 303.9 847.12 306.58 846.76 297.75 850.46 295.34 850.81 303.9"/><polygon class="cls-5" points="855.94 239.16 852.25 241.85 851.89 233.01 855.59 230.6 855.94 239.16"/><polygon class="cls-5" points="856.7 275.05 853.01 277.74 852.65 268.9 856.35 266.5 856.7 275.05"/><polygon class="cls-5" points="855.94 251.81 852.25 254.5 851.89 245.66 855.59 243.25 855.94 251.81"/><polygon class="cls-5" points="857.18 286.7 853.49 289.38 853.13 280.55 856.83 278.14 857.18 286.7"/><polygon class="cls-5" points="856.24 263.97 852.55 266.65 852.19 257.81 855.89 255.41 856.24 263.97"/><polygon class="cls-5" points="857.18 300.68 853.49 303.37 853.13 294.53 856.83 292.13 857.18 300.68"/><polygon class="cls-5" points="863.85 235.43 860.16 238.12 859.79 229.28 863.49 226.87 863.85 235.43"/><polygon class="cls-5" points="863.85 247.82 860.16 250.51 859.79 241.67 863.49 239.26 863.85 247.82"/><polygon class="cls-5" points="863.85 283.41 860.16 286.09 859.79 277.25 863.49 274.85 863.85 283.41"/><polygon class="cls-5" points="863.85 259.56 860.16 262.24 859.79 253.41 863.49 251 863.85 259.56"/><polygon class="cls-5" points="863.85 295.97 860.16 298.66 859.79 289.82 863.49 287.41 863.85 295.97"/><polygon class="cls-5" points="899.51 278.14 903.13 280.92 903.72 272.1 900.08 269.6 899.51 278.14"/><polygon class="cls-5" points="901.02 257.33 904.64 260.11 905.23 251.28 901.59 248.79 901.02 257.33"/><polygon class="cls-5" points="898.74 289.77 902.36 292.55 902.95 283.73 899.31 281.23 898.74 289.77"/><polygon class="cls-5" points="897.91 302.17 901.53 304.95 902.12 296.12 898.48 293.62 897.91 302.17"/><polygon class="cls-5" points="896.16 237.92 899.71 240.79 900.53 231.98 896.96 229.39 896.16 237.92"/><polygon class="cls-5" points="894.75 252.63 898.37 255.41 898.96 246.58 895.32 244.08 894.75 252.63"/><polygon class="cls-5" points="892.47 285.96 896.09 288.74 896.67 279.91 893.03 277.42 892.47 285.96"/><polygon class="cls-5" points="891.64 298.36 895.26 301.14 895.85 292.31 892.21 289.81 891.64 298.36"/><polygon class="cls-5" points="890.19 233.49 893.82 236.26 894.39 227.44 890.74 224.95 890.19 233.49"/><polygon class="cls-5" points="889.2 248.76 892.82 251.54 893.4 242.71 889.76 240.22 889.2 248.76"/><polygon class="cls-3" points="785.16 242.12 795.59 323.56 821.18 323.56 821.18 250.37 785.16 242.12"/><polygon class="cls-3" points="830.77 323.56 830.77 253.82 821.18 250.37 821.18 323.56 830.77 323.56"/><polygon class="cls-5" points="815.93 267.88 813.47 267.15 813.47 258.75 815.93 259.36 815.93 267.88"/><polygon class="cls-5" points="807.56 266.19 805.1 265.45 805.1 257.05 807.56 257.67 807.56 266.19"/><polygon class="cls-5" points="811.39 267.09 808.92 266.36 808.92 257.95 811.39 258.57 811.39 267.09"/><polygon class="cls-5" points="815.93 278.79 813.47 278.06 813.47 269.65 815.93 270.27 815.93 278.79"/><polygon class="cls-5" points="815.93 290.03 813.47 289.3 813.47 280.9 815.93 281.51 815.93 290.03"/><polygon class="cls-5" points="811.9 288.98 809.44 288.25 809.44 279.84 811.9 280.46 811.9 288.98"/><polygon class="cls-5" points="805.5 299.44 803.04 298.71 803.04 290.31 805.5 290.92 805.5 299.44"/><polygon class="cls-5" points="805.5 309.47 803.04 308.74 803.04 300.33 805.5 300.95 805.5 309.47"/><polygon class="cls-5" points="809.31 310.52 806.84 309.79 806.84 301.39 809.31 302.01 809.31 310.52"/><polygon class="cls-3" points="942.16 279.3 942.97 324.07 925.52 324.07 923.49 265.19 942.16 279.3"/><polygon class="cls-3" points="923.49 265.19 902.12 264.56 903.21 324.07 925.52 324.07 923.49 265.19"/><rect class="cls-5" x="918.7" y="283.26" width="2.72" height="2.72" transform="translate(-6.83 23.11) rotate(-1.43)"/><rect class="cls-5" x="918.79" y="286.74" width="2.72" height="2.72" transform="translate(-6.92 23.11) rotate(-1.43)"/><rect class="cls-5" x="918.87" y="290.18" width="2.72" height="2.72" transform="translate(-7.01 23.11) rotate(-1.43)"/><rect class="cls-5" x="918.95" y="293.46" width="2.72" height="2.72" transform="translate(-7.09 23.12) rotate(-1.43)"/><rect class="cls-5" x="919.04" y="296.72" width="2.72" height="2.72" transform="translate(-7.17 23.12) rotate(-1.43)"/><rect class="cls-5" x="919.12" y="300.26" width="2.72" height="2.72" transform="translate(-7.26 23.12) rotate(-1.43)"/><rect class="cls-5" x="918.61" y="279.68" width="2.72" height="2.72" transform="translate(-6.74 23.1) rotate(-1.43)"/><rect class="cls-5" x="913.94" y="288.24" width="2.72" height="2.72" transform="translate(-6.96 22.99) rotate(-1.43)"/><rect class="cls-5" x="914.03" y="291.72" width="2.72" height="2.72" transform="matrix(1, -0.03, 0.03, 1, -7.05, 22.99)"/><rect class="cls-5" x="914.11" y="295.16" width="2.72" height="2.72" transform="translate(-7.13 23) rotate(-1.43)"/><rect class="cls-5" x="914.2" y="298.44" width="2.72" height="2.72" transform="translate(-7.21 23) rotate(-1.43)"/><rect class="cls-5" x="914.28" y="301.7" width="2.72" height="2.72" transform="translate(-7.3 23) rotate(-1.43)"/><rect class="cls-5" x="914.37" y="305.25" width="2.72" height="2.72" transform="translate(-7.38 23.01) rotate(-1.43)"/><rect class="cls-5" x="913.85" y="284.66" width="2.72" height="2.72" transform="translate(-6.87 22.99) rotate(-1.43)"/><path class="cls-4" d="M586.59,273.75c0-1.87-2.14-78.32-2.14-78.32l46.78-13.36L633,145.18l9.13,1.6L633,321.43l-44.76-.36Z"/><polygon class="cls-4" points="653.68 162.72 642.09 146.78 639.64 193.57 649.04 198.88 653.68 162.72"/><polygon class="cls-4" points="650.48 321.06 653.68 201.31 646.66 197.3 639.64 193.57 632.95 321.43 650.48 321.06"/><polygon class="cls-5" points="597.21 213.77 599.09 234.47 604.44 234.47 605.53 214.41 597.21 213.77"/><polygon class="cls-5" points="608.63 216.94 608.63 217.73 608.63 234.47 613.55 234.47 614.64 218.52 608.63 216.94"/><polygon class="cls-4" points="659.43 244.97 659.43 238.02 669.9 235.39 678.81 237.84 678.81 242.97 659.43 244.97"/><polygon class="cls-4" points="659.43 238.02 659.43 265.6 681.62 267.42 679.48 242.9 659.43 238.02"/><rect class="cls-6" x="722.02" y="197.76" width="27.59" height="7.97" rx="2.36" ry="2.36"/><rect class="cls-6" x="736.93" y="184.84" width="18.92" height="6.19" rx="1.83" ry="1.83"/><rect class="cls-6" x="752.48" y="172.81" width="12.72" height="4.56" rx="1.35" ry="1.35"/><polygon class="cls-4" points="678.81 229.28 706.79 227.14 697.79 231.32 678.81 229.28"/><polygon class="cls-4" points="697.79 231.32 678.81 229.28 678.81 265.82 698.23 266.28 697.79 231.32"/><polygon class="cls-4" points="712.75 321.96 706.79 227.14 697.79 231.32 694.85 321.56 712.75 321.96"/><polygon class="cls-4" points="514.33 220.16 511.12 321.74 550.68 321.74 548.19 221.09 526.99 217.53 514.33 220.16"/><polygon class="cls-4" points="567.61 232.32 548.19 221.09 550.68 321.74 563.16 321.74 567.61 232.32"/><polygon class="cls-4" points="526.36 220.47 525.02 208.44 528.14 206.57 540.08 205.95 546.59 207.46 554.25 212 555.85 228.31 526.36 220.47"/><polygon class="cls-4" points="540.44 184.03 540.44 208.8 546.05 210.31 546.05 184.03 540.44 184.03"/><polygon class="cls-4" points="543.24 184.03 543.24 209.56 546.05 210.31 546.05 184.03 543.24 184.03"/><polygon class="cls-4" points="567.61 232.32 550.68 247.12 565.67 255.99 550.42 268.45 565.48 275.1 567.61 232.32"/><polygon class="cls-4" points="540.44 172.43 540.44 187.02 569.24 183.79 540.44 172.43"/><polygon class="cls-3" points="663.23 257.23 645.68 255.53 645.25 322.05 664.03 322.05 663.23 257.23"/><polygon class="cls-3" points="645.68 255.53 659.4 252.72 675.92 255.53 663.23 257.23 645.68 255.53"/><polygon class="cls-3" points="664.03 322.05 663.23 257.23 675.92 255.53 679.18 321.69 664.03 322.05"/><polygon class="cls-3" points="668.56 263.56 669.36 322.08 705.71 322.08 702.11 263.85 668.56 263.56"/><rect class="cls-5" x="673.51" y="283.26" width="8.29" height="4.57"/><rect class="cls-5" x="684.42" y="283.14" width="7.71" height="4.81"/><rect class="cls-5" x="673.51" y="290" width="8.29" height="4.57"/><rect class="cls-5" x="684.69" y="290" width="7.44" height="4.57"/><rect class="cls-4" x="385.75" y="167.9" width="9.99" height="153.78"/><polygon class="cls-4" points="452.84 174.64 395.74 167.9 395.74 321.68 452.84 321.68 452.84 174.64"/><rect class="cls-5" x="385.75" y="276.22" width="9.99" height="0.68"/><rect class="cls-5" x="385.75" y="240.59" width="9.99" height="0.68"/><rect class="cls-5" x="385.75" y="236.72" width="9.99" height="0.68"/><rect class="cls-5" x="385.75" y="245.25" width="9.99" height="0.68"/><rect class="cls-5" x="385.75" y="251.15" width="9.99" height="0.68"/><rect class="cls-5" x="385.75" y="256" width="9.99" height="0.68"/><rect class="cls-5" x="385.75" y="260.4" width="9.99" height="0.68"/><rect class="cls-5" x="385.75" y="265.38" width="9.99" height="0.68"/><rect class="cls-5" x="385.75" y="290.2" width="9.99" height="0.68"/><rect class="cls-5" x="385.75" y="285.15" width="9.99" height="0.68"/><rect class="cls-5" x="385.75" y="294.68" width="9.99" height="0.68"/><rect class="cls-5" x="385.75" y="299" width="9.99" height="0.68"/><rect class="cls-5" x="385.75" y="307.79" width="9.99" height="0.68"/><rect class="cls-5" x="385.75" y="303.66" width="9.99" height="0.68"/><rect class="cls-5" x="385.75" y="312.5" width="9.99" height="0.68"/><rect class="cls-5" x="385.75" y="316.88" width="9.99" height="0.68"/><rect class="cls-5" x="385.75" y="280.83" width="9.99" height="0.68"/><rect class="cls-5" x="385.75" y="270.47" width="9.99" height="0.68"/><rect class="cls-5" x="385.75" y="221.31" width="9.99" height="0.68"/><rect class="cls-5" x="385.75" y="185.68" width="9.99" height="0.68"/><rect class="cls-5" x="385.75" y="179.96" width="9.99" height="0.68"/><rect class="cls-5" x="385.75" y="174.1" width="9.99" height="0.68"/><rect class="cls-5" x="385.75" y="190.34" width="9.99" height="0.68"/><rect class="cls-5" x="385.75" y="196.23" width="9.99" height="0.68"/><rect class="cls-5" x="385.75" y="201.09" width="9.99" height="0.68"/><rect class="cls-5" x="385.75" y="205.49" width="9.99" height="0.68"/><rect class="cls-5" x="385.75" y="210.46" width="9.99" height="0.68"/><rect class="cls-5" x="385.75" y="230.92" width="9.99" height="0.68"/><rect class="cls-5" x="385.75" y="225.92" width="9.99" height="0.68"/><rect class="cls-5" x="385.75" y="215.56" width="9.99" height="0.68"/><polygon class="cls-5" points="437.24 201.09 437.24 207.18 444.41 208.75 444.41 202.78 437.24 201.09"/><polygon class="cls-5" points="437.24 211.73 437.24 217.82 444.41 219.39 444.41 213.41 437.24 211.73"/><polygon class="cls-5" points="426.7 218.16 426.7 224.25 433.87 225.82 433.87 219.85 426.7 218.16"/><polygon class="cls-5" points="437.24 220.29 437.24 226.38 444.41 227.95 444.41 221.97 437.24 220.29"/><polygon class="cls-3" points="603.47 275.46 605.92 322.49 544.75 322.85 538.57 275.46 603.47 275.46"/><polygon class="cls-3" points="622.94 290.01 603.47 275.46 605.92 322.49 624.68 322.49 622.94 290.01"/><polygon class="cls-5" points="554.78 290.31 554.78 290.72 554.78 299.25 551.43 299.25 550.68 291.12 554.78 290.31"/><polygon class="cls-5" points="561.07 290.31 561.07 290.72 561.07 299.25 557.71 299.25 556.97 291.12 561.07 290.31"/><polygon class="cls-5" points="554.78 301.62 554.78 302.02 554.78 310.55 551.43 310.55 550.68 302.42 554.78 301.62"/><polygon class="cls-5" points="561.07 301.62 561.07 302.02 561.07 310.55 557.71 310.55 556.97 302.42 561.07 301.62"/><polygon class="cls-4" points="756.75 230.78 759.43 322.81 748.07 322.81 747.29 254.24 741.7 250.37 741.7 229.51 756.75 230.78"/><polygon class="cls-4" points="729.94 218.81 735.87 246.37 707.56 246.37 704.52 211.75 729.94 218.81"/><polygon class="cls-4" points="741.7 248.77 741.7 218.81 729.94 218.81 735.87 246.37 741.7 248.77"/><polygon class="cls-4" points="735.87 246.37 731.9 321.21 748.07 321.21 747.29 252.63 741.7 248.77 735.87 246.37"/><polygon class="cls-4" points="731.9 321.21 712.75 321.96 707.56 246.37 735.87 246.37 731.9 321.21"/><rect class="cls-5" x="712.76" y="233.79" width="1.87" height="8.56"/><rect class="cls-5" x="712.76" y="244.26" width="1.87" height="8.56"/><rect class="cls-5" x="715.7" y="233.79" width="1.87" height="8.56"/><rect class="cls-5" x="715.7" y="244.26" width="1.87" height="8.56"/><rect class="cls-5" x="712.76" y="253.7" width="1.87" height="8.56"/><rect class="cls-5" x="715.7" y="264.04" width="1.87" height="8.56"/><rect class="cls-5" x="712.76" y="264.04" width="1.87" height="8.56"/><rect class="cls-5" x="715.7" y="253.97" width="1.87" height="8.56"/><polygon class="cls-4" points="704.52 211.75 741.7 218.81 730.42 221.04 704.52 211.75"/><polygon class="cls-3" points="754.17 269.74 759.95 324.33 799.87 324.33 791.99 269.74 754.17 269.74"/><polygon class="cls-5" points="785.79 285.48 790.16 285.18 788.92 278.63 785.16 278.31 785.79 285.48"/><polygon class="cls-5" points="783.29 295.64 787.66 295.34 786.42 288.79 782.66 288.47 783.29 295.64"/><polygon class="cls-5" points="789.86 303.79 794.23 303.49 792.99 296.94 789.23 296.63 789.86 303.79"/><polygon class="cls-5" points="776.66 295.64 781.03 295.34 779.79 288.79 776.03 288.47 776.66 295.64"/><polygon class="cls-3" points="744.19 324.33 739.99 270.44 754.17 269.74 759.95 324.33 744.19 324.33"/><polygon class="cls-4" points="201.82 322.13 167.33 322.13 167.33 233.06 201.02 235.57 201.82 322.13"/><polygon class="cls-5" points="201.16 251.05 167.25 249.33 167.29 246.38 201.16 248.11 201.16 251.05"/><polygon class="cls-5" points="200.89 258.58 167.29 256.87 167.34 253.93 200.93 255.64 200.89 258.58"/><polygon class="cls-5" points="201.1 244.4 167.29 242.68 167.34 239.74 201.07 241.45 201.1 244.4"/><polygon class="cls-5" points="200.85 265.41 167.25 263.7 167.29 260.75 200.89 262.47 200.85 265.41"/><polygon class="cls-5" points="200.89 296.84 167.29 295.13 167.34 292.19 200.93 293.9 200.89 296.84"/><polygon class="cls-5" points="200.87 274.3 167.27 272.59 167.31 269.65 200.91 271.36 200.87 274.3"/><polygon class="cls-5" points="200.89 281.28 167.29 279.57 167.34 276.63 200.93 278.34 200.89 281.28"/><polygon class="cls-5" points="200.89 289.69 167.29 287.98 167.34 285.04 200.93 286.75 200.89 289.69"/><polygon class="cls-4" points="167.33 233.06 162.9 235 162.9 322.13 167.65 322.13 167.33 233.06"/><polygon class="cls-4" points="355.25 302.45 349.61 232.01 390.35 231.82 389.09 202 400.36 203.28 392.62 321.74 353.65 321.74 355.25 302.45"/><polygon class="cls-4" points="397.87 321.74 392.62 321.74 400.36 203.28 405.06 213.91 397.87 321.74"/><rect class="cls-3" x="944.95" y="259.38" width="2.36" height="48.12"/><rect class="cls-3" x="943.71" y="296.14" width="4.84" height="27.11" rx="1.43" ry="1.43"/><rect class="cls-3" x="941.64" y="251.5" width="8.98" height="18.47" rx="2.66" ry="2.66"/><rect class="cls-3" x="943.93" y="248.79" width="4.4" height="2.71" rx="0.8" ry="0.8"/><rect class="cls-3" x="38.92" y="258.05" width="2.36" height="48.12"/><rect class="cls-3" x="37.68" y="294.82" width="4.84" height="27.11" rx="1.43" ry="1.43"/><rect class="cls-3" x="35.61" y="250.18" width="8.98" height="18.47" rx="2.66" ry="2.66"/><rect class="cls-3" x="37.89" y="247.47" width="4.4" height="2.71" rx="0.8" ry="0.8"/><polygon class="cls-4" points="220.65 322.97 198.22 322.97 198.22 253.82 220.65 250.99 220.65 322.97"/><polygon class="cls-4" points="228.73 253.01 220.65 250.99 220.65 322.97 228.73 322.97 228.73 253.01"/><rect class="cls-4" x="225.3" y="242.79" width="31.18" height="80.18"/><rect class="cls-4" x="229.26" y="242.79" width="5.58" height="80.18"/><rect class="cls-4" x="238.1" y="242.79" width="5.58" height="80.18"/><rect class="cls-4" x="246.94" y="242.79" width="5.58" height="80.18"/><circle class="cls-3" cx="83.96" cy="279.49" r="25.64"/><path class="cls-3" d="M109.59,279.49A25.64,25.64,0,0,1,84,305.13V253.85A25.64,25.64,0,0,1,109.59,279.49Z"/><rect class="cls-3" x="82.75" y="284.63" width="2.42" height="37.66" rx="0.72" ry="0.72"/><rect class="cls-3" x="87.95" y="282.6" width="1.42" height="13.44" rx="0.42" ry="0.42" transform="translate(246.5 31.15) rotate(48.48)"/><rect class="cls-3" x="80.72" y="292.52" width="1.39" height="6.45" rx="0.41" ry="0.41" transform="translate(356.81 430.84) rotate(131.52)"/><path class="cls-3" d="M111.42,271.12s-8.27-.76-9.81,8C110.47,279.37,111.42,271.12,111.42,271.12Z"/><path class="cls-3" d="M1033.89,284.86h0c.25-16.72-25.6-43.88-25.64-43.92h0s-25.88,27.2-25.64,43.92h0q0,.31,0,.62a25.64,25.64,0,1,0,51.27,0Q1033.9,285.16,1033.89,284.86Z"/><path class="cls-3" d="M1033.89,284.86h0c.25-16.73-25.64-43.92-25.64-43.92v43.32h0v26.85a25.64,25.64,0,0,0,25.64-25.64Q1033.9,285.16,1033.89,284.86Z"/><rect class="cls-3" x="1007.22" y="284.98" width="2.42" height="37.66" rx="0.72" ry="0.72"/><rect class="cls-3" x="1012.43" y="282.96" width="1.42" height="13.44" rx="0.42" ry="0.42" transform="translate(558.4 -660.89) rotate(48.48)"/><rect class="cls-3" x="1005.2" y="292.87" width="1.39" height="6.45" rx="0.41" ry="0.41" transform="translate(1894.39 -260.72) rotate(131.52)"/><path class="cls-3" d="M1032.87,259.88s-8.27-.76-9.81,8C1031.91,268.13,1032.87,259.88,1032.87,259.88Z"/><path class="cls-3" d="M1032.87,269.12s-8.27-.76-9.81,8C1031.91,277.36,1032.87,269.12,1032.87,269.12Z"/><path class="cls-3" d="M390.32,285.68h0c-.25-16.72,25.6-43.88,25.64-43.92h0s25.88,27.2,25.64,43.92h0q0,.31,0,.62a25.64,25.64,0,1,1-51.27,0Q390.31,286,390.32,285.68Z"/><path class="cls-3" d="M390.32,285.68h0C390.07,269,416,241.76,416,241.76v43.32h0v26.85a25.64,25.64,0,0,1-25.64-25.64Q390.31,286,390.32,285.68Z"/><rect class="cls-3" x="414.57" y="285.81" width="2.42" height="37.66" rx="0.72" ry="0.72" transform="translate(831.57 609.28) rotate(-180)"/><rect class="cls-3" x="410.37" y="283.78" width="1.42" height="13.44" rx="0.42" ry="0.42" transform="translate(901.08 175.31) rotate(131.52)"/><rect class="cls-3" x="417.63" y="293.7" width="1.39" height="6.45" rx="0.41" ry="0.41" transform="translate(363.32 -213.11) rotate(48.48)"/><path class="cls-3" d="M391.35,260.71s8.27-.76,9.81,8C392.3,269,391.35,260.71,391.35,260.71Z"/><path class="cls-3" d="M391.35,269.94s8.27-.76,9.81,8C392.3,278.19,391.35,269.94,391.35,269.94Z"/><path class="cls-3" d="M121.91,284.72h0c-.25-16.72,25.6-43.88,25.64-43.92h0s25.88,27.2,25.64,43.92h0q0,.31,0,.62a25.64,25.64,0,1,1-51.27,0Q121.9,285,121.91,284.72Z"/><path class="cls-3" d="M121.91,284.72h0c-.25-16.73,25.64-43.92,25.64-43.92v43.32h0V311a25.64,25.64,0,0,1-25.64-25.64Q121.9,285,121.91,284.72Z"/><rect class="cls-3" x="146.16" y="284.85" width="2.42" height="37.66" rx="0.72" ry="0.72" transform="translate(294.74 607.36) rotate(180)"/><rect class="cls-3" x="141.95" y="282.82" width="1.42" height="13.44" rx="0.42" ry="0.42" transform="translate(454.02 374.67) rotate(131.52)"/><rect class="cls-3" x="149.22" y="292.74" width="1.39" height="6.45" rx="0.41" ry="0.41" transform="translate(272.12 -12.47) rotate(48.48)"/><path class="cls-3" d="M175.46,265.1s-8.27-.76-9.81,8C174.51,273.35,175.46,265.1,175.46,265.1Z"/><path class="cls-3" d="M175.46,274.33s-8.27-.76-9.81,8C174.51,282.58,175.46,274.33,175.46,274.33Z"/><circle class="cls-3" cx="116.96" cy="295.51" r="16.61"/><path class="cls-3" d="M133.57,295.51A16.61,16.61,0,0,1,117,312.11V278.9A16.61,16.61,0,0,1,133.57,295.51Z"/><rect class="cls-3" x="116.18" y="298.83" width="1.57" height="24.4" rx="0.46" ry="0.46"/><rect class="cls-3" x="119.55" y="297.52" width="0.92" height="8.71" rx="0.27" ry="0.27" transform="translate(266.47 11.91) rotate(48.48)"/><rect class="cls-3" x="114.86" y="303.94" width="0.9" height="4.18" rx="0.27" ry="0.27" transform="translate(420.88 422.57) rotate(131.52)"/><path class="cls-3" d="M134.76,290.08a5.93,5.93,0,0,0-6.35,5.16A5.93,5.93,0,0,0,134.76,290.08Z"/><polygon class="cls-3" points="465.73 257.06 446.77 282.08 446.77 322.81 485.87 322.81 485.85 281.84 465.73 257.06"/><polygon class="cls-3" points="485.87 322.81 485.85 281.84 520.26 282.08 520.26 322.81 485.87 322.81"/><path class="cls-3" d="M432.36,284.22c.12-.49,27.08-37.26,27.08-37.26l6.29,10.1-19,25Z"/><polygon class="cls-3" points="459.44 246.96 488.09 293.77 527.63 293.77 505.85 255.54 459.44 246.96"/><rect class="cls-5" x="451.34" y="291.13" width="4.28" height="8.74"/><rect class="cls-5" x="451.34" y="302.33" width="4.28" height="8.74"/><line class="cls-7" x1="379.61" y1="246.21" x2="354.61" y2="246.21"/><line class="cls-7" x1="378.76" y1="255.26" x2="355.02" y2="255.26"/><line class="cls-7" x1="376.33" y1="281.47" x2="356.22" y2="281.47"/><line class="cls-7" x1="375.83" y1="286.83" x2="356.47" y2="286.83"/><line class="cls-7" x1="378.01" y1="263.39" x2="355.41" y2="263.76"/><line class="cls-7" x1="377.46" y1="269.22" x2="355.66" y2="269.22"/><line class="cls-7" x1="376.85" y1="275.82" x2="355.96" y2="275.82"/><rect class="cls-5" x="457.3" y="291.13" width="4.28" height="8.74"/><polygon class="cls-3" points="267.13 288.72 279.52 302.12 279.52 323.94 253.97 323.94 253.99 302 267.13 288.72"/><polygon class="cls-3" points="253.97 323.94 253.99 302 231.49 302.12 231.49 323.94 253.97 323.94"/><path class="cls-3" d="M288.95,303.27c-.08-.26-17.7-20-17.7-20l-4.11,5.41,12.39,13.41Z"/><polygon class="cls-3" points="271.25 283.31 252.52 308.38 226.67 308.38 240.91 287.91 271.25 283.31"/><polygon class="cls-5" points="203.09 258.29 203.09 264.19 215.44 262.26 215.44 256.58 203.09 258.29"/><polygon class="cls-5" points="203.09 265.89 203.09 271.8 215.44 269.87 215.44 264.19 203.09 265.89"/><polygon class="cls-5" points="203.09 273.5 203.09 279.4 215.44 277.47 215.44 271.8 203.09 273.5"/><polygon class="cls-5" points="203.09 281.11 203.09 287.01 215.44 285.08 215.44 279.4 203.09 281.11"/><polygon class="cls-5" points="203.09 296.32 203.09 302.23 215.44 300.3 215.44 294.62 203.09 296.32"/><polygon class="cls-5" points="203.09 303.93 203.09 309.83 215.44 307.9 215.44 302.23 203.09 303.93"/><polygon class="cls-5" points="203.09 311.54 203.09 317.44 215.44 315.51 215.44 309.83 203.09 311.54"/><circle class="cls-4" cx="358.8" cy="190.54" r="11.74"/><path class="cls-4" d="M353.79,188.48h10a1.3,1.3,0,0,1,1.09,1.8,6.88,6.88,0,0,1-2.89,3.61,6.31,6.31,0,0,1-6.22.33,6,6,0,0,1-3.14-4.09A1.29,1.29,0,0,1,353.79,188.48Z"/><circle class="cls-4" cx="357.66" cy="240.83" r="11.74"/><path class="cls-4" d="M352.65,238.47h10a1.3,1.3,0,0,1,1.09,1.8,6.88,6.88,0,0,1-2.89,3.61,6.31,6.31,0,0,1-6.22.33,6,6,0,0,1-3.14-4.09A1.29,1.29,0,0,1,352.65,238.47Z"/><polygon class="cls-8" points="290.17 212.05 277.27 322.04 311.52 322.04 295.71 212 290.17 212.05"/><line class="cls-9" x1="228.23" y1="236.57" x2="357.66" y2="191.68"/><line class="cls-9" x1="260.96" y1="274.5" x2="323.79" y2="152.31"/><line class="cls-9" x1="325.78" y1="275.34" x2="262.17" y2="152.31"/><line class="cls-9" x1="230.7" y1="186.23" x2="355.4" y2="240.83"/><circle class="cls-10" cx="293.29" cy="212.63" r="6.48" transform="translate(-52.85 105.79) rotate(-18.79)"/><circle class="cls-8" cx="293.29" cy="212.59" r="4.78"/><circle class="cls-9" cx="292.67" cy="213.33" r="68.49"/><circle class="cls-4" cx="262.51" cy="271.95" r="11.74"/><path class="cls-4" d="M257.5,270.48h10a1.3,1.3,0,0,1,1.09,1.8,6.88,6.88,0,0,1-2.89,3.61,6.31,6.31,0,0,1-6.22.33,6,6,0,0,1-3.14-4.09A1.29,1.29,0,0,1,257.5,270.48Z"/><circle class="cls-4" cx="228.23" cy="237.99" r="11.74"/><path class="cls-4" d="M223.22,235.26h10a1.3,1.3,0,0,1,1.09,1.8,6.88,6.88,0,0,1-2.89,3.61,6.31,6.31,0,0,1-6.22.33,6,6,0,0,1-3.14-4.09A1.29,1.29,0,0,1,223.22,235.26Z"/><circle class="cls-4" cx="230.7" cy="183.15" r="11.74"/><path class="cls-4" d="M225.69,181.36h10a1.3,1.3,0,0,1,1.09,1.8,6.88,6.88,0,0,1-2.89,3.61,6.31,6.31,0,0,1-6.22.33,6,6,0,0,1-3.14-4.09A1.29,1.29,0,0,1,225.69,181.36Z"/><circle class="cls-4" cx="322.7" cy="150.44" r="11.74"/><path class="cls-4" d="M317.69,149.1h10a1.3,1.3,0,0,1,1.09,1.8,6.88,6.88,0,0,1-2.89,3.61,6.31,6.31,0,0,1-6.22.33,6,6,0,0,1-3.14-4.09A1.29,1.29,0,0,1,317.69,149.1Z"/><circle class="cls-4" cx="264.46" cy="149.1" r="11.74"/><path class="cls-4" d="M259.45,148h10a1.3,1.3,0,0,1,1.09,1.8,6.88,6.88,0,0,1-2.89,3.61,6.31,6.31,0,0,1-6.22.33,6,6,0,0,1-3.14-4.09A1.29,1.29,0,0,1,259.45,148Z"/><circle class="cls-4" cx="323.79" cy="271.95" r="11.74"/><path class="cls-4" d="M318.77,270.48h10a1.3,1.3,0,0,1,1.09,1.8A6.88,6.88,0,0,1,327,275.9a6.31,6.31,0,0,1-6.22.33,6,6,0,0,1-3.14-4.09A1.29,1.29,0,0,1,318.77,270.48Z"/><rect class="cls-5" x="273.75" y="306.97" width="2.8" height="4.68" transform="translate(550.29 618.62) rotate(-180)"/><rect class="cls-5" x="273.75" y="312.97" width="2.8" height="4.68" transform="translate(550.29 630.62) rotate(-180)"/><rect class="cls-5" x="269.85" y="306.97" width="2.8" height="4.68" transform="translate(542.5 618.62) rotate(-180)"/><rect class="cls-3" x="498.14" y="259.41" width="2.36" height="48.12"/><rect class="cls-3" x="496.9" y="296.18" width="4.84" height="27.11" rx="1.43" ry="1.43"/><rect class="cls-3" x="494.83" y="251.53" width="8.98" height="18.47" rx="2.66" ry="2.66"/><rect class="cls-3" x="497.12" y="248.82" width="4.4" height="2.71" rx="0.8" ry="0.8"/><circle class="cls-3" cx="378.13" cy="294.65" r="16.77"/><path class="cls-3" d="M394.9,294.65a16.77,16.77,0,0,1-16.77,16.77V277.87A16.77,16.77,0,0,1,394.9,294.65Z"/><rect class="cls-3" x="377.33" y="298.01" width="1.58" height="24.64" rx="0.47" ry="0.47"/><rect class="cls-3" x="380.74" y="296.68" width="0.93" height="8.8" rx="0.28" ry="0.28" transform="translate(353.92 -183.92) rotate(48.48)"/><rect class="cls-3" x="376.01" y="303.17" width="0.91" height="4.22" rx="0.27" ry="0.27" transform="translate(854.59 225.8) rotate(131.52)"/><path class="cls-3" d="M396.1,289.17a6,6,0,0,0-6.42,5.21A6,6,0,0,0,396.1,289.17Z"/></svg>