<svg xmlns="http://www.w3.org/2000/svg" viewBox="0 0 441.31 124.43"><defs><style>.cls-1{fill:#5b3217;}.cls-2{fill:#35200d;}.cls-3{fill:#8f6c45;}.cls-4{fill:#101010;}.cls-5{fill:#dedbd8;}.cls-6{fill:#080304;}.cls-7{fill:#005610;}.cls-8{fill:#17aa2b;}</style></defs><title>左邊四個字</title><g id="圖層_2" data-name="圖層 2"><g id="圖層_1-2" data-name="圖層 1"><path class="cls-1" d="M30.3,73.13,17.9,55.93c-.37-.51-.79-.47-1.14.09l-1.62,2.56c-.92,1.46-.92,5.44,0,6.87,7.26,11.18,17.51,22.93,26.66,35,.63.82.49,3.59-.19,3.85l-3.31,1.28S13.54,107.74,2,112c-1,.36-1.82,2.64-1.94,5.62a16,16,0,0,0,.28,3.84c.42,2,1.19,3.11,2,3,6.92-1.06,53.91-8.18,61.34-7.87l25.3.83a26.9,26.9,0,0,0,16.75,1.5l149.48.33,64.83.67s20.85,3.17,31.9,1.83l83.94.48c1.56,0,3.1-1.48,4.29-4.48a15.5,15.5,0,0,0-.63-13.29c-1.06-2-2.31-3-3.58-3.06l-157.05-.82-44-.67a80.61,80.61,0,0,0-18.71.83l-111.35.17-30.11-2a100.67,100.67,0,0,1-17.52.56c-2.8-.23-5.55-2.08-8.12-5.42C41.67,84.48,38.23,86.66,30.3,73.13Z"/><path class="cls-2" d="M440.11,117.72a16.7,16.7,0,0,0,1.14-4.73h-3.61l-5.85,1.64h-7.36a21,21,0,0,0-3.68.33,67.74,67.74,0,0,0-7.19.67c-.84.33-11.2-2.64-11.2-2.64s-8.7,3.31-9.7,5-10.2-.35-10.7,0-7.86-4.67-8.36-5.32-11.37,0-11.37,0L340.82,116s-11-4-11.71-3.32S311.56,111,311.56,111l-20.4,1.68H283.8l-11-2.68-24.92,8s-8.7-5-10.7-5.32-4-1-5.35,0-8,1.65-8,1.65l-11.71-1.65H176.45s-10.2-4-10.7-5-8.19.67-8.86,1.88-10.7-.22-11.71,0-13.54.45-14.38,0-7.69,4.78-7.69,4.78l-8.86-1.5H98.69l-8.86-3.28-8.7-1.88-6.69,1.88-7.14-.28-9.2-1.6H53.58l-6.06,5.67H34.15l-11.87,3.83-6.69-.83L10.74,118h-9L.11,120.26c0,.39.1.78.18,1.18.42,2,1.19,3.11,2,3,6.92-1.06,53.91-8.18,61.34-7.87l25.3.83a26.9,26.9,0,0,0,16.75,1.5l149.48.33,64.83.67s20.85,3.17,31.9,1.83l83.94.48C437.37,122.21,438.91,120.72,440.11,117.72Z"/><path class="cls-3" d="M439.48,104.43c-1.06-2-2.31-3-3.58-3.06l-157.05-.82-44-.67a80.61,80.61,0,0,0-18.71.83l-111.35.17-30.11-2s-9.47-1.31-17.33-2C54.53,96.68,48,91.38,45.44,88c-7.35-9.54-11-13.47-18.94-27l-5.61-5.79c-.37-.51-3.78.21-4.14.78l-1.14,1.8,4.72,4.06,9.78,13.83,17,19.92,4.77,5.25,7.88,1.75H86.32L100,107.33h23.08l20.4-3.36h33.78l43.4-.67,36.87,1.33H394l28.76,2.69h17.91A16.64,16.64,0,0,0,439.48,104.43Z"/><path class="cls-4" d="M115.38,20.21l28.92,9.71a2.53,2.53,0,0,1,1,4.32L125.65,59.67a2.53,2.53,0,0,0-.84,1.75l-1.08,19.47a2.52,2.52,0,0,1-1,1.91L97.18,101.09a2.41,2.41,0,0,1-2.42.24L56.84,87.49a2.53,2.53,0,0,1-.51-4.26l30.3-18a2.53,2.53,0,0,0,.94-2.07L87,47.81a2.54,2.54,0,0,1,.75-1.9l25.35-25.07A2.42,2.42,0,0,1,115.38,20.21Z"/><path class="cls-5" d="M122.74,20.21l32.73,9.71a2.53,2.53,0,0,1,1,4.32L133,59.67a2.53,2.53,0,0,0-.84,1.75l-1.08,19.47a2.52,2.52,0,0,1-1,1.91l-25.51,18.29a2.41,2.41,0,0,1-2.42.24L71.93,87.49a2.53,2.53,0,0,1-.51-4.26L94,65.19a2.53,2.53,0,0,0,.94-2.07l-.59-15.3a2.54,2.54,0,0,1,.75-1.9l25.35-25.07A2.42,2.42,0,0,1,122.74,20.21Z"/><path class="cls-4" d="M101.91,0S119-.27,116.14,15.07C116.14,15.07,100.18,13.73,101.91,0Z"/><path class="cls-4" d="M127.87,6.86s-.55,6.51-8.69,7.55C119.19,14.4,118,7.29,127.87,6.86Z"/><path class="cls-5" d="M104.77,0S121.84-.27,119,15.07C119,15.07,103,13.73,104.77,0Z"/><path class="cls-5" d="M130.74,6.86s-.55,6.51-8.69,7.55C122,14.4,120.86,7.29,130.74,6.86Z"/><path class="cls-6" d="M129,31.17a4.72,4.72,0,0,0-6.26,0,3.8,3.8,0,0,0,0,5.72,4.72,4.72,0,0,0,6.26,0A3.8,3.8,0,0,0,129,31.17Z"/><polygon class="cls-4" points="118.69 60.84 112.1 69.91 118.69 78.98 109.12 72.74 99.55 78.98 106.14 69.91 99.55 60.84 109.12 67.08 118.69 60.84"/><path class="cls-7" d="M39.66,39.58S16,39.22,19.95,60.45C19.95,60.45,42.05,58.59,39.66,39.58Z"/><path class="cls-7" d="M3.82,48.64s.76,9,12,10.45C15.85,59.09,17.5,49.23,3.82,48.64Z"/><path class="cls-8" d="M38,38.57S14.38,38.2,18.3,59.44C18.3,59.44,40.41,57.58,38,38.57Z"/><path class="cls-8" d="M3.18,49.62s.76,9,12,10.45C15.21,60.07,16.86,50.22,3.18,49.62Z"/></g></g></svg>