<?xml version="1.0" encoding="utf-8"?>
<!-- Generator: Adobe Illustrator 21.1.0, SVG Export Plug-In . SVG Version: 6.00 Build 0)  -->
<svg version="1.1" id="圖層_1" xmlns="http://www.w3.org/2000/svg" xmlns:xlink="http://www.w3.org/1999/xlink" x="0px" y="0px"
	 viewBox="0 0 152.6 58.5" style="enable-background:new 0 0 152.6 58.5;" xml:space="preserve">
<style type="text/css">
	.st0{fill:#C7301D;}
	.st1{fill:#393E3D;}
	.st2{fill:#D9DFDB;}
	.st3{fill:#EFCB95;}
</style>
<title>紅色車車</title>
<g id="圖層_2">
	<g id="圖層_1-2">
		<path class="st0" d="M0.6,39.7c1,5.4,5.3,9.2,10.2,9.2h131.4c5.6,0,10.2-4.8,10.4-11c0.1-4.6-1.9-10.1-9-15.3
			c-2.7-1.9-5.7-3.3-8.9-4.1c-6.3-1.6-20-5.6-31.6-13C97.7,1.9,91.3,0,84.8,0L53.7,0c-3.1,0-6.1,0.4-9.1,1.3l0,0
			c0,0-17.7,3.6-38.6,16.9C6,18.2-2.4,23.9,0.6,39.7z"/>
		<ellipse class="st1" cx="125.7" cy="43.2" rx="13.8" ry="15.3"/>
		<ellipse class="st2" cx="125.7" cy="43.2" rx="8.1" ry="9"/>
		<ellipse class="st1" cx="29.2" cy="43.2" rx="13.8" ry="15.3"/>
		<ellipse class="st2" cx="29.2" cy="43.2" rx="8.1" ry="9"/>
		<path class="st2" d="M69.2,3.3v12.9h32.9c0,0-8.5-12.9-21.2-12.9H69.2z"/>
		<path class="st2" d="M29.2,16.2h38.2V3.3h-11c-2.2,0-4.4,0.3-6.5,1C44.8,5.9,35.4,9.5,29.2,16.2z"/>
		<path class="st3" d="M146.5,28.2c-0.2,3.5,1.4,6.9,4.3,8.9c0.5,0.4,1.1,0.7,1.8,0.8c0.4-7.9-6-12.8-6-12.8L146.5,28.2z"/>
	</g>
</g>
</svg>
