<svg xmlns="http://www.w3.org/2000/svg" viewBox="0 0 892.61 140.66"><defs><style>.cls-1{fill:#5d3210;}.cls-2{fill:#36210e;}.cls-3{fill:#936e46;}.cls-4{fill:#005610;}.cls-5{fill:#17aa2b;}.cls-6{fill:#101010;}.cls-7{fill:#dedbd8;}.cls-8{fill:#080304;}</style></defs><title>資產 1</title><g id="圖層_2" data-name="圖層 2"><g id="圖層_1-2" data-name="圖層 1"><path class="cls-1" d="M845.12,65.53l24.71-17.2a1.82,1.82,0,0,1,2.28.09L875.34,51c1.84,1.46,1.83,5.44,0,6.87-14.47,11.18-60.71,46.76-78.95,58.8-1.25.82-1,3.59.37,3.85l6.6,1.28s49.37,2.19,72.47,6.42c2,.36,3.63,2.64,3.87,5.62a8.3,8.3,0,0,1-.57,3.84c-.83,2-2.37,3.11-3.94,3-13.8-1.06-107.47-8.18-122.27-7.87l-50.44.83a102.73,102.73,0,0,1-33.39,1.5l-298,.33-129.22.67s-41.56,3.17-63.58,1.83L11,138.43A10.88,10.88,0,0,1,2.4,134c-2.61-3.28-4.2-8,1.25-13.29a10.28,10.28,0,0,1,7.13-3.06l313.07-.82,87.74-.67a319.16,319.16,0,0,1,37.3.83l222,.17,60-2s19.26,1.21,34.93.56A32,32,0,0,0,782,110.26C796.65,100.72,829.31,79.06,845.12,65.53Z"/><path class="cls-2" d="M2.4,134a10.65,10.65,0,0,1-2.27-4.73H7.31L19,130.86H33.65c4,0,7.33.33,7.33.33s12.67.33,14.33.67,22.33-2.64,22.33-2.64,17.33,3.31,19.33,5,20.33-.35,21.33,0S134,129.53,135,128.88s22.67,0,22.67,0l42.67,3.32s22-4,23.33-3.32,35-1.68,35-1.68l40.67,1.68H314l22-2.68,49.67,8s17.33-5,21.33-5.32,8-1,10.67,0,16,1.65,16,1.65L457,128.88h71s20.33-4,21.33-5,16.33.67,17.67,1.88,21.33-.22,23.33,0,27,.45,28.67,0,15.33,4.78,15.33,4.78L652,129h31l17.67-3.28L718,123.86l13.33,1.88,14.22-.28,18.35-1.6h9L785,129.53h26.67l23.67,3.83,13.33-.83,9.67,1.67h18l3.17,2.29a7.72,7.72,0,0,1-.37,1.18c-.83,2-2.37,3.11-3.94,3-13.8-1.06-107.47-8.18-122.27-7.87l-50.44.83a102.73,102.73,0,0,1-33.39,1.5l-298,.33-129.22.67s-41.56,3.17-63.58,1.83L11,138.43A10.88,10.88,0,0,1,2.4,134Z"/><path class="cls-3" d="M3.65,120.66a10.28,10.28,0,0,1,7.13-3.06l313.07-.82,87.74-.67a319.16,319.16,0,0,1,37.3.83l222,.17,60-2s19.26,1.21,34.93.56a32,32,0,0,0,16.2-5.42c14.64-9.54,47.3-31.2,63.12-44.73l24.71-17.2a1.82,1.82,0,0,1,2.28.09l2.27,1.8L865,54.28l-19.5,13.83-59.67,43.75-9.5,5.25-15.7,1.75h-53l-27.33,4.69h-46l-40.67-3.36H526.31l-86.51-.67-73.49,1.33h-272L37,123.56H1.28A14.22,14.22,0,0,1,3.65,120.66Z"/><path class="cls-4" d="M892.42,31.47s-23.64-.37-19.71,20.87C872.71,52.34,894.82,50.48,892.42,31.47Z"/><path class="cls-4" d="M856.58,40.53s.76,9,12,10.45C868.61,51,870.27,41.12,856.58,40.53Z"/><path class="cls-5" d="M890.78,30.46s-23.64-.37-19.71,20.87C871.07,51.33,893.18,49.47,890.78,30.46Z"/><path class="cls-5" d="M855.94,41.51s.76,9,12,10.45C868,52,869.63,42.11,855.94,41.51Z"/><path class="cls-6" d="M710.33,24,676,35.56a3,3,0,0,0-1.2,5.14l23.37,30.21a3,3,0,0,1,1,2.08l1.28,23.13a3,3,0,0,0,1.24,2.27L732,120.13a2.87,2.87,0,0,0,2.87.28L779.89,104a3,3,0,0,0,.6-5.07l-36-21.43A3,3,0,0,1,743.37,75l.7-18.18a3,3,0,0,0-.89-2.26L713.07,24.77A2.88,2.88,0,0,0,710.33,24Z"/><path class="cls-7" d="M701.59,24l-38.9,11.54a3,3,0,0,0-1.2,5.14l27.9,30.21a3,3,0,0,1,1,2.08l1.28,23.13a3,3,0,0,0,1.24,2.27l30.32,21.74a2.87,2.87,0,0,0,2.87.28L762,104a3,3,0,0,0,.6-5.07L735.74,77.47A3,3,0,0,1,734.62,75l.7-18.18a3,3,0,0,0-.89-2.26L704.33,24.77A2.88,2.88,0,0,0,701.59,24Z"/><path class="cls-6" d="M726.34,0s-20.29-.32-16.92,17.9C709.42,17.9,728.4,16.31,726.34,0Z"/><path class="cls-6" d="M695.49,8.15s.65,7.73,10.32,9C705.81,17.12,707.23,8.66,695.49,8.15Z"/><path class="cls-7" d="M722.94,0S702.66-.32,706,17.9C706,17.9,725,16.31,722.94,0Z"/><path class="cls-7" d="M692.08,8.15s.65,7.73,10.32,9C702.41,17.12,703.83,8.66,692.08,8.15Z"/><path class="cls-8" d="M694.19,37a5.61,5.61,0,0,1,7.43,0,4.52,4.52,0,0,1,0,6.79,5.61,5.61,0,0,1-7.43,0A4.52,4.52,0,0,1,694.19,37Z"/><polygon class="cls-6" points="706.4 72.3 714.23 83.08 706.4 93.85 717.77 86.43 729.14 93.85 721.32 83.08 729.14 72.3 717.77 79.72 706.4 72.3"/></g></g></svg>