<svg xmlns="http://www.w3.org/2000/svg" viewBox="0 0 299.97 124.63"><defs><style>.cls-1{fill:#593117;}.cls-2{fill:#341f0c;}.cls-3{fill:#8c6a44;}.cls-4{fill:#02542e;}.cls-5{fill:#25a039;}.cls-6{fill:#101010;}.cls-7{fill:#dedbd8;}.cls-8{fill:#080304;}</style></defs><title>左邊兩個字</title><g id="圖層_2" data-name="圖層 2"><g id="圖層_1-2" data-name="圖層 1"><path class="cls-1" d="M30.3,73.33,17.9,56.13c-.37-.51-.79-.47-1.14.09l-1.62,2.56c-.92,1.46-.92,5.44,0,6.87,7.26,11.18,17.51,22.93,26.66,35,.63.82.49,3.59-.19,3.85l-3.31,1.28S13.54,107.94,2,112.17c-1,.36-1.82,2.64-1.94,5.62a16,16,0,0,0,.28,3.84c.42,2,1.19,3.11,2,3,6.92-1.06,52.91-8.18,60.34-7.87l34.3.83,71.66,1.83,21.83.67,95.07,2.32c1.56,0,12.1-1.48,13.29-4.48a15.5,15.5,0,0,0-.63-13.29c-1.06-2-3.31-3-19.58-3.06l-129.79-.49-66.11-2S64,100.3,56.14,99.64c-2.8-.23-5.55-2.08-8.12-5.42C40.67,84.68,38.23,86.86,30.3,73.33Z"/><path class="cls-2" d="M298.77,117.92a16.7,16.7,0,0,0,1.14-4.73H296.3l-14.85,1.64h.64a21,21,0,0,0-3.68.33,67.74,67.74,0,0,0-7.19.67c-.84.33-9.46-2.33-10-3s-4.6,0-4.6,0l-27.4,3.32-43.66-3.32H165.88l-24.19.15-59.25-3.28-16.14-.28L47.52,113.5H34.15l-11.87,3.83-6.69-.83-4.85,1.67h-9L.11,120.46c0,.39.1.78.18,1.18.42,2,1.19,3.11,2,3,6.92-1.06,52.91-8.18,60.34-7.87l34.3.83,71.66,1.83,21.83.67,95.07,2.32C287,122.41,297.57,120.92,298.77,117.92Z"/><path class="cls-3" d="M298.14,104.63c-1.06-2-3.31-3-19.58-3.06l-129.79-.49-66.11-2s-18.47-1.31-26.33-2c-2.8-.23-8.31-5.54-10.88-8.87-7.35-9.54-11-13.47-18.94-27l-5.61-5.79c-.37-.51-3.78.21-4.14.78L15.62,58l4.72,4.06,9.78,13.83,17,19.92,3.77,5.25,7.88,1.75H94.32L143,107.53h3.51l11.4-3.36h1.78l8.4-.67,6.87,1.33h90.68l14.76,2.69h18.91A16.64,16.64,0,0,0,298.14,104.63Z"/><path class="cls-4" d="M41.93,38.05s-23.64-.37-19.71,20.87C22.22,58.92,44.33,57.06,41.93,38.05Z"/><path class="cls-4" d="M6.09,47.11s.76,9,12,10.45C18.12,57.56,19.77,47.7,6.09,47.11Z"/><path class="cls-5" d="M40.29,37s-23.64-.37-19.71,20.87C20.58,57.91,42.69,56,40.29,37Z"/><path class="cls-5" d="M5.45,48.09s.76,9,12,10.45C17.48,58.54,19.13,48.69,5.45,48.09Z"/><path class="cls-6" d="M96.41,20.21l28.92,9.71a2.53,2.53,0,0,1,1,4.32L106.68,59.67a2.53,2.53,0,0,0-.84,1.75l-1.08,19.47a2.52,2.52,0,0,1-1,1.91L78.21,101.09a2.41,2.41,0,0,1-2.42.24L37.88,87.49a2.53,2.53,0,0,1-.51-4.26l30.3-18a2.53,2.53,0,0,0,.94-2.07L68,47.81a2.54,2.54,0,0,1,.75-1.9L94.11,20.84A2.42,2.42,0,0,1,96.41,20.21Z"/><path class="cls-7" d="M103.77,20.21l32.73,9.71a2.53,2.53,0,0,1,1,4.32L114,59.67a2.53,2.53,0,0,0-.84,1.75l-1.08,19.47a2.52,2.52,0,0,1-1,1.91L85.57,101.09a2.41,2.41,0,0,1-2.42.24L53,87.49a2.53,2.53,0,0,1-.51-4.26L75,65.19A2.53,2.53,0,0,0,76,63.12l-.59-15.3a2.54,2.54,0,0,1,.75-1.9l25.35-25.07A2.42,2.42,0,0,1,103.77,20.21Z"/><path class="cls-6" d="M82.94,0S100-.27,97.18,15.07C97.18,15.07,81.21,13.73,82.94,0Z"/><path class="cls-6" d="M108.91,6.86s-.55,6.51-8.69,7.55C100.22,14.4,99,7.29,108.91,6.86Z"/><path class="cls-7" d="M85.8,0S102.87-.27,100,15.07C100,15.07,84.08,13.73,85.8,0Z"/><path class="cls-7" d="M111.77,6.86s-.55,6.51-8.69,7.55C103.08,14.4,101.89,7.29,111.77,6.86Z"/><path class="cls-8" d="M110,31.17a4.72,4.72,0,0,0-6.26,0,3.8,3.8,0,0,0,0,5.72,4.72,4.72,0,0,0,6.26,0A3.8,3.8,0,0,0,110,31.17Z"/><polygon class="cls-6" points="99.72 60.84 93.14 69.91 99.72 78.98 90.15 72.74 80.58 78.98 87.17 69.91 80.58 60.84 90.15 67.08 99.72 60.84"/></g></g></svg>